<svg width="32" height="75" viewBox="0 0 32 75" fill="none" xmlns="http://www.w3.org/2000/svg">
<g clip-path="url(#clip0_1_16)">
<path fill-rule="evenodd" clip-rule="evenodd" d="M1.01685 52.9087C1.01685 52.0553 1.02621 51.1882 1.03526 50.3497C1.04108 49.8044 1.04709 49.2468 1.05057 48.6899L1.05356 47.8568V47.822C1.05356 47.5277 1.05199 47.2334 1.05041 46.9389C1.04894 46.6433 1.04736 46.3475 1.04736 46.0518C1.04736 45.2612 1.05735 44.3265 1.13163 43.387C1.20402 42.4737 1.3106 41.5514 1.41381 40.6594C1.46852 40.1865 1.52323 39.7134 1.57321 39.2397C1.74134 37.6487 1.84265 36.2625 1.88285 35.0022C1.88853 34.8229 1.89179 34.6431 1.89505 34.4631C1.9041 33.9708 1.91336 33.4618 1.97364 32.9595C1.99581 32.7744 2.02845 32.5919 2.06402 32.4131L2.11863 32.1475L2.13756 32.0569C2.15019 31.6984 2.21553 31.341 2.27865 30.9953C2.31916 30.7739 2.35735 30.5651 2.38187 30.3594C2.42753 29.9772 2.53179 29.6101 2.63269 29.255C2.71791 28.9551 2.7984 28.6717 2.84627 28.3805C3.03323 27.2423 3.49354 26.1331 3.93858 25.0604C4.06557 24.7544 4.19698 24.4379 4.31671 24.132C4.58869 23.4377 4.90138 22.7516 5.20376 22.088C5.50982 21.4162 5.8263 20.7216 6.0968 20.0257C6.35835 19.3527 6.62328 18.6258 6.79109 17.8686C6.82528 17.494 6.67083 17.0484 6.52343 16.6131C6.42453 16.3207 6.32205 16.0185 6.27418 15.7344C6.16087 15.0644 6.09132 14.5193 6.05513 14.0191C5.9717 12.8633 5.96034 11.7172 5.96034 10.7483L5.96102 10.338L5.96265 9.92773L5.96286 9.84074C5.96286 9.49619 5.95413 9.14707 5.94476 8.77753C5.93551 8.40405 5.92572 8.01772 5.92572 7.63263C5.92572 6.30254 6.03398 4.7715 6.83623 3.50009C6.88704 3.41953 6.95764 3.35981 7.04023 3.326C7.25225 3.16774 7.5438 3.0696 7.78656 3.00072L7.95747 2.95408L7.98567 2.94672C8.47017 2.817 8.96456 2.69497 9.44264 2.57697C9.71903 2.50885 9.99532 2.44073 10.271 2.37094C11.7291 2.00099 13.2953 1.64566 14.8682 1.55048C15.7856 1.495 16.7154 1.4866 17.6148 1.47852C18.3703 1.47177 19.1516 1.46473 19.9167 1.42957C20.3588 1.40926 20.8125 1.37888 21.2513 1.34963C21.9601 1.30215 22.6932 1.2532 23.4175 1.24284C24.1158 1.20561 24.8395 1.20841 25.5391 1.21111C25.8658 1.21235 26.1913 1.21359 26.5144 1.21079C27.715 1.20053 28.8928 1.36384 30.1976 1.56219C30.3718 1.58863 30.5076 1.70673 30.5598 1.87149C30.7621 2.21137 30.788 2.56287 30.788 2.83194C30.788 2.98042 30.7787 3.12859 30.7696 3.27157C30.7567 3.4749 30.7441 3.66288 30.7587 3.84724C30.8009 4.38392 30.8932 4.92921 30.9824 5.45656C31.0695 5.97105 31.1594 6.50327 31.2058 7.03799C31.2414 7.44807 31.2588 7.87007 31.2588 8.32816C31.2588 9.48178 31.145 10.653 31.0351 11.7856C30.9776 12.3769 30.9183 12.9885 30.877 13.5826C30.8742 13.6224 30.8665 13.6571 30.8578 13.686C30.8492 13.7551 30.8222 13.8203 30.7785 13.8766C30.4457 14.3054 29.8935 14.5055 29.4065 14.6819C29.2749 14.7295 29.1482 14.7754 29.0308 14.8236L28.8622 14.8981L28.6667 14.9925C28.0657 15.2833 27.4466 15.5828 26.8043 15.7811C26.8407 16.0765 26.8748 16.3303 26.9098 16.5663C27.0483 17.4974 27.3299 18.3297 27.645 19.1831L27.8049 19.6121L27.9083 19.8888C28.7975 22.2767 29.3138 24.4708 29.4865 26.5965C29.5572 27.4659 29.5915 28.4107 29.5915 29.4844C29.5915 30.6135 29.5539 31.759 29.5175 32.8669C29.5028 33.3127 29.4882 33.7574 29.476 34.2006C29.4656 34.576 29.4609 34.9555 29.4562 35.3373C29.4339 37.1456 29.4109 39.0153 28.7852 40.7482C28.7901 40.8506 28.7927 40.9578 28.7927 41.0677C28.7927 41.5129 28.7529 41.9633 28.7145 42.3988C28.6822 42.7644 28.6518 43.1095 28.6438 43.4455C28.6334 43.913 28.6553 44.407 28.677 44.8862C28.6953 45.2885 28.7141 45.7046 28.7141 46.1137C28.7141 46.6071 28.6857 47.0311 28.6274 47.4101C28.4395 48.6294 27.913 49.463 27.0209 49.9509L26.8241 50.0502L26.6881 50.1143C26.2096 50.3413 25.5231 50.6668 24.9326 50.5823C24.5883 51.4303 23.9502 52.3095 23.1856 52.9786C22.3658 53.6962 20.8985 53.8813 19.8117 53.7083C19.6412 54.209 19.4107 54.727 19.0376 55.0705C18.3436 55.7087 17.4745 55.9492 16.795 56.0873C16.5692 56.1332 16.3432 56.1875 16.1039 56.245C15.4933 56.3917 14.865 56.5426 14.2286 56.5511L13.9098 56.5428L13.8789 56.5407C13.4987 56.5151 13.0677 56.4862 12.6943 56.2539C12.4424 56.0971 12.2424 55.9154 12.049 55.7396C11.9953 55.6907 11.9431 55.6434 11.8907 55.5971C11.4777 55.7502 11.0617 55.7742 10.6522 55.6684C9.21654 55.2972 8.80358 53.8781 8.47175 52.7379C8.43892 52.6254 8.40662 52.5143 8.3739 52.4059C8.23839 51.957 8.07573 51.52 7.90665 51.111C7.90434 51.3522 7.89319 51.5691 7.87256 51.7716C7.84542 52.0385 7.82732 52.3097 7.80986 52.572C7.76946 53.1784 7.72779 53.8044 7.5705 54.4214C7.59196 54.4866 7.59807 54.5577 7.5867 54.626C7.67466 55.0553 7.68729 55.4915 7.68729 55.9005C7.68729 56.0099 7.68634 56.1193 7.68529 56.2284C7.6835 56.4335 7.6815 56.6373 7.68665 56.8377C7.69875 57.3189 7.73042 57.8092 7.76114 58.2835C7.7865 58.6755 7.8127 59.0808 7.82795 59.4822C7.83669 59.7107 7.8409 59.9433 7.8409 60.1933C7.8409 60.6753 7.82448 61.1609 7.80297 61.6405L7.7683 62.3543L7.76199 62.4808C7.75199 62.6798 7.74452 62.8782 7.73716 63.0764C7.71696 63.6176 7.69612 64.1766 7.62069 64.732C7.69352 64.9513 7.71279 65.1599 7.71872 65.3721L7.72169 65.5859L7.72274 65.702C7.72706 66.0468 7.74231 66.3994 7.75704 66.7406C7.7684 67.0035 7.77977 67.2665 7.78661 67.5294C7.80091 68.0812 7.81733 68.7066 7.81733 69.3266C7.81733 69.9161 7.80239 70.4357 7.77177 70.9156C7.72758 71.6055 7.59565 72.3903 6.95133 72.9812C6.32595 73.5545 5.18892 73.8969 4.36259 73.7604C3.30941 73.5866 2.79272 73.1458 2.51938 72.1885C2.32589 71.5106 2.2635 70.8271 2.20311 70.1661C2.15945 69.6879 2.11421 69.1935 2.01931 68.7124C1.75449 67.3703 1.40245 65.3523 1.40245 63.3306C1.40245 62.9825 1.41276 62.6383 1.43306 62.3071C1.40802 61.91 1.39582 61.5603 1.39582 61.2384C1.39582 61.1459 1.39677 61.0531 1.39887 60.9603C1.4197 60.0583 1.32848 59.1369 1.24042 58.2445C1.18529 57.6851 1.12827 57.1067 1.09838 56.5343C1.04283 55.47 1.01685 54.318 1.01685 52.9087ZM6.70345 10.7421C6.7085 12.0984 6.7247 13.4592 6.88094 14.8084C6.9609 15.4989 7.05812 16.1974 7.20899 16.8769C7.21741 16.9146 7.22551 16.9513 7.23361 16.988C7.27264 16.6885 7.30831 16.3887 7.35597 16.0901C7.35418 15.8181 7.40195 15.5522 7.57534 15.3383C7.91875 14.9146 8.40199 14.6329 8.89817 14.4112C8.94025 14.3925 8.98297 14.3753 9.02516 14.3568C9.05441 14.3293 9.09134 14.312 9.13037 14.3117C10.3342 13.7946 11.5834 13.4188 12.8902 13.2493C14.3352 13.062 15.7824 12.866 17.2356 12.7457C17.2387 12.7453 17.242 12.7452 17.2452 12.7449C17.5629 12.7187 17.8807 12.6948 18.1991 12.6769C19.0532 12.6288 19.9273 12.5514 20.7829 12.5836C21.1108 12.5958 21.4548 12.5951 21.7962 12.6109C22.9592 12.5627 24.1286 12.5858 25.279 12.6635C26.9608 12.7771 28.5516 13.1219 30.195 13.4234C30.0589 11.3906 30.6699 9.37052 30.4945 7.32997C30.4099 6.34577 30.179 5.38326 30.0771 4.40176C30.003 3.68652 30.1701 2.90047 29.9704 2.20618C28.1906 1.99146 26.4027 1.89481 24.6123 1.82607C21.5578 2.0265 18.4929 2.02245 15.4377 2.18618C13.8318 2.27213 12.2685 2.5806 10.714 2.97482C10.0307 3.14808 9.35258 3.33523 8.6626 3.48091C8.36001 3.54468 7.61364 3.58813 7.33251 3.80348C6.36025 5.94669 6.69514 8.45798 6.70345 10.7421ZM18.1087 2.59965C20.0333 2.40917 21.9953 2.41954 23.9279 2.36096C25.6871 2.30766 27.514 2.14281 29.2517 2.49482C29.3759 2.47388 29.5093 2.52644 29.5489 2.68259C29.6502 3.082 29.6706 3.47227 29.674 3.86958L29.6744 4.47285C29.6784 5.15241 29.7823 5.82295 29.8164 6.50086C29.8189 6.5527 29.8203 6.60465 29.8226 6.65649C29.9414 7.35897 30.0328 8.06518 30.0143 8.76828C29.981 10.0322 29.4221 11.3053 29.6562 12.5631C29.6791 12.6862 29.6007 12.8288 29.4567 12.8213C28.9579 12.7954 28.508 12.6116 28.0232 12.5108C27.73 12.4499 27.436 12.4054 27.1407 12.3735C26.5708 12.3779 26.0023 12.3428 25.4621 12.223C25.4307 12.2161 25.4397 12.1715 25.4695 12.1699C25.787 12.1531 26.1087 12.1153 26.4322 12.0746L26.9088 12.0157L26.5724 11.9813C26.3426 11.9546 26.1146 11.9169 25.8901 11.8637L25.5564 11.7718C25.4984 11.7533 25.5074 11.6651 25.5709 11.6655C25.992 11.6689 26.4127 11.698 26.8339 11.689C25.9767 11.3908 25.1643 10.529 25.4263 9.64153C25.5015 8.97451 25.9788 8.34659 26.7364 7.95901C26.9306 7.85967 27.1292 7.79466 27.3273 7.75516C27.4044 7.71037 27.485 7.67448 27.569 7.64774C27.244 7.64639 26.9185 7.6551 26.5906 7.68279C26.525 7.68828 26.5113 7.58324 26.5751 7.56997C27.2099 7.43829 27.8608 7.3428 28.5112 7.34643C28.674 7.23901 28.7748 7.11821 28.8303 6.98621C28.8729 6.8226 28.8679 6.65048 28.8189 6.4767C28.7188 6.28519 28.5912 6.10539 28.433 5.94354C28.1548 5.65923 27.8452 5.48411 27.5107 5.35709C25.9437 5.17491 24.373 5.09196 22.7891 5.08305C22.7497 5.08284 22.7384 5.01907 22.7795 5.01337C24.2936 4.80071 25.8243 4.75055 27.348 4.84281L27.9902 4.89073L27.1472 4.76691C25.1496 4.51453 23.1104 4.50767 21.1055 4.43563C21.0446 4.43345 21.0474 4.35091 21.1055 4.34438C22.5233 4.18719 23.9534 4.16594 25.379 4.134C25.7029 4.12675 26.0288 4.12128 26.3549 4.12364L26.8338 4.13469L25.9197 4.05116C24.0701 3.91187 22.2146 3.91975 20.3492 3.91522C20.2702 3.91502 20.2741 3.8049 20.3492 3.79691C21.492 3.67581 22.6455 3.56699 23.8 3.51741L24.6551 3.49235L24.1472 3.4488C23.9739 3.43596 23.8001 3.42479 23.6257 3.41556C22.0101 3.33022 20.3694 3.44086 18.7605 3.27994C18.7073 3.27465 18.7079 3.20476 18.7605 3.19885C20.4486 3.009 22.1973 2.93684 23.8961 2.93176C24.215 2.93079 24.5357 2.93742 24.857 2.95185L25.3362 2.97945L24.8446 2.87139C24.5133 2.80744 24.179 2.75943 23.8445 2.72666C21.9294 2.7727 20.0117 2.85534 18.1087 2.73817C18.0171 2.73247 18.0194 2.60846 18.1087 2.59965ZM26.3835 14.6972L26.4151 14.9726C26.5741 14.9265 26.7304 14.8772 26.8837 14.8114C26.924 14.7941 26.9548 14.8441 26.9184 14.8698C26.7658 14.9771 26.6056 15.0751 26.4362 15.1544C26.4456 15.237 26.455 15.3195 26.4647 15.4022C27.1246 14.997 27.8635 14.6817 28.5529 14.334C28.8592 14.1796 29.1922 14.0539 29.5196 13.921L30.0021 13.7118L29.794 13.6758C29.7932 13.6762 29.7927 13.6768 29.7919 13.6773C28.9314 14.0042 28.0862 14.3786 27.2195 14.6872C27.188 14.6984 27.1708 14.6519 27.1974 14.6357C27.8814 14.2204 28.6406 13.8922 29.394 13.6006C29.315 13.5844 29.2359 13.5688 29.1568 13.5517C29.1522 13.5533 29.1495 13.5564 29.1444 13.5576C28.6307 13.6884 28.1127 13.9809 27.6118 14.1668C27.1927 14.3222 26.798 14.5394 26.3835 14.6972ZM25.7115 9.72002C25.7193 10.1005 25.8285 10.435 26.0068 10.7444C26.3978 11.1815 27.0155 11.46 27.565 11.4456C28.4208 11.4232 29.308 10.6299 29.3753 9.74583L29.3793 9.6181C29.3767 9.44909 29.3436 9.2779 29.2733 9.10941C28.8626 8.1246 27.6565 7.75308 26.7246 8.36152C26.2455 8.67434 25.6981 9.07229 25.7115 9.72002ZM21.2912 20.4621C21.3393 21.3748 21.3703 22.2893 21.3473 23.2029C21.3459 23.2537 21.344 23.3045 21.3424 23.3552C21.3718 24.1709 21.3686 24.9861 21.3551 25.8008L21.3057 28.2441L21.2992 29.4651C21.3223 29.2876 21.3432 29.1108 21.3585 28.9355C21.5046 27.2717 21.5994 25.6043 21.7596 23.9417C21.7666 23.869 21.8739 23.8664 21.8762 23.9417C21.9245 25.5473 21.9879 27.1721 21.9336 28.7791C22.0927 27.4005 22.1451 26.0152 22.3128 24.639C22.3192 24.5858 22.407 24.5617 22.4172 24.6251C22.6157 25.8686 22.6009 27.1848 22.5261 28.4573C22.6043 27.4925 22.6687 26.5219 22.8104 25.5646C22.8176 25.5154 22.886 25.5344 22.8912 25.5754C23.0303 26.6876 23.0554 27.8438 23.017 28.9637C23.006 29.2843 23.004 29.6172 22.9986 29.9534C23.007 29.9005 23.0153 29.8476 23.023 29.7951C23.1911 28.6441 23.2682 27.485 23.2793 26.3227C23.2797 26.2764 23.3548 26.2634 23.3635 26.3115C23.6828 28.105 23.6705 29.9956 23.4809 31.824C23.6577 30.3122 23.802 28.7961 23.9429 27.2813C23.9482 27.2239 24.0249 27.2256 24.032 27.2813C24.2244 28.7846 24.2602 30.2801 24.1677 31.7803C24.3287 30.5079 24.4807 29.2357 24.5951 27.9542C24.6019 27.8777 24.7072 27.8784 24.715 27.9542C24.8598 29.3596 24.8946 30.8009 24.7959 32.2234C24.8304 32.005 24.8623 31.7864 24.8842 31.5673C24.9841 30.5655 24.9811 29.5523 25.1169 28.5547C25.1247 28.497 25.2194 28.4694 25.2314 28.5395C25.4028 29.5457 25.3865 30.5815 25.367 31.6037L25.3578 32.1135L25.3523 32.3166C25.5068 31.2495 25.6582 30.182 25.7686 29.1072C25.7732 29.062 25.8483 29.0428 25.8561 29.0956C26.0679 30.531 26.0303 32.0104 25.8741 33.4668C25.924 33.2387 25.9714 33.0101 26.0129 32.7806C26.1887 31.8059 26.283 30.8368 26.3484 29.8505C26.3514 29.8058 26.4251 29.7896 26.4326 29.8393C26.7016 31.6202 26.5303 33.592 26.1562 35.3799C26.6634 33.2498 26.9953 31.1109 26.8789 28.896C26.8754 28.8301 26.9872 28.8138 26.9967 28.8802C27.345 31.2744 27.3893 33.7793 26.7811 36.1447C26.7846 36.1481 26.7885 36.1508 26.7919 36.1546C27.0721 35.1368 27.3865 34.1058 27.4713 33.0785C27.5801 31.7609 27.4304 30.4046 27.6598 29.0998C27.6645 29.0726 27.7061 29.0752 27.7126 29.0998C28.0611 30.4106 28.0594 31.9803 27.9423 33.3247C27.9164 33.6213 27.8825 33.9182 27.8444 34.2152C27.8532 34.1729 27.8633 34.1308 27.8719 34.0885C28.1243 32.8423 28.256 31.594 28.3921 30.3323C28.3969 30.2873 28.4721 30.2677 28.4796 30.3207C28.7076 31.9301 28.5737 33.6168 28.3312 35.2336C28.4045 35.0597 28.4696 34.8817 28.5203 34.6957C28.7358 33.904 28.8236 33.0907 28.9165 32.2782C28.9776 30.306 29.0544 28.3112 28.85 26.3592C28.6075 24.0427 28.0322 21.7651 27.1386 19.6076C26.7015 18.5523 26.4257 17.5645 26.265 16.4339C26.1298 15.4826 25.998 14.0092 25.7713 13.0707C25.6166 13.0578 25.4613 13.0486 25.3062 13.0381C25.6642 13.9825 25.7403 15.0684 25.9287 16.0519C26.1241 17.0713 26.3364 18.0885 26.4199 19.1239C26.4234 19.1676 26.3584 19.172 26.3458 19.1339C26.0228 18.1553 25.8237 17.1444 25.6103 16.1385C25.5694 15.9459 25.5321 15.748 25.495 15.5484C25.3978 15.2272 25.2787 14.9125 25.131 14.6196C25.1712 14.8552 25.202 15.0941 25.2262 15.3365C25.3261 16.3359 25.4687 17.3201 25.7096 18.2966C25.7241 18.3556 25.6332 18.3992 25.6061 18.3395C25.2449 17.5411 25.1255 16.6902 24.9281 15.8444C24.7873 15.2417 24.5977 14.6562 24.3555 14.09C24.2676 14.0105 24.1779 13.9323 24.0849 13.8578C24.6247 14.91 24.736 16.3932 24.854 17.3108C24.8605 17.3613 24.7799 17.3685 24.7665 17.3226C24.542 16.5589 24.311 15.7505 23.9688 15.0209C23.8426 14.8 23.7047 14.5869 23.5403 14.3947L23.3665 14.2098L23.5264 14.4593C24.0822 15.3999 24.2878 16.5962 24.3024 17.6535C24.3032 17.7143 24.2212 17.7178 24.2014 17.667C23.8523 16.7778 23.5699 15.7204 22.9716 14.9262C23.4122 15.7921 23.6334 16.7904 23.6411 17.6507C23.6415 17.6956 23.5767 17.7024 23.5637 17.6611C23.2851 16.7808 23.0297 16.0101 22.4869 15.2615C22.8925 16.1217 23.1115 17.0815 23.146 17.9243C23.1493 18.0075 23.0234 18.0213 23.0012 17.9435C22.7934 17.2175 22.5309 16.4882 22.1742 15.829C22.4049 16.5758 22.5714 17.3581 22.5953 18.1261C22.5968 18.1723 22.5264 18.1809 22.5145 18.1369C22.3407 17.4897 22.1481 16.8213 21.8915 16.1851C22.2058 17.2395 22.3808 18.4059 22.2032 19.4297C22.1958 19.4724 22.1367 19.4565 22.1325 19.4202C22.032 18.5587 21.8525 17.6086 21.5623 16.7225C21.7959 17.8147 21.888 18.961 21.7689 20.0486C21.7631 20.1011 21.6796 20.1226 21.6679 20.0621C21.6084 19.7581 21.5509 19.4546 21.4924 19.1515C21.4101 19.5858 21.3457 20.0212 21.2912 20.4621ZM22.9612 38.7899C23.8186 39.851 24.4436 40.9833 25.0655 42.1899C25.2743 42.595 25.6178 43.0542 25.6105 43.5338C25.5997 44.238 25.4945 44.9492 25.4159 45.6488C25.2683 46.9623 25.1654 48.2875 24.9025 49.5845C24.8861 49.714 24.8623 49.8445 24.8285 49.9755C25.3865 50.1772 26.608 49.5096 27.0107 49.238C27.9169 48.6273 28.0873 47.3102 28.0572 46.3167C28.028 45.356 28.0109 44.3999 28.042 43.4387C28.0715 42.5298 28.2202 41.5909 28.1756 40.6834C28.1205 39.5587 27.3515 38.9077 26.7296 38.0497C26.2252 37.354 25.6608 36.6978 25.1446 36.0085C25.1894 36.2706 25.1906 36.5268 25.1427 36.7351C25.1137 36.8613 25.0729 36.9785 25.0199 37.0849C24.911 37.427 24.5527 37.6836 24.1719 37.6716C23.5687 37.6525 23.0675 37.2816 22.7145 36.8194C22.6987 36.7988 22.7285 36.7735 22.7488 36.7855C22.9754 36.9191 23.2533 37.1023 23.5393 37.2398C23.4851 37.1976 23.4323 37.1554 23.3809 37.1158C22.9835 36.8094 22.4001 36.4265 22.1264 35.9482C22.1709 36.1015 22.2343 36.262 22.2906 36.4399C22.2928 36.4468 22.2848 36.4519 22.2789 36.4488C21.7711 36.1816 21.7046 35.3346 22.0374 34.9155C22.3993 34.4598 22.762 34.1657 23.2367 34.0717C23.1511 34.0434 23.0606 34.0293 22.9641 34.0368C22.3843 34.0812 21.8753 34.6478 21.5863 35.2633C21.2694 36.5367 22.1681 37.8085 22.9612 38.7899ZM26.2689 13.8848C26.2944 14.0377 26.3174 14.186 26.3358 14.3168C26.591 14.2686 26.8419 14.2077 27.0943 14.1506C27.2952 14.0521 27.4953 13.9527 27.6944 13.8569C27.8471 13.7835 28.0022 13.6995 28.1597 13.6169C27.6204 13.7366 27.1228 13.9744 26.5827 14.0929C26.5202 14.1066 26.4974 14.0207 26.5566 13.9996C26.8108 13.9088 27.0411 13.7704 27.27 13.6301C27.0985 13.6692 26.926 13.7051 26.7564 13.7513C26.6188 13.7887 26.4826 13.8345 26.3439 13.8681C26.3483 13.8671 26.3122 13.8752 26.2689 13.8848ZM26.7504 42.6046L26.7568 42.5854C27.0825 42.2937 27.3857 41.9766 27.651 41.6306C27.7481 41.504 27.9265 41.6392 27.8261 41.7637C27.5389 42.1199 27.1924 42.4084 26.7839 42.6199L26.7629 42.6198L26.7504 42.6046ZM25.7359 42.7579C26.4549 42.2275 26.9788 41.5569 27.617 40.95C27.718 40.8541 27.8814 40.9764 27.8109 41.0974C27.3719 41.8511 26.5343 42.4186 25.781 42.8338C25.7294 42.8621 25.691 42.7909 25.7359 42.7579ZM26.6506 47.682L26.6601 47.661C27.0085 47.2738 27.3295 46.9102 27.528 46.4254C27.5783 46.3024 27.7632 46.3463 27.7329 46.4811C27.6118 47.02 27.1347 47.4087 26.7078 47.722C26.6852 47.7387 26.6624 47.7246 26.6539 47.704L26.6506 47.682ZM26.9984 46.6959L27.0018 46.6768C27.1943 46.3899 27.3292 46.0787 27.4309 45.7503C27.4766 45.6022 27.6964 45.6883 27.6314 45.8335C27.4865 46.1573 27.2822 46.445 27.0449 46.7095C27.0345 46.721 27.0195 46.7192 27.0092 46.7113L26.9984 46.6959ZM26.2298 48.5581C26.7384 48.1785 27.0747 47.69 27.4844 47.2194C27.5593 47.1333 27.6736 47.2428 27.6324 47.332C27.3703 47.8996 26.8041 48.3204 26.2696 48.6252C26.2243 48.651 26.1905 48.5874 26.2298 48.5581ZM25.446 49.5599C26.2107 49.1504 26.77 48.5671 27.4159 48.0111C27.5066 47.9331 27.6562 48.0328 27.5882 48.1422C27.1291 48.8798 26.281 49.346 25.4791 49.637C25.433 49.6538 25.404 49.5824 25.446 49.5599ZM24.6731 37.8663L24.6844 37.8451C24.8611 37.7075 25.031 37.5381 25.1533 37.3509C25.2662 37.1782 25.3354 36.9697 25.461 36.8104C25.5243 36.73 25.6643 36.7984 25.6599 36.8917C25.6492 37.1221 25.4581 37.3756 25.2961 37.5336C25.1263 37.6991 24.9416 37.8171 24.721 37.9072C24.7039 37.9142 24.6875 37.9044 24.679 37.8899L24.6731 37.8663ZM17.7205 37.7718C17.9262 38.5586 18.2809 39.3139 18.5786 40.0706C19.1915 41.6284 19.9077 43.1115 20.6091 44.6292C21.1814 45.8676 21.3473 47.2248 21.0752 48.5573C20.8 49.9046 20.4135 51.3742 19.8279 52.6515C19.8155 52.6944 19.8043 52.738 19.7913 52.7807C19.7556 52.8975 19.7189 53.0237 19.6799 53.1549C21.1202 53.3465 22.6297 52.9067 23.4623 51.7073C23.8078 51.2098 24.3815 50.5652 24.5102 49.9631C24.6313 49.397 24.625 48.8143 24.659 48.2394C24.7287 47.0604 24.86 45.8916 24.8964 44.7096C24.9179 44.0125 25.125 43.3446 24.7553 42.6986C24.5294 42.3038 24.3478 41.8888 24.1316 41.4895C23.6041 40.5156 22.9024 39.6318 22.3407 38.6739C22.226 38.4783 22.1131 38.2813 21.9993 38.0849C21.9113 37.9469 21.8282 37.8077 21.7515 37.6677C21.7829 38.132 21.6555 38.5879 21.2374 38.8097C20.9766 38.948 20.7538 38.9986 20.5559 38.988C20.543 38.9992 20.5258 39.0067 20.5035 39.0066C20.0365 39.0042 19.3845 38.6725 19.2222 38.2142C19.2083 38.1751 19.2584 38.1389 19.2927 38.1607C19.4463 38.2583 19.5697 38.3909 19.7171 38.4968C19.5741 38.3346 19.4375 38.147 19.2961 37.9537C19.0629 37.635 18.8071 37.3159 18.6145 36.9882C18.6933 37.2716 18.8049 37.5551 18.9299 37.8264C18.9481 37.8659 18.9016 37.9068 18.8671 37.8742C18.3963 37.43 17.9678 36.5747 18.1359 35.9193C18.2678 35.4047 18.4249 35.0543 18.7429 34.7969C18.4392 34.9042 18.1753 35.0827 18.0348 35.3367C17.8471 35.6758 17.7102 36.0048 17.6266 36.3531C17.603 36.8343 17.6015 37.3166 17.7205 37.7718ZM22.3625 35.8068C22.6464 36.2416 23.0765 36.5404 23.4829 36.855C23.7402 37.0542 24.089 37.4332 24.4566 37.2822C24.8204 37.1329 24.9209 36.7177 24.8947 36.3712C24.8709 36.0564 24.8 35.7405 24.6672 35.4569C24.4547 35.2384 24.2353 35.0279 24.0404 34.7875C23.9679 34.6983 23.889 34.5975 23.8029 34.4991C23.0798 34.254 21.8453 35.0148 22.3625 35.8068ZM16.1989 7.54164C18.888 6.95644 21.957 6.67358 24.6873 7.113C24.8245 7.13509 24.7865 7.3437 24.6554 7.34526C23.2445 7.36175 21.8366 7.2534 20.4238 7.30596C19.0137 7.35854 17.6167 7.50691 16.2157 7.66441C16.1443 7.67249 16.1299 7.55668 16.1989 7.54164ZM22.0725 45.7068C22.9819 45.1893 23.7439 44.6417 24.3757 43.808C24.476 43.6756 24.6622 43.7854 24.5977 43.9359C24.1773 44.9155 23.0672 45.4571 22.1148 45.8056C22.0554 45.8274 22.0199 45.7368 22.0725 45.7068ZM22.7305 35.2218C22.8787 34.9806 23.0395 34.7386 23.3318 34.6706C23.5832 34.6122 23.8477 34.78 24.0036 34.9544C24.1181 35.0825 24.1722 35.2424 24.2653 35.3832C24.3527 35.5153 24.5142 35.6619 24.5504 35.8216C24.6251 36.1519 24.6178 36.4853 24.5315 36.8127C24.484 36.9926 24.2498 36.931 24.2284 36.7723C24.1975 36.5435 24.2142 36.1621 24.0125 35.9968C23.8691 35.8791 23.7725 35.7546 23.6993 35.5847C23.6305 35.4254 23.5628 35.1761 23.4223 35.0644C23.2698 34.9431 22.936 35.2313 22.8079 35.2981C22.7592 35.3234 22.7 35.2715 22.7305 35.2218ZM23.2788 46.0873C23.6649 45.9228 24.0064 45.7121 24.3363 45.4567C24.4547 45.3649 24.6237 45.52 24.506 45.6239C24.1732 45.9174 23.7552 46.1055 23.3158 46.1738C23.2668 46.1813 23.2248 46.1103 23.2788 46.0873ZM22.6047 45.984L22.6221 45.9636C23.198 45.6711 23.6913 45.2907 24.2328 44.9489C24.3556 44.8714 24.4885 45.0467 24.3865 45.1452C23.9262 45.59 23.2647 45.866 22.6513 46.0315C22.631 46.0369 22.614 46.0248 22.607 46.009L22.6047 45.984ZM22.9153 50.4909L22.931 50.4691C23.4517 50.0774 23.7843 49.5917 24.1223 49.0495C24.1994 48.9258 24.381 49.0338 24.3176 49.1621C24.0356 49.7335 23.5054 50.1983 22.9726 50.5391C22.9452 50.5565 22.921 50.5389 22.9149 50.5154L22.9153 50.4909ZM22.0523 51.5829C22.7607 51.0684 23.4336 50.5431 24.0484 49.9225C24.0981 49.8723 24.1795 49.9364 24.1453 49.9962C23.6984 50.7781 22.8644 51.2351 22.0904 51.6471C22.0466 51.6704 22.0139 51.6108 22.0523 51.5829ZM14.5724 8.19316C17.6507 7.77582 20.7746 7.4771 23.8851 7.63014C24.0598 7.63875 24.0594 7.8877 23.8851 7.89703C23.2657 7.93024 22.646 7.95842 22.0264 7.98418L18.3082 8.13037C17.0691 8.18319 15.8304 8.24699 14.5929 8.34247C14.5067 8.34911 14.4863 8.20477 14.5724 8.19316ZM21.17 52.7208L21.187 52.6982C22.1543 52.1162 22.9657 51.4167 23.8086 50.6796C23.8892 50.6092 24.0317 50.7019 23.9647 50.7984C23.3211 51.7266 22.2818 52.4021 21.2175 52.7692C21.1957 52.7767 21.1788 52.7645 21.172 52.7477L21.17 52.7208ZM20.789 39.2574C21.2749 39.2063 21.5578 38.9105 21.8858 38.5952C21.9799 38.5048 22.1226 38.6189 22.0635 38.7303C21.8296 39.1715 21.2568 39.3334 20.789 39.3318C20.7393 39.3316 20.7417 39.2624 20.789 39.2574ZM10.0363 12.3212C13.6533 11.1277 17.7289 10.352 21.5351 11.062C21.6568 11.0847 21.6228 11.2648 21.5069 11.2678C19.5741 11.3167 17.6484 11.254 15.7195 11.4443C13.8144 11.6321 11.9134 11.9228 10.0627 12.4158C10.0003 12.4324 9.97591 12.3412 10.0363 12.3212ZM18.5614 36.2975C18.7288 36.8325 19.0539 37.2022 19.3808 37.6471C19.7447 38.1424 20.5229 39.3874 21.2372 38.493C21.6014 38.0371 21.5342 37.4118 21.3383 36.8988C21.1852 36.6055 21.0387 36.3089 20.904 36.0068C20.7401 35.6389 20.5231 35.0293 20.1349 34.8184C19.5004 34.7154 18.6934 35.16 18.5426 35.7979C18.5388 35.814 18.5359 35.8304 18.5326 35.8467C18.5069 35.9894 18.5123 36.1407 18.5614 36.2975ZM18.9013 35.5966C19.1463 35.2853 19.4015 34.952 19.831 34.9731C20.1753 34.9901 20.4035 35.4104 20.5224 35.6775C20.8419 36.3952 21.6257 37.6669 20.8402 38.3029C20.7572 38.3702 20.6445 38.3264 20.6354 38.2194C20.5815 37.5891 20.2517 37.1487 20.0296 36.5741C19.9271 36.309 19.8318 36.0426 19.7364 35.7751C19.5833 35.3458 19.293 35.5046 18.9719 35.6868C18.9103 35.7218 18.8629 35.6455 18.9013 35.5966ZM1.7224 56.8027C1.82035 58.2832 1.98869 59.7459 1.96481 61.23C1.95997 61.5326 1.96617 61.8344 1.9768 62.136C2.1564 64.0367 2.08811 65.9504 2.47719 67.8323C2.65205 68.6777 2.8165 69.5273 2.86531 70.3907C2.90487 71.0904 2.96937 72.5749 3.73552 72.9027C4.65581 73.2964 6.25935 73.1408 6.78015 72.1432C7.09905 71.5321 7.07443 70.8522 7.08926 70.184C7.11093 69.2092 7.10578 68.236 7.0719 67.2615C7.04686 66.5424 7.14692 65.671 6.98626 64.9527C6.87684 65.002 6.75479 65.0353 6.62864 65.0606C6.63453 65.0809 6.63685 65.1024 6.6299 65.1259C6.38476 65.946 5.8889 66.7236 5.37967 67.4077C5.354 67.4422 5.29876 67.4127 5.32044 67.3737C5.64786 66.7853 5.89663 66.1757 6.15445 65.5634L6.35088 65.104L6.21537 65.1188C6.12573 65.6516 5.70804 66.1994 5.38462 66.6144C5.35705 66.6497 5.29971 66.6201 5.32244 66.5786C5.47152 66.3062 5.61324 66.026 5.72719 65.7372C5.80315 65.5446 5.85702 65.334 5.94508 65.1444C5.90142 65.1488 5.8587 65.1532 5.81788 65.1583C5.81199 65.159 5.8062 65.1593 5.80031 65.1601C5.67321 65.488 5.45279 65.7818 5.22238 66.0459C5.21154 66.0583 5.18734 66.0451 5.19376 66.0294C5.27022 65.8432 5.34157 65.6519 5.42008 65.4642L5.54475 65.1865L5.47236 65.194C5.41429 65.2932 5.3419 65.3834 5.28593 65.4846C5.26972 65.514 5.22522 65.4935 5.23269 65.4625C5.25257 65.38 5.27414 65.2924 5.30665 65.2111C4.79059 65.2543 4.27558 65.2669 3.75425 65.2528C3.69218 65.251 3.6926 65.161 3.75425 65.1581C4.76492 65.1115 5.99011 65.0671 6.95007 64.6904C6.9608 64.6573 6.98005 64.6284 7.00741 64.6066C6.99583 62.9056 7.28632 61.1993 7.18763 59.4931C7.10052 57.9852 7.04633 56.4817 7.01709 54.9734C6.78783 55.2466 6.80761 55.7317 6.76079 56.0629C6.75458 56.1065 6.74637 56.1553 6.73712 56.2074C6.85243 57.8547 6.9285 59.5209 6.89872 61.1594C6.88199 62.0778 6.8822 62.9985 6.83023 63.9157C6.80582 64.347 6.60897 64.6706 6.15329 64.6202C6.12846 64.6175 6.1131 64.5837 6.13951 64.5699C6.41559 64.4243 6.53069 64.0516 6.57267 63.6221C6.44926 63.8801 6.27629 64.1195 6.04314 64.3423C6.01662 64.3676 5.98075 64.3358 5.99474 64.3054C6.15866 63.9488 6.30985 63.5636 6.42327 63.1725C6.29396 63.3566 6.14056 63.5217 5.96686 63.6556C5.93982 63.6764 5.90173 63.6511 5.91846 63.6188C6.13215 63.2026 6.28818 62.8037 6.40728 62.3845C6.25525 62.6025 6.06934 62.8008 5.86017 62.9747C5.82093 63.0074 5.75275 62.9649 5.78484 62.9174C6.05019 62.5253 6.22368 62.1035 6.36456 61.6655C6.21411 61.8612 6.04009 62.0402 5.8546 62.2002C5.82409 62.2265 5.76906 62.1913 5.79536 62.1551C6.06776 61.7806 6.2443 61.3763 6.39507 60.9541C6.18949 61.2176 5.94645 61.4556 5.72003 61.6631C5.68121 61.6986 5.61398 61.6523 5.64459 61.6058C5.85334 61.2883 6.06344 60.9705 6.23231 60.6302C6.33994 60.4134 6.40538 60.2005 6.4603 59.9808C6.20317 60.4127 5.84734 60.8084 5.53854 61.13C5.50792 61.1618 5.45195 61.1201 5.47657 61.0829C5.80041 60.5943 6.19685 59.9853 6.36256 59.3772C6.10006 59.7819 5.75202 60.1385 5.38104 60.4207C5.32317 60.4647 5.26152 60.3737 5.30623 60.3252C5.77474 59.8169 6.01284 59.2702 6.19001 58.6681C5.97559 59.067 5.69941 59.4336 5.3762 59.7453C5.34516 59.7753 5.29634 59.7374 5.31696 59.7003C5.68668 59.0354 5.9435 58.3733 6.14119 57.6688C5.89826 58.1387 5.58199 58.5751 5.2349 58.9711C5.19934 59.0116 5.12832 58.9578 5.15946 58.9138C5.5195 58.4054 5.70646 57.848 5.87154 57.2789C5.67689 57.5131 5.46426 57.7274 5.24668 57.9137C5.22564 57.9318 5.18987 57.9084 5.20628 57.883C5.53528 57.3749 5.76853 56.8592 5.9819 56.3259C5.71088 56.6621 5.38756 56.9626 5.06856 57.2101C5.03573 57.2356 4.98113 57.2034 5.00669 57.1629C5.30739 56.6865 5.62113 56.2602 5.88006 55.7841C5.56779 56.1132 5.20428 56.4085 4.90001 56.7173C4.87476 56.7429 4.82657 56.7083 4.84888 56.6784C5.13221 56.2977 5.346 55.854 5.59935 55.4435C5.35842 55.6503 5.1259 55.8613 4.91064 56.1048C4.89485 56.1225 4.86708 56.0997 4.87834 56.0802C5.03563 55.8045 5.18292 55.4976 5.37325 55.2299C5.29003 55.2855 5.20523 55.3391 5.12674 55.4016C4.99744 55.5046 4.88107 55.6156 4.76618 55.7339C4.73935 55.7616 4.6918 55.7257 4.71242 55.693C4.83678 55.4954 4.95525 55.2552 5.11801 55.0689C4.96745 55.0739 4.83878 55.2028 4.73577 55.2964C4.69421 55.3341 4.63014 55.2865 4.65771 55.2369C4.702 55.1575 4.75134 55.0801 4.80963 55.0132C4.25169 55.0219 3.6988 55.001 3.18747 54.9785C3.12992 54.976 3.13013 54.8935 3.18747 54.8906C4.41256 54.8282 5.8122 54.8728 6.9932 54.4785C7.00898 54.1407 7.08147 53.8077 7.08937 53.4637C7.10073 52.9684 7.13587 52.4846 7.18911 51.9921C7.24666 51.4597 7.25676 50.9337 7.24129 50.3986C7.23035 50.0177 7.32367 49.4638 7.26423 49.0454C7.13492 48.7881 7.00435 48.5315 6.87452 48.2749C6.90893 48.5497 6.9266 48.827 6.93544 49.1061C6.95133 49.3206 6.95606 49.5541 6.94554 49.7952C6.94617 49.9647 6.94649 50.1343 6.94838 50.3038C6.95869 51.2572 6.99299 52.2211 6.88199 53.1694C6.87305 53.3718 6.85737 53.5737 6.83686 53.7735C6.80056 54.1257 6.61717 54.3671 6.2645 54.4362C6.22779 54.4434 6.20253 54.3939 6.2381 54.3745C6.46798 54.2489 6.51564 53.9553 6.51301 53.6587C6.34773 53.944 6.10143 54.1785 5.77937 54.31C5.74476 54.3241 5.71414 54.2708 5.74265 54.2479C6.15834 53.914 6.23473 53.4588 6.3148 52.9934C6.14782 53.2815 5.93666 53.5443 5.67384 53.7672C5.63839 53.7973 5.57968 53.7589 5.60651 53.716C5.96907 53.1368 6.13204 52.5497 6.22452 51.944C5.92993 52.3277 5.57189 52.6826 5.25247 53.0021C5.2168 53.0376 5.1643 52.9926 5.18513 52.9509C5.49751 52.3226 6.02704 51.709 6.19086 51.0141C5.92235 51.4376 5.58515 51.8125 5.19565 52.0984C5.16357 52.122 5.12074 52.0766 5.14168 52.0454C5.58294 51.3843 5.885 50.7534 6.08343 50.0787C5.80936 50.4673 5.48204 50.8424 5.16325 51.2354C5.12443 51.2833 5.0513 51.2221 5.07971 51.1719C5.38956 50.6259 5.85113 50.0082 6.02062 49.4025C6.06376 49.2483 6.09132 49.0922 6.11089 48.9351C5.83092 49.4527 5.45237 49.9296 5.07719 50.3581C5.0412 50.3991 4.98891 50.3468 5.00722 50.3048C5.29761 49.6387 5.57905 49.0035 5.78063 48.3344C5.49803 48.7546 5.21891 49.1784 4.90348 49.5748C4.88539 49.5975 4.84551 49.573 4.85477 49.5468C5.14884 48.715 5.74781 47.8711 5.83145 46.9816C5.58515 47.7146 5.1016 48.4228 4.7081 48.9909C4.6798 49.0317 4.61478 49.0067 4.62667 48.957C4.77249 48.3475 4.96293 47.7731 5.12359 47.1893C4.89296 47.623 4.6193 48.0261 4.36259 48.363C4.33818 48.3951 4.27253 48.3774 4.29052 48.3331C4.56649 47.6547 4.77954 46.9961 4.92389 46.3182C4.71578 46.8071 4.43234 47.2655 4.09209 47.668C4.04758 47.7208 3.97961 47.6535 4.00329 47.6004C4.27789 46.9837 4.45801 46.3791 4.58069 45.7626C4.3769 46.103 4.14848 46.4335 3.94542 46.7599C3.9208 46.7995 3.84989 46.7738 3.86704 46.7275C4.08651 46.1355 4.4033 45.5281 4.53871 44.9114C4.58634 44.6946 4.61189 44.4759 4.62987 44.2566L4.65297 43.9272L4.61173 43.8337C4.47043 44.4777 4.22265 45.1003 3.90523 45.6511C3.88513 45.6859 3.82769 45.6625 3.83947 45.6237C4.14532 44.6167 4.2236 43.6619 4.22308 42.6679C4.19993 42.5681 4.17689 42.4681 4.15742 42.3677C4.08672 43.0417 3.97583 43.7142 3.81538 44.3879C3.80623 44.4263 3.73952 44.4186 3.74468 44.3785C3.87121 43.3916 3.90614 42.3966 3.92329 41.4007L3.9449 39.9073C3.94132 39.691 3.939 39.4747 3.93785 39.2591C3.9308 37.9571 3.95489 36.6543 4.02707 35.3542C4.06778 34.6213 4.14827 33.9033 4.23812 33.1845C4.28747 32.1519 4.31303 31.121 4.23707 30.0955C4.23444 30.0596 4.29199 30.0431 4.30735 30.0767C4.50431 30.5097 4.61299 30.9772 4.67391 31.4568C5.00049 32.83 5.07456 34.2976 5.16525 35.6884C5.2712 37.3135 5.27204 38.9362 5.28098 40.5636C5.29003 42.2043 5.28414 43.8716 5.93835 45.4088C6.48745 46.6993 7.15018 47.9413 7.78103 49.1948C7.89887 48.9621 8.11129 48.7991 8.36043 48.7016C9.12922 48.2491 10.3123 48.7239 10.696 49.479C10.7109 49.5082 10.6707 49.5442 10.6476 49.5158C10.5213 49.3605 10.3524 49.221 10.1586 49.1053L10.0096 49.0246L10.1975 49.1934C10.4408 49.4306 10.6506 49.7028 10.8209 49.9406C10.9967 50.1861 11.2248 50.5115 11.3837 50.8579C11.3114 50.6055 11.2098 50.3636 11.112 50.1018C11.1052 50.0835 11.1317 50.0696 11.1444 50.0832C11.8346 50.8125 11.8213 51.7596 11.3153 52.4876C10.949 53.0724 10.3297 53.7023 10.305 54.3423C10.3036 54.3795 10.247 54.3894 10.2376 54.3513C10.1394 53.9503 10.2537 53.605 10.4399 53.2764C10.1282 53.6523 9.91546 54.0605 10.0679 54.5955C10.5432 55.0464 11.2138 55.2519 11.8687 54.8807C12.5812 54.4768 13.0399 53.8117 13.278 53.0438C13.7776 51.4325 13.7006 49.9313 13.3811 48.2961C13.1294 47.0074 13.1998 45.4732 12.4513 44.3446C12.4495 44.3418 12.4485 44.3391 12.4469 44.3364C12.3367 44.3341 12.225 44.3301 12.1132 44.3259C12.2092 44.394 12.2995 44.4763 12.3831 44.5749C12.3991 44.5937 12.3793 44.6217 12.3562 44.6094C12.0142 44.4275 11.641 44.3765 11.2823 44.2651C11.1128 44.2457 10.9446 44.2228 10.7813 44.1917C10.7366 44.1832 10.736 44.1107 10.7813 44.1027C11.3611 43.9991 11.9917 44.0487 12.5816 44.0497C12.5948 44.007 12.621 43.967 12.6729 43.8649C12.8557 43.5047 12.8735 43.079 12.9376 42.6876C13.0701 41.8772 13.2125 41.0613 13.2953 40.2445C13.4274 38.9407 13.3659 37.6025 13.5894 36.3103C13.5855 36.303 13.5814 36.296 13.5782 36.2877C13.4107 35.8442 12.9926 35.5122 12.6438 35.2065C12.3102 34.914 11.9877 34.552 11.6127 34.3133C11.5931 34.3007 11.6066 34.2754 11.6277 34.2783C11.9049 34.3153 12.0831 34.4914 12.3109 34.6366C12.4514 34.726 12.5955 34.8128 12.7353 34.9054C12.8994 34.8703 13.0713 34.8268 13.2156 34.7516C13.2448 34.7363 13.2675 34.7705 13.2489 34.794C13.1891 34.869 13.1276 34.9332 13.0605 34.9879L12.9554 35.0628L12.9853 35.0852C13.031 35.1221 13.0768 35.1598 13.1224 35.1979C13.4735 35.0038 13.844 34.8429 14.1971 34.6522C14.239 34.6295 14.2849 34.6847 14.2489 34.7186C13.9726 34.9792 13.6689 35.2145 13.3215 35.372C13.3863 35.4319 13.4485 35.4942 13.5079 35.5586C14.3024 35.1386 15.0081 34.682 15.7046 34.1037C15.7465 34.069 15.8033 34.123 15.7653 34.1635C15.1829 34.7819 14.5478 35.5177 13.7231 35.8295C13.7581 35.8821 13.7913 35.9359 13.8202 35.9922C13.8339 35.9883 13.8477 35.9863 13.8612 35.9865C14.6629 35.6612 15.4711 35.0083 16.0797 34.4343C16.7023 33.8472 17.334 33.254 17.8715 32.5885C18.9757 31.2212 19.8119 29.6458 20.299 27.9633C20.8512 26.0563 20.9785 24.0906 20.9541 22.1157C20.9419 21.133 20.8632 20.1451 20.893 19.1627C20.9016 18.8799 20.8864 18.5892 20.8729 18.2977C20.816 17.8075 20.7463 17.3268 20.6359 16.8655C20.3842 16.3809 20.1479 15.8978 19.8358 15.456C20.2788 16.3424 20.5109 17.3434 20.5284 18.3466C20.5289 18.3827 20.473 18.3905 20.4643 18.3551C20.0504 16.6436 19.2819 15.0701 17.8999 14.0337C18.3069 14.5127 18.6421 15.0659 18.9182 15.548C19.5605 16.6691 20.0478 17.9229 19.9876 19.229C19.9857 19.27 19.9244 19.2808 19.9135 19.2389C19.513 17.6902 18.8015 15.8777 17.6101 14.6321C17.9336 15.1557 18.1953 15.7119 18.4118 16.1325C19.0874 17.4455 19.4941 18.7929 19.4795 20.2687C19.4792 20.3004 19.4293 20.3088 19.4223 20.2764C19.1511 19.008 18.7817 17.6958 18.1763 16.5405C17.8528 15.9228 17.4854 15.3635 17.002 14.8524C16.9784 14.8277 16.9541 14.8011 16.9292 14.7737C17.3359 15.3675 17.6563 16.0375 17.9668 16.7082C18.608 18.0929 19.1959 19.6655 18.9355 21.2104C18.9315 21.2345 18.8895 21.2349 18.8859 21.2104C18.6642 19.6932 18.2905 18.3108 17.5438 16.9519C17.1838 16.2968 16.8047 15.6335 16.3621 15.0282C16.3295 14.9835 16.2949 14.9435 16.261 14.9017C17.4452 16.8042 18.1433 18.9739 18.2719 21.2206C18.2733 21.2457 18.2344 21.2501 18.2282 21.2264C17.6125 18.8967 16.7235 16.7787 15.3517 14.8493C15.4556 15.0366 15.5514 15.2209 15.6412 15.3874C16.4125 16.8156 16.9608 18.344 17.226 19.9418C17.2342 19.991 17.1675 20.01 17.1499 19.9625C16.6609 18.6405 16.0825 17.347 15.3308 16.1479C15.1138 15.8016 14.893 15.4036 14.6434 15.0387C14.5346 14.9319 14.4216 14.8298 14.3042 14.7327C14.4369 14.9059 14.5565 15.0832 14.6611 15.2543C15.3621 16.4016 15.8852 17.7645 16.1705 19.0731C16.1796 19.1148 16.1206 19.1433 16.0985 19.103C15.5967 18.1904 15.2284 17.2334 14.6451 16.36C14.2647 15.7905 13.7206 14.9973 13.0521 14.5588L12.8257 14.4278L13.0822 14.7007C14.0032 15.7385 14.6676 17.1222 15.0553 18.3663L15.1542 18.7018C15.1623 18.731 15.1329 18.7514 15.1089 18.7451L15.0884 18.7292L14.4604 17.6541C13.7574 16.4625 13.0064 15.3062 11.9037 14.4402C12.1471 14.7437 12.3542 15.0887 12.5314 15.3632C12.9809 16.0595 13.4508 16.8016 13.7021 17.5936C13.7215 17.6547 13.6352 17.6843 13.6019 17.6353C13.2244 17.0801 12.9185 16.4885 12.5047 15.9551C12.2578 15.6367 11.9981 15.3335 11.7232 15.0386C11.5458 14.8482 11.3429 14.5609 11.1092 14.3912L10.9664 14.3069L11.1885 14.5695C11.7636 15.2908 12.179 16.1385 12.4382 17.0191C12.441 17.0283 12.4277 17.0371 12.4211 17.0289C12.0637 16.5907 11.8132 16.0877 11.4931 15.6245C11.2337 15.2491 10.9276 14.9419 10.6035 14.6369L10.3576 14.4075C10.343 14.4071 10.3315 14.407 10.3198 14.4067C10.719 14.8548 11.0579 15.3809 11.2825 15.9231C11.297 15.9582 11.2437 15.9856 11.2195 15.9593C10.8036 15.5063 10.387 15.0594 9.96207 14.6162C10.0287 14.7335 10.0844 14.8588 10.1362 14.9687C10.2308 15.1696 10.3096 15.3727 10.354 15.5903C10.3627 15.6327 10.3099 15.6534 10.2851 15.619C10.1364 15.4122 9.99753 15.1969 9.8314 15.0028C9.74786 14.9052 9.64903 14.8183 9.56051 14.7242L9.43864 14.5755L9.42034 14.5827C9.58342 14.8104 9.71356 15.0727 9.79763 15.3286C9.81635 15.3857 9.73545 15.4331 9.69452 15.3878C9.49651 15.169 9.29229 14.9466 9.10196 14.719C9.07377 14.7316 9.04568 14.7444 9.01769 14.7574C9.10354 14.8819 9.17435 15.0185 9.24537 15.1499C9.26473 15.1859 9.22117 15.2137 9.1915 15.1909C9.05883 15.0892 8.91585 14.9861 8.79917 14.8645C8.75487 14.8874 8.71131 14.9113 8.66797 14.9355C8.7171 15.0069 8.7696 15.0758 8.82042 15.1463C8.85787 15.1983 8.78402 15.2701 8.7313 15.2341C8.64661 15.1764 8.57475 15.1051 8.50636 15.0299C8.45954 15.0588 8.41262 15.0874 8.36748 15.1182C7.8874 15.4447 7.69623 15.8123 7.60101 16.2853C7.65667 17.5199 7.19174 18.8499 6.75911 19.964C6.21947 21.3532 5.52634 22.677 4.98344 24.0642C4.42498 25.4912 3.68102 26.9952 3.44177 28.5099C3.31436 29.3167 3.04176 30.0674 2.93497 30.8787C2.90551 31.103 2.84753 31.3122 2.78272 31.5177C2.7298 32.0968 2.57998 32.6616 2.54116 33.2442C2.49655 33.9145 2.50033 34.586 2.46604 35.2566C2.39249 36.6888 2.29801 38.1198 2.14072 39.5457C1.97869 41.0155 1.78037 42.4853 1.70493 43.9629C1.63402 45.3517 1.66653 46.7452 1.66653 48.1354C1.66674 51.0166 1.53207 53.9264 1.7224 56.8027ZM19.3256 29.0222C19.8055 27.6736 20.03 26.2638 20.1206 24.8402C20.2068 23.4861 20.1295 22.088 20.3083 20.7447C20.3199 20.6581 20.4636 20.6165 20.4801 20.7218C20.9048 23.4375 20.5281 26.5443 19.407 29.056C19.3867 29.1016 19.3089 29.0689 19.3256 29.0222ZM12.1439 55.1582C12.4517 55.3089 12.734 55.577 13.0334 55.7017C14.0466 56.1236 15.155 55.7497 16.1748 55.5554C16.9757 55.4027 18.0379 55.2836 18.5992 54.6247C19.1306 54.0009 19.4213 52.9958 19.5762 52.2037C19.8973 50.5625 20.5808 48.8254 20.5563 47.1432C20.5331 45.5539 19.6375 44.0924 19.0098 42.6466L18.8703 42.3131L18.7345 41.9759C18.6477 42.4014 18.4286 42.7862 18.0594 42.9577C17.6734 43.137 17.2775 43.1514 16.9204 43.0444C15.9991 42.8975 15.2796 42.046 15.0422 41.161C15.0338 41.1295 15.0784 41.0982 15.1015 41.1269C15.3392 41.4233 15.5596 41.7451 15.8032 42.0299C15.4236 41.195 14.7063 40.5293 14.7948 39.7397C14.684 39.9456 14.6052 40.1617 14.5869 40.374C14.5849 40.3968 14.5498 40.4047 14.5442 40.3797C14.3835 39.6759 14.9381 38.9456 15.4629 38.5233C15.7657 38.2796 16.0944 38.1279 16.4408 38.1085C15.7272 37.9829 14.9329 38.2643 14.604 38.9151C14.1711 39.772 14.0896 40.7263 14.1838 41.6684C14.218 42.0108 14.2566 42.3524 14.2973 42.6935L14.5484 44.7381C14.6285 45.42 14.6989 46.1035 14.7415 46.7917C14.7873 47.529 14.9241 48.3155 14.7677 49.0481C14.7393 49.1808 14.7022 49.3096 14.6613 49.4368C14.5757 50.0581 14.4504 50.6733 14.4133 51.3029C14.3798 51.8693 14.3665 52.4882 14.1664 53.0277C13.851 53.8779 13.2045 54.4154 12.4887 54.9148C12.3786 55.0044 12.2644 55.0879 12.1439 55.1582ZM17.8537 48.8009C18.6338 48.6179 19.3189 48.2865 20.0009 47.8802C20.1672 47.7812 20.2995 48.0229 20.1497 48.1312C19.487 48.6098 18.6775 48.8381 17.8646 48.8805C17.818 48.883 17.8087 48.8115 17.8537 48.8009ZM16.6591 48.5075C17.8855 48.2383 18.9046 47.6791 20.019 47.1401C20.1405 47.0814 20.2822 47.2353 20.1706 47.3338C19.2335 48.1609 17.8984 48.4989 16.6687 48.5771C16.6281 48.5797 16.6197 48.5161 16.6591 48.5075ZM7.84263 13.6339C11.7098 12.0051 15.8835 11.6151 20.0494 11.6681C20.2451 11.6705 20.2425 11.955 20.0494 11.9653C15.951 12.1866 11.8294 12.5767 7.8744 13.708C7.83053 13.7205 7.79918 13.6522 7.84263 13.6339ZM18.2436 49.1907C18.7487 49.0795 19.2082 48.8874 19.6762 48.6754C19.8241 48.6084 19.953 48.8128 19.8059 48.8941C19.3337 49.1556 18.7922 49.2632 18.2554 49.277C18.2054 49.2782 18.1942 49.2015 18.2436 49.1907ZM18.0289 30.5388L18.034 30.5114C18.6191 29.4262 18.8603 28.242 19.0386 27.0371C19.2368 25.6967 19.4272 24.3492 19.5882 23.0041C19.5998 22.907 19.7443 22.9013 19.7459 23.0041C19.784 25.5214 19.5262 28.3836 18.1081 30.554C18.0901 30.5815 18.0577 30.578 18.0402 30.5604L18.0289 30.5388ZM18.5462 49.5737C18.8814 49.5513 19.1999 49.4588 19.4878 49.2872C19.6201 49.2083 19.7435 49.425 19.6072 49.4884C19.2684 49.646 18.9196 49.7161 18.5462 49.675C18.4811 49.6678 18.479 49.5781 18.5462 49.5737ZM12.6793 10.8707C14.7403 10.2878 16.8803 10.0479 19.021 10.2301C19.1967 10.2451 19.2025 10.504 19.021 10.5038C16.9007 10.5018 14.7973 10.6241 12.7002 10.9457C12.6511 10.9531 12.6292 10.8848 12.6793 10.8707ZM17.0505 30.9894L17.0538 30.9641C17.9897 29.2982 18.5642 27.4135 18.8029 25.5261C18.8162 25.4214 18.976 25.4143 18.9743 25.5261C18.9441 27.5447 18.2928 29.354 17.1101 30.9966C17.0981 31.0131 17.0788 31.0142 17.0652 31.0066L17.0505 30.9894ZM17.7256 53.4317C17.9316 53.3151 18.1118 53.1797 18.3034 53.0598C18.4524 52.9667 18.6062 52.8822 18.7133 52.7393C18.7917 52.6349 18.9711 52.7383 18.891 52.8417C18.6142 53.1988 18.1337 53.2581 17.7438 53.4422L17.7314 53.4414L17.7256 53.4317ZM16.1403 54.7206L16.1582 54.699C17.0329 54.2604 17.8628 53.7425 18.7349 53.3016C18.8667 53.235 18.966 53.4108 18.849 53.4942C18.0517 54.0619 17.1112 54.4468 16.1886 54.7701C16.1675 54.7775 16.15 54.7647 16.1427 54.7476L16.1403 54.7206ZM17.1809 43.3866C17.6838 43.3284 18.1161 43.2494 18.5515 42.9762C18.6935 42.8871 18.8262 43.1116 18.683 43.1979C18.2424 43.4633 17.6792 43.6302 17.1636 43.5126C17.0863 43.495 17.113 43.3943 17.1809 43.3866ZM15.0295 40.1142C15.2664 40.7458 15.7519 41.2982 16.0518 41.9094C16.2661 42.346 16.5326 42.6931 17.0506 42.7792C17.4163 42.84 17.8635 42.8649 18.1208 42.5371C18.4212 42.1544 18.5055 41.7315 18.4644 41.2985C18.3316 40.9589 18.204 40.6174 18.0897 40.2747C17.9244 39.7789 17.7895 39.1365 17.4526 38.6937C17.0561 38.5011 16.6023 38.4223 16.1721 38.5886C15.6747 38.7808 14.7804 39.4503 15.0295 40.1142ZM14.7471 55.3365C15.9779 55.1052 17.0985 54.8172 18.2137 54.2391C18.3546 54.1661 18.4546 54.3527 18.3348 54.4433C17.3303 55.2036 15.975 55.3049 14.7563 55.4029C14.7177 55.406 14.7092 55.3437 14.7471 55.3365ZM16.0209 39.1289C15.9667 39.1428 15.9453 39.0754 15.9852 39.0456C16.3573 38.767 16.6236 38.6256 17.051 38.8626C17.5226 39.1241 17.234 39.6412 17.5128 39.9775C17.8266 40.356 17.9883 40.837 18.148 41.296C18.3339 41.8306 17.8821 42.1943 17.5359 42.5008C17.4371 42.5883 17.3043 42.4796 17.3582 42.3657C17.5741 41.9093 17.309 41.598 17.1786 41.182C17.0988 40.9272 17.0574 40.6678 16.8914 40.45C16.7301 40.2385 16.6707 40.0838 16.6426 39.8263C16.6099 39.5276 17.3017 38.8016 16.0209 39.1289ZM16.0604 31.6453L16.0638 31.6259C16.9897 30.1883 17.3837 28.6178 17.983 27.0496C18.0107 26.9773 18.1319 26.9818 18.1278 27.0689C18.0493 28.7436 17.0863 30.3377 16.1082 31.6515C16.0986 31.6643 16.083 31.6649 16.072 31.6588L16.0604 31.6453ZM16.5893 21.7995C16.5789 21.6851 16.7466 21.6775 16.7812 21.7739C17.5367 23.8782 17.3329 26.3682 16.7118 28.4758C16.6954 28.5314 16.617 28.5072 16.6259 28.4525C16.8098 27.3095 16.9021 26.1558 16.8797 24.9985C16.8588 23.9209 16.6861 22.8698 16.5893 21.7995ZM15.0818 19.8835C15.7522 20.6382 16.0371 21.7528 16.2225 22.7179C16.4392 23.8463 16.5367 24.9801 16.4626 26.1278C16.4598 26.1694 16.4009 26.1689 16.3974 26.1278C16.3013 25.0092 16.1531 23.901 15.898 22.806C15.6772 21.8582 15.4634 20.8164 14.9768 19.9633C14.9405 19.8997 15.0304 19.8258 15.0818 19.8835ZM7.77497 4.15127C10.2954 3.43282 13.0893 2.83548 15.7286 2.88867C15.8317 2.89075 15.8612 3.05094 15.7536 3.07116C14.398 3.32529 13.0082 3.4181 11.6445 3.6319C10.3624 3.83284 9.07918 4.02518 7.79864 4.23598C7.74303 4.2451 7.71879 4.16734 7.77497 4.15127ZM11.9173 36.5557C12.5978 37.1485 13.1677 37.9693 13.2089 38.8908C13.2141 39.0058 13.0479 39.018 13.0137 38.9168C12.7295 38.0754 12.4614 37.2926 11.8712 36.6011C11.8442 36.5696 11.8855 36.528 11.9173 36.5557ZM11.4403 35.4462C12.2511 36.0202 13.017 36.6808 13.1846 37.6973C13.2036 37.8124 13.0461 37.8583 13.0061 37.7458C12.6939 36.8653 12.0773 36.1347 11.3885 35.5125C11.3529 35.4805 11.4006 35.418 11.4403 35.4462ZM11.0169 34.4263C11.8039 34.9517 12.873 35.5873 13.168 36.5385C13.2 36.6418 13.0591 36.6853 13.002 36.6075C12.4164 35.8093 11.6545 35.1995 10.967 34.49C10.9357 34.4576 10.977 34.3997 11.0169 34.4263ZM7.5242 4.78879C9.24126 4.25356 11.1846 3.92331 12.9886 3.98967C13.157 3.99589 13.1511 4.22711 12.9886 4.24308C11.1598 4.42267 9.36951 4.59282 7.55608 4.90284C7.48085 4.9157 7.44939 4.81212 7.5242 4.78879ZM11.2827 46.5968C12.0278 46.6988 12.5388 47.1913 12.9453 47.7839C12.9899 47.8489 12.8869 47.9275 12.8349 47.8677C12.4002 47.3693 11.8726 46.9249 11.2589 46.6523C11.2241 46.6369 11.2515 46.5925 11.2827 46.5968ZM12.2353 38.1658C12.6157 38.5903 12.8872 39.0374 12.9422 39.611C12.9503 39.6953 12.8206 39.7059 12.7974 39.6303C12.6462 39.1396 12.478 38.6324 12.1842 38.2046C12.1635 38.1745 12.2109 38.1385 12.2353 38.1658ZM10.2612 45.8926C11.1918 45.9607 12.2432 46.2535 12.8822 46.9678C12.9602 47.0548 12.8595 47.2031 12.7513 47.1349C11.938 46.622 11.2267 46.1316 10.2543 45.9424C10.2259 45.9369 10.2322 45.8906 10.2612 45.8926ZM9.77454 45.2893C10.8885 45.3389 12.0336 45.5455 12.8513 46.3521C12.9371 46.4368 12.8216 46.5953 12.7183 46.5219C11.7885 45.8609 10.8893 45.548 9.76318 45.3722C9.7151 45.3647 9.72688 45.2871 9.77454 45.2893ZM10.1866 44.8763C11.0377 44.9548 11.9613 45.0658 12.6652 45.5852C12.7842 45.673 12.6818 45.8629 12.5458 45.7865C11.793 45.3642 11.0107 45.1597 10.1747 44.9626C10.1265 44.9512 10.136 44.8717 10.1866 44.8763ZM10.4067 44.5189C11.1124 44.4927 11.917 44.5809 12.5103 44.99C12.6068 45.0565 12.5494 45.2391 12.4244 45.1907C11.7448 44.9272 11.1464 44.6434 10.4067 44.5729C10.3719 44.5697 10.3708 44.5203 10.4067 44.5189ZM7.95684 49.546C7.96441 49.5611 7.97209 49.5762 7.97956 49.5913C8.32066 50.2799 8.63956 50.9792 8.86829 51.713C9.11186 52.4948 9.27104 53.3984 9.68684 54.1136C9.73355 54.194 9.78637 54.2707 9.84287 54.3445C9.69589 53.5808 10.3983 52.828 10.9247 52.3029C11.6912 51.5385 10.9294 50.4752 10.3813 49.8256C10.1457 49.5465 9.88243 49.2343 9.55196 49.06C9.05041 48.7955 8.06678 48.7324 7.95684 49.546ZM8.5604 49.5029C8.43425 49.4137 8.50684 49.2099 8.66877 49.2497C9.11539 49.3597 9.5093 49.4816 9.87334 49.7801C10.2258 50.0691 10.3573 50.4591 10.6341 50.7928C10.7911 50.9821 11.1356 51.4174 10.9306 51.6792C10.6186 52.0778 10.232 52.3346 9.99928 52.8102C9.97392 52.8619 9.89575 52.8246 9.90837 52.7725C9.98286 52.4667 10.0879 52.2105 10.2312 51.9301C10.4423 51.5172 10.1209 51.3848 9.87292 51.1138C9.67785 50.9006 9.64271 50.5679 9.47038 50.3305C9.23481 50.0061 8.88855 49.735 8.5604 49.5029ZM7.11625 23.6036C7.83527 21.4701 8.5203 19.2248 10.38 17.7639C10.5245 17.6505 10.7151 17.827 10.5861 17.967C9.07782 19.603 7.93827 21.5401 7.1758 23.6198C7.16244 23.6561 7.10362 23.6411 7.11625 23.6036ZM7.37888 5.53644L7.39102 5.5237C8.03923 5.31187 8.70901 5.17272 9.3729 5.01772C9.5183 4.98381 9.57806 5.21005 9.43392 5.23597C8.7573 5.35791 8.08163 5.49685 7.39607 5.5602L7.38064 5.55307L7.37888 5.53644ZM6.01822 25.4869C6.22223 23.2927 6.98575 21.2121 8.22568 19.384C8.29501 19.2818 8.44431 19.3697 8.39139 19.4795L7.91937 20.4524C7.13348 22.0734 6.3804 23.7023 6.09229 25.4968C6.08566 25.538 6.01433 25.5285 6.01822 25.4869ZM5.75233 43.7211L5.75862 43.6895C5.94464 43.3384 6.2022 43.0346 6.52993 42.802C6.87776 42.555 7.23464 42.4982 7.65118 42.4463C7.7303 42.4364 7.73545 42.5525 7.66896 42.5757C7.32986 42.6938 7.01001 42.9085 6.69995 43.0887C6.384 43.2723 6.10372 43.4997 5.84479 43.755C5.81765 43.7817 5.78183 43.7721 5.76365 43.7485L5.75233 43.7211ZM5.58874 43.2057L5.59092 43.1746C5.81681 42.6163 6.33203 41.974 6.98455 41.9041C7.11165 41.8905 7.12228 42.0562 7.04263 42.115C6.81085 42.286 6.53856 42.4009 6.30604 42.5763C6.069 42.7552 5.86005 42.9749 5.68803 43.2149C5.66865 43.242 5.62896 43.2432 5.60548 43.2271L5.58874 43.2057ZM5.53608 69.1646L5.53662 69.1521C6.01259 68.4508 6.23785 67.6883 6.5356 66.909C6.57401 66.8085 6.75634 66.8129 6.74098 66.9363C6.63587 67.7847 6.12265 68.5435 5.55818 69.1685L5.54609 69.1722L5.53608 69.1646ZM5.74543 69.7416L5.75207 69.7209C6.16387 69.216 6.34904 68.6602 6.53727 68.0511C6.56704 67.9549 6.73538 67.9682 6.72244 68.0758C6.6449 68.7247 6.25204 69.3077 5.79089 69.759C5.77806 69.7716 5.76296 69.7687 5.75377 69.7594L5.74543 69.7416ZM5.72764 70.3597L5.73588 70.3421C6.17408 69.9665 6.26762 69.4188 6.53696 68.9408C6.59325 68.8409 6.7436 68.9102 6.71866 69.0163C6.58915 69.5669 6.23416 70.0621 5.76912 70.3846C5.75639 70.3934 5.74224 70.3878 5.73419 70.3775L5.72764 70.3597ZM5.3167 68.5894L5.31972 68.5698C5.79844 67.7895 6.08472 66.9322 6.43118 66.0921C6.49589 65.9353 6.74598 65.992 6.69568 66.1639C6.43286 67.0626 5.90459 67.8381 5.36412 68.5954C5.35476 68.6085 5.33932 68.6092 5.32839 68.6031L5.3167 68.5894ZM5.80525 70.7429L5.81489 70.7219C5.9524 70.574 6.08339 70.4244 6.20091 70.2602C6.29929 70.1227 6.36525 69.9739 6.44795 69.8279C6.50456 69.728 6.64017 69.8005 6.62334 69.9007C6.55811 70.2913 6.1603 70.5615 5.86276 70.783C5.84035 70.7996 5.81726 70.7855 5.80858 70.7648L5.80525 70.7429ZM4.81409 27.2305C5.01294 25.577 5.36835 23.9366 6.09715 22.4243C6.14997 22.3145 6.33093 22.3923 6.29453 22.5063C5.79204 24.0768 5.24767 25.6288 4.88816 27.2403C4.87911 27.2807 4.80904 27.2723 4.81409 27.2305ZM5.78245 27.3481C5.81276 27.2388 6.00035 27.2573 5.98793 27.3754C5.80392 29.1222 5.65357 30.783 5.85673 32.539C5.86157 32.5808 5.79129 32.5895 5.78266 32.5489C5.42494 30.868 5.31984 29.0204 5.78245 27.3481ZM4.96476 28.698C4.97002 28.6226 5.08396 28.6211 5.0847 28.698C5.09702 29.9106 5.20097 31.1188 5.31953 32.3259L5.4987 34.136L5.57846 35.0412C5.58172 35.0812 5.51575 35.0898 5.50776 35.0507C5.07944 32.9487 4.81557 30.8436 4.96476 28.698Z" fill="#222222"/>
<path d="M22.7221 35.2513L22.7305 35.2218M22.7305 35.2218C22.8787 34.9806 23.0395 34.7386 23.3318 34.6706C23.5832 34.6122 23.8477 34.78 24.0036 34.9544C24.1181 35.0825 24.1722 35.2424 24.2653 35.3832C24.3527 35.5153 24.5142 35.6619 24.5504 35.8216C24.6251 36.1519 24.6178 36.4853 24.5315 36.8127C24.484 36.9926 24.2498 36.931 24.2284 36.7723C24.1975 36.5435 24.2142 36.1621 24.0125 35.9968C23.8691 35.8791 23.7725 35.7546 23.6993 35.5847C23.6305 35.4254 23.5628 35.1761 23.4223 35.0644C23.2698 34.9431 22.936 35.2313 22.8079 35.2982C22.7592 35.3234 22.7 35.2715 22.7305 35.2218ZM18.888 35.6281L18.9013 35.5966M18.9013 35.5966C19.1463 35.2853 19.4015 34.952 19.831 34.9731C20.1753 34.9901 20.4035 35.4104 20.5224 35.6775C20.8419 36.3952 21.6257 37.6669 20.8402 38.3029C20.7572 38.3702 20.6445 38.3264 20.6354 38.2194C20.5815 37.5891 20.2517 37.1487 20.0296 36.5741C19.9271 36.309 19.8318 36.0426 19.7364 35.7751C19.5833 35.3458 19.293 35.5046 18.9719 35.6868C18.9103 35.7218 18.8629 35.6455 18.9013 35.5966ZM1.01685 52.9087C1.01685 52.0553 1.02621 51.1882 1.03526 50.3497C1.04108 49.8044 1.04709 49.2468 1.05057 48.6899L1.05356 47.8568V47.822C1.05356 47.5277 1.05199 47.2334 1.05041 46.9389C1.04894 46.6433 1.04736 46.3475 1.04736 46.0518C1.04736 45.2612 1.05735 44.3265 1.13163 43.387C1.20402 42.4737 1.3106 41.5514 1.41381 40.6594C1.46852 40.1865 1.52323 39.7134 1.57321 39.2397C1.74134 37.6487 1.84265 36.2625 1.88285 35.0022C1.88853 34.8229 1.89179 34.6431 1.89505 34.4631C1.9041 33.9708 1.91336 33.4618 1.97364 32.9595C1.99581 32.7744 2.02845 32.5919 2.06402 32.4131L2.11863 32.1475L2.13756 32.0569C2.15019 31.6984 2.21553 31.341 2.27865 30.9953C2.31916 30.7739 2.35735 30.5651 2.38187 30.3594C2.42753 29.9772 2.53179 29.6101 2.63269 29.255C2.71791 28.9551 2.7984 28.6717 2.84627 28.3805C3.03323 27.2423 3.49354 26.1331 3.93858 25.0604C4.06557 24.7544 4.19698 24.4379 4.31671 24.132C4.58869 23.4377 4.90138 22.7516 5.20376 22.088C5.50982 21.4162 5.8263 20.7216 6.0968 20.0257C6.35835 19.3527 6.62328 18.6258 6.79109 17.8686C6.82528 17.494 6.67083 17.0484 6.52343 16.6131C6.42453 16.3207 6.32205 16.0185 6.27418 15.7344C6.16087 15.0644 6.09132 14.5193 6.05513 14.0191C5.9717 12.8633 5.96034 11.7172 5.96034 10.7483L5.96102 10.338L5.96265 9.92774L5.96286 9.84074C5.96286 9.49619 5.95413 9.14707 5.94476 8.77754C5.93551 8.40406 5.92572 8.01772 5.92572 7.63263C5.92572 6.30254 6.03398 4.7715 6.83623 3.50009C6.88704 3.41953 6.95764 3.35981 7.04023 3.326C7.25226 3.16774 7.5438 3.06959 7.78656 3.00073L7.95747 2.95408L7.98567 2.94672C8.47017 2.817 8.96456 2.69497 9.44264 2.57697C9.71903 2.50885 9.99532 2.44073 10.271 2.37094C11.7291 2.00099 13.2953 1.64566 14.8682 1.55047C15.7856 1.495 16.7154 1.4866 17.6148 1.47851C18.3703 1.47177 19.1516 1.46473 19.9167 1.42958C20.3588 1.40925 20.8125 1.37887 21.2513 1.34963C21.9601 1.30215 22.6932 1.2532 23.4175 1.24283C24.1158 1.20561 24.8395 1.20841 25.5391 1.2111C25.8658 1.21235 26.1913 1.2136 26.5144 1.2108C27.715 1.20053 28.8928 1.36384 30.1976 1.56219C30.3718 1.58863 30.5076 1.70673 30.5598 1.87149C30.7621 2.21137 30.788 2.56287 30.788 2.83194C30.788 2.98042 30.7787 3.12858 30.7696 3.27157C30.7567 3.4749 30.7441 3.66288 30.7587 3.84724C30.8009 4.38392 30.8932 4.92921 30.9824 5.45656C31.0695 5.97105 31.1594 6.50328 31.2058 7.03799C31.2414 7.44807 31.2588 7.87007 31.2588 8.32816C31.2588 9.48178 31.145 10.653 31.0351 11.7856C30.9776 12.3769 30.9183 12.9885 30.877 13.5826C30.8742 13.6224 30.8665 13.6571 30.8578 13.686C30.8492 13.7551 30.8222 13.8203 30.7785 13.8766C30.4457 14.3054 29.8935 14.5055 29.4065 14.6819C29.2749 14.7295 29.1482 14.7754 29.0308 14.8236L28.8622 14.8981L28.6667 14.9925C28.0657 15.2833 27.4466 15.5828 26.8043 15.7811C26.8407 16.0765 26.8748 16.3303 26.9098 16.5663C27.0483 17.4974 27.3299 18.3297 27.645 19.1831L27.8049 19.6121L27.9083 19.8888C28.7975 22.2767 29.3138 24.4708 29.4865 26.5965C29.5572 27.4659 29.5915 28.4107 29.5915 29.4844C29.5915 30.6135 29.5539 31.759 29.5175 32.8669C29.5028 33.3127 29.4882 33.7574 29.4759 34.2006C29.4656 34.576 29.4609 34.9555 29.4562 35.3373C29.4339 37.1456 29.4109 39.0153 28.7852 40.7482C28.7901 40.8506 28.7927 40.9578 28.7927 41.0677C28.7927 41.5129 28.7529 41.9633 28.7145 42.3988C28.6822 42.7644 28.6518 43.1095 28.6438 43.4455C28.6334 43.913 28.6553 44.407 28.677 44.8862C28.6953 45.2885 28.7141 45.7046 28.7141 46.1137C28.7141 46.6071 28.6857 47.0311 28.6274 47.4101C28.4395 48.6294 27.913 49.463 27.0209 49.9509L26.8241 50.0502L26.6881 50.1143C26.2096 50.3413 25.5231 50.6668 24.9326 50.5823C24.5883 51.4303 23.9502 52.3095 23.1856 52.9786C22.3658 53.6962 20.8985 53.8813 19.8117 53.7083C19.6412 54.209 19.4107 54.727 19.0376 55.0705C18.3436 55.7087 17.4745 55.9492 16.795 56.0873C16.5692 56.1332 16.3432 56.1875 16.1039 56.245C15.4933 56.3917 14.865 56.5426 14.2286 56.5511L13.9098 56.5428L13.8789 56.5407C13.4987 56.5151 13.0677 56.4862 12.6943 56.2539C12.4424 56.0971 12.2424 55.9154 12.049 55.7396C11.9953 55.6907 11.9431 55.6434 11.8907 55.5971C11.4777 55.7502 11.0617 55.7742 10.6522 55.6684C9.21654 55.2972 8.80358 53.8781 8.47175 52.7379C8.43892 52.6254 8.40662 52.5143 8.3739 52.4059C8.23839 51.957 8.07573 51.52 7.90665 51.111C7.90434 51.3522 7.89319 51.5691 7.87256 51.7716C7.84542 52.0385 7.82732 52.3097 7.80986 52.572C7.76946 53.1784 7.72779 53.8044 7.5705 54.4214C7.59196 54.4866 7.59807 54.5577 7.5867 54.626C7.67466 55.0553 7.68729 55.4915 7.68729 55.9005C7.68729 56.0099 7.68634 56.1193 7.68529 56.2284C7.6835 56.4335 7.6815 56.6373 7.68665 56.8377C7.69875 57.3189 7.73042 57.8092 7.76114 58.2835C7.7865 58.6755 7.8127 59.0808 7.82795 59.4822C7.83669 59.7107 7.8409 59.9433 7.8409 60.1933C7.8409 60.6753 7.82448 61.1609 7.80297 61.6405L7.7683 62.3543L7.76199 62.4808C7.75199 62.6798 7.74452 62.8782 7.73716 63.0764C7.71696 63.6176 7.69612 64.1766 7.62069 64.732C7.69352 64.9513 7.71279 65.1599 7.71872 65.372L7.72169 65.5859L7.72274 65.702C7.72706 66.0468 7.74231 66.3994 7.75704 66.7406C7.7684 67.0035 7.77977 67.2665 7.78661 67.5294C7.80091 68.0812 7.81733 68.7066 7.81733 69.3266C7.81733 69.9161 7.80239 70.4357 7.77177 70.9156C7.72758 71.6055 7.59565 72.3903 6.95133 72.9812C6.32595 73.5545 5.18892 73.8969 4.36259 73.7604C3.30941 73.5866 2.79272 73.1458 2.51938 72.1885C2.32589 71.5106 2.2635 70.8271 2.20311 70.1661C2.15945 69.6879 2.11421 69.1935 2.01931 68.7124C1.75449 67.3703 1.40245 65.3523 1.40245 63.3306C1.40245 62.9825 1.41276 62.6383 1.43306 62.3071C1.40802 61.91 1.39582 61.5603 1.39582 61.2384C1.39582 61.1459 1.39677 61.0531 1.39887 60.9603C1.4197 60.0583 1.32848 59.1369 1.24042 58.2445C1.18529 57.6851 1.12827 57.1067 1.09838 56.5343C1.04283 55.47 1.01685 54.318 1.01685 52.9087ZM6.70345 10.7421C6.7085 12.0984 6.7247 13.4592 6.88094 14.8084C6.9609 15.4989 7.05812 16.1974 7.20899 16.8769C7.21741 16.9146 7.22551 16.9513 7.23361 16.988C7.27265 16.6885 7.30831 16.3887 7.35597 16.0901C7.35418 15.8181 7.40195 15.5522 7.57534 15.3383C7.91875 14.9146 8.40199 14.6329 8.89817 14.4112C8.94025 14.3925 8.98297 14.3753 9.02516 14.3568C9.05441 14.3293 9.09134 14.312 9.13037 14.3117C10.3342 13.7946 11.5834 13.4188 12.8902 13.2493C14.3352 13.062 15.7824 12.866 17.2356 12.7457C17.2387 12.7453 17.242 12.7452 17.2452 12.7449C17.5629 12.7187 17.8807 12.6948 18.1991 12.6769C19.0532 12.6288 19.9273 12.5514 20.7829 12.5836C21.1108 12.5958 21.4548 12.5951 21.7962 12.6109C22.9592 12.5627 24.1286 12.5858 25.279 12.6635C26.9608 12.7771 28.5516 13.1219 30.195 13.4234C30.0589 11.3906 30.6699 9.37052 30.4945 7.32997C30.4099 6.34578 30.179 5.38325 30.0771 4.40175C30.003 3.68652 30.1701 2.90047 29.9704 2.20619C28.1906 1.99145 26.4027 1.89482 24.6123 1.82607C21.5578 2.0265 18.4929 2.02246 15.4377 2.18618C13.8318 2.27213 12.2685 2.5806 10.714 2.97482C10.0307 3.14808 9.35258 3.33523 8.6626 3.48091C8.36001 3.54468 7.61364 3.58812 7.33251 3.80348C6.36025 5.94669 6.69514 8.45798 6.70345 10.7421ZM18.1087 2.59965C20.0333 2.40917 21.9953 2.41954 23.9279 2.36096C25.6871 2.30766 27.514 2.14281 29.2517 2.49482C29.3759 2.47388 29.5093 2.52645 29.5489 2.6826C29.6502 3.082 29.6706 3.47227 29.674 3.86959L29.6744 4.47285C29.6784 5.15241 29.7823 5.82296 29.8164 6.50086C29.8189 6.5527 29.8203 6.60465 29.8226 6.65649C29.9414 7.35897 30.0328 8.06518 30.0143 8.76828C29.981 10.0322 29.4221 11.3053 29.6562 12.5631C29.6791 12.6862 29.6007 12.8288 29.4567 12.8213C28.9579 12.7954 28.508 12.6116 28.0232 12.5108C27.73 12.4499 27.436 12.4054 27.1407 12.3735C26.5708 12.3779 26.0023 12.3428 25.4621 12.223C25.4307 12.2161 25.4397 12.1715 25.4695 12.1699C25.787 12.1531 26.1087 12.1153 26.4322 12.0746L26.9088 12.0157L26.5724 11.9813C26.3426 11.9546 26.1146 11.9169 25.8901 11.8637L25.5564 11.7718C25.4984 11.7533 25.5074 11.6651 25.5709 11.6655C25.992 11.6689 26.4127 11.698 26.8339 11.689C25.9767 11.3908 25.1643 10.529 25.4263 9.64153C25.5015 8.97451 25.9788 8.34659 26.7364 7.95901C26.9306 7.85967 27.1292 7.79466 27.3273 7.75516C27.4044 7.71037 27.485 7.67449 27.569 7.64774C27.244 7.64639 26.9185 7.6551 26.5906 7.68278C26.525 7.68828 26.5113 7.58324 26.5752 7.56997C27.2099 7.43829 27.8608 7.3428 28.5112 7.34642C28.674 7.23901 28.7748 7.11821 28.8303 6.98622C28.8729 6.8226 28.8679 6.65048 28.8189 6.4767C28.7188 6.28519 28.5912 6.1054 28.433 5.94354C28.1548 5.65923 27.8452 5.48411 27.5107 5.35709C25.9437 5.17491 24.373 5.09196 22.7891 5.08305C22.7497 5.08284 22.7384 5.01907 22.7795 5.01337C24.2936 4.80071 25.8243 4.75055 27.348 4.84281L27.9902 4.89074L27.1472 4.76691C25.1496 4.51452 23.1104 4.50767 21.1055 4.43563C21.0446 4.43345 21.0474 4.35091 21.1055 4.34438C22.5233 4.18719 23.9534 4.16594 25.379 4.134C25.7029 4.12675 26.0288 4.12129 26.3549 4.12364L26.8338 4.13469L25.9197 4.05115C24.0701 3.91187 22.2146 3.91976 20.3492 3.91522C20.2702 3.91502 20.2741 3.8049 20.3492 3.79692C21.492 3.67581 22.6455 3.56698 23.8 3.51741L24.6551 3.49235L24.1472 3.4488C23.9739 3.43596 23.8001 3.42479 23.6257 3.41556C22.0101 3.33023 20.3694 3.44086 18.7605 3.27994C18.7073 3.27465 18.7079 3.20476 18.7605 3.19885C20.4486 3.009 22.1973 2.93684 23.8961 2.93176C24.215 2.93079 24.5357 2.93742 24.857 2.95185L25.3362 2.97945L24.8446 2.87139C24.5133 2.80745 24.179 2.75943 23.8445 2.72666C21.9294 2.7727 20.0117 2.85534 18.1087 2.73817C18.0171 2.73247 18.0194 2.60846 18.1087 2.59965ZM26.3835 14.6972L26.4151 14.9726C26.5741 14.9265 26.7304 14.8772 26.8837 14.8114C26.924 14.7941 26.9548 14.8441 26.9184 14.8698C26.7658 14.9771 26.6056 15.0751 26.4362 15.1544C26.4456 15.237 26.455 15.3195 26.4647 15.4022C27.1246 14.997 27.8635 14.6817 28.5529 14.334C28.8592 14.1796 29.1922 14.0539 29.5195 13.921L30.0021 13.7118L29.794 13.6758C29.7932 13.6762 29.7927 13.6768 29.7919 13.6773C28.9314 14.0042 28.0862 14.3786 27.2195 14.6872C27.188 14.6984 27.1708 14.6519 27.1974 14.6357C27.8814 14.2204 28.6406 13.8922 29.394 13.6006C29.315 13.5844 29.2359 13.5688 29.1568 13.5517C29.1522 13.5533 29.1495 13.5564 29.1444 13.5576C28.6307 13.6885 28.1127 13.9809 27.6118 14.1668C27.1927 14.3222 26.798 14.5394 26.3835 14.6972ZM25.7115 9.72002C25.7193 10.1005 25.8285 10.435 26.0068 10.7444C26.3978 11.1815 27.0155 11.46 27.565 11.4456C28.4208 11.4232 29.308 10.6299 29.3753 9.74583L29.3793 9.61809C29.3767 9.44909 29.3436 9.2779 29.2733 9.10941C28.8626 8.12459 27.6565 7.75308 26.7246 8.36152C26.2455 8.67434 25.6981 9.07229 25.7115 9.72002ZM21.2912 20.4621C21.3393 21.3748 21.3703 22.2893 21.3473 23.2029C21.3459 23.2538 21.344 23.3045 21.3424 23.3552C21.3718 24.1709 21.3686 24.9861 21.3551 25.8008L21.3057 28.2441L21.2992 29.4651C21.3223 29.2876 21.3432 29.1108 21.3585 28.9355C21.5046 27.2717 21.5994 25.6043 21.7596 23.9417C21.7666 23.869 21.8739 23.8664 21.8762 23.9417C21.9245 25.5473 21.9879 27.1721 21.9336 28.7791C22.0927 27.4005 22.1451 26.0152 22.3128 24.639C22.3192 24.5858 22.407 24.5617 22.4172 24.6251C22.6157 25.8686 22.6009 27.1848 22.5261 28.4573C22.6043 27.4925 22.6687 26.5219 22.8104 25.5646C22.8176 25.5154 22.886 25.5344 22.8912 25.5754C23.0303 26.6876 23.0554 27.8438 23.017 28.9637C23.006 29.2843 23.004 29.6172 22.9986 29.9534C23.007 29.9005 23.0153 29.8476 23.023 29.7951C23.1911 28.6441 23.2682 27.485 23.2793 26.3227C23.2797 26.2764 23.3548 26.2634 23.3635 26.3115C23.6828 28.105 23.6705 29.9956 23.4809 31.824C23.6577 30.3122 23.802 28.7961 23.9429 27.2813C23.9482 27.2239 24.0249 27.2256 24.032 27.2813C24.2244 28.7846 24.2602 30.2801 24.1677 31.7803C24.3287 30.5079 24.4807 29.2357 24.5951 27.9542C24.6019 27.8777 24.7072 27.8784 24.715 27.9542C24.8598 29.3595 24.8946 30.8009 24.7959 32.2234C24.8304 32.005 24.8623 31.7864 24.8842 31.5673C24.9841 30.5655 24.9811 29.5523 25.1169 28.5547C25.1247 28.497 25.2194 28.4694 25.2314 28.5395C25.4028 29.5457 25.3865 30.5815 25.367 31.6037L25.3578 32.1135L25.3523 32.3166C25.5068 31.2495 25.6582 30.182 25.7686 29.1072C25.7732 29.062 25.8483 29.0428 25.8561 29.0956C26.0679 30.531 26.0303 32.0104 25.8741 33.4668C25.924 33.2387 25.9714 33.0101 26.0129 32.7806C26.1887 31.8059 26.283 30.8368 26.3484 29.8505C26.3514 29.8058 26.4251 29.7896 26.4326 29.8393C26.7016 31.6202 26.5303 33.592 26.1562 35.3799C26.6634 33.2498 26.9953 31.1109 26.8789 28.896C26.8754 28.8301 26.9872 28.8138 26.9967 28.8802C27.345 31.2744 27.3893 33.7793 26.7811 36.1447C26.7846 36.1481 26.7885 36.1508 26.7919 36.1546C27.0721 35.1368 27.3865 34.1058 27.4713 33.0785C27.5801 31.7609 27.4304 30.4046 27.6598 29.0998C27.6645 29.0726 27.7061 29.0752 27.7126 29.0998C28.0611 30.4106 28.0594 31.9803 27.9423 33.3247C27.9164 33.6213 27.8825 33.9182 27.8444 34.2152C27.8532 34.1729 27.8633 34.1308 27.8719 34.0885C28.1243 32.8423 28.256 31.594 28.3921 30.3323C28.3969 30.2873 28.4721 30.2677 28.4796 30.3207C28.7076 31.9302 28.5737 33.6168 28.3312 35.2336C28.4045 35.0597 28.4696 34.8817 28.5203 34.6957C28.7358 33.904 28.8236 33.0907 28.9165 32.2782C28.9776 30.306 29.0544 28.3112 28.85 26.3592C28.6075 24.0427 28.0322 21.7651 27.1386 19.6076C26.7015 18.5523 26.4257 17.5645 26.265 16.4339C26.1298 15.4826 25.998 14.0092 25.7713 13.0707C25.6166 13.0578 25.4613 13.0486 25.3062 13.0381C25.6642 13.9825 25.7403 15.0684 25.9287 16.0519C26.1241 17.0713 26.3364 18.0885 26.4199 19.1239C26.4234 19.1676 26.3584 19.172 26.3458 19.1339C26.0228 18.1553 25.8237 17.1444 25.6103 16.1385C25.5694 15.9459 25.5321 15.748 25.495 15.5484C25.3978 15.2272 25.2787 14.9125 25.131 14.6196C25.1712 14.8552 25.202 15.0941 25.2262 15.3365C25.3261 16.3359 25.4687 17.3201 25.7096 18.2966C25.7241 18.3556 25.6332 18.3992 25.6061 18.3395C25.2448 17.5411 25.1255 16.6902 24.9281 15.8444C24.7873 15.2417 24.5977 14.6562 24.3555 14.09C24.2676 14.0105 24.1779 13.9323 24.0849 13.8578C24.6247 14.91 24.736 16.3932 24.854 17.3108C24.8605 17.3613 24.7799 17.3685 24.7665 17.3226C24.542 16.5589 24.311 15.7505 23.9688 15.0209C23.8426 14.8 23.7047 14.5869 23.5403 14.3947L23.3665 14.2098L23.5264 14.4593C24.0822 15.3999 24.2878 16.5962 24.3024 17.6535C24.3032 17.7143 24.2212 17.7178 24.2014 17.667C23.8523 16.7778 23.5699 15.7204 22.9716 14.9262C23.4122 15.7922 23.6334 16.7904 23.6411 17.6507C23.6415 17.6956 23.5767 17.7024 23.5637 17.6611C23.2851 16.7808 23.0297 16.0101 22.4869 15.2615C22.8925 16.1217 23.1115 17.0815 23.146 17.9243C23.1493 18.0075 23.0234 18.0213 23.0012 17.9435C22.7934 17.2175 22.5309 16.4882 22.1742 15.829C22.4049 16.5758 22.5714 17.3581 22.5953 18.1261C22.5968 18.1723 22.5264 18.1809 22.5145 18.1369C22.3407 17.4897 22.1481 16.8213 21.8915 16.1851C22.2058 17.2395 22.3808 18.4059 22.2032 19.4297C22.1958 19.4724 22.1367 19.4565 22.1325 19.4202C22.032 18.5587 21.8525 17.6086 21.5623 16.7225C21.7959 17.8147 21.888 18.961 21.7689 20.0486C21.7631 20.1011 21.6796 20.1226 21.6679 20.0621C21.6084 19.7581 21.5509 19.4546 21.4924 19.1515C21.4101 19.5858 21.3457 20.0212 21.2912 20.4621ZM22.9612 38.7899C23.8186 39.851 24.4436 40.9833 25.0655 42.1899C25.2743 42.595 25.6178 43.0542 25.6105 43.5338C25.5997 44.238 25.4945 44.9492 25.4159 45.6488C25.2683 46.9623 25.1654 48.2876 24.9025 49.5845C24.8861 49.714 24.8623 49.8445 24.8285 49.9755C25.3865 50.1772 26.608 49.5096 27.0107 49.238C27.9169 48.6273 28.0873 47.3102 28.0572 46.3167C28.028 45.356 28.0109 44.3999 28.042 43.4387C28.0715 42.5298 28.2202 41.5909 28.1756 40.6834C28.1205 39.5587 27.3515 38.9077 26.7296 38.0497C26.2252 37.354 25.6608 36.6978 25.1446 36.0085C25.1894 36.2706 25.1906 36.5268 25.1427 36.7351C25.1137 36.8613 25.0729 36.9786 25.0199 37.0849C24.911 37.427 24.5527 37.6836 24.1719 37.6716C23.5687 37.6525 23.0675 37.2816 22.7145 36.8194C22.6987 36.7988 22.7285 36.7735 22.7488 36.7855C22.9754 36.9191 23.2533 37.1024 23.5393 37.2398C23.4851 37.1976 23.4323 37.1554 23.3809 37.1158C22.9835 36.8094 22.4001 36.4265 22.1264 35.9482C22.1709 36.1015 22.2343 36.262 22.2906 36.4399C22.2928 36.4468 22.2848 36.4519 22.2789 36.4488C21.7711 36.1816 21.7046 35.3346 22.0374 34.9155C22.3993 34.4598 22.762 34.1657 23.2367 34.0717C23.1511 34.0434 23.0607 34.0293 22.9641 34.0368C22.3843 34.0812 21.8753 34.6478 21.5863 35.2633C21.2694 36.5367 22.1681 37.8085 22.9612 38.7899ZM26.2689 13.8848C26.2944 14.0377 26.3174 14.186 26.3358 14.3168C26.591 14.2686 26.8419 14.2077 27.0943 14.1506C27.2952 14.0521 27.4953 13.9527 27.6944 13.8569C27.8471 13.7835 28.0022 13.6995 28.1597 13.6169C27.6204 13.7366 27.1228 13.9744 26.5827 14.0929C26.5202 14.1066 26.4974 14.0207 26.5566 13.9996C26.8108 13.9088 27.0411 13.7704 27.27 13.6301C27.0985 13.6692 26.926 13.7051 26.7564 13.7513C26.6188 13.7887 26.4826 13.8345 26.3439 13.8681C26.3483 13.8671 26.3122 13.8752 26.2689 13.8848ZM26.7504 42.6046L26.7568 42.5854C27.0825 42.2937 27.3857 41.9766 27.651 41.6306C27.7481 41.504 27.9265 41.6392 27.8261 41.7637C27.5389 42.1199 27.1924 42.4084 26.7839 42.6199L26.7629 42.6198L26.7504 42.6046ZM25.7359 42.7579C26.4549 42.2275 26.9788 41.5569 27.617 40.95C27.718 40.8541 27.8814 40.9764 27.8109 41.0974C27.3719 41.8511 26.5343 42.4186 25.781 42.8338C25.7294 42.8621 25.691 42.7909 25.7359 42.7579ZM26.6506 47.682L26.6601 47.661C27.0085 47.2738 27.3295 46.9102 27.528 46.4254C27.5783 46.3024 27.7632 46.3463 27.7329 46.4811C27.6118 47.02 27.1347 47.4087 26.7078 47.722C26.6852 47.7387 26.6624 47.7246 26.6539 47.704L26.6506 47.682ZM26.9984 46.6959L27.0018 46.6768C27.1943 46.3899 27.3292 46.0787 27.4309 45.7503C27.4766 45.6022 27.6964 45.6883 27.6314 45.8335C27.4865 46.1573 27.2822 46.445 27.0449 46.7095C27.0345 46.721 27.0195 46.7192 27.0092 46.7113L26.9984 46.6959ZM26.2298 48.5581C26.7384 48.1785 27.0747 47.69 27.4844 47.2194C27.5593 47.1333 27.6736 47.2428 27.6324 47.332C27.3703 47.8996 26.8041 48.3205 26.2696 48.6252C26.2243 48.651 26.1905 48.5874 26.2298 48.5581ZM25.446 49.5599C26.2107 49.1504 26.77 48.5671 27.4159 48.0111C27.5066 47.9331 27.6562 48.0328 27.5882 48.1422C27.1291 48.8798 26.281 49.346 25.4791 49.637C25.433 49.6538 25.404 49.5824 25.446 49.5599ZM24.6731 37.8663L24.6844 37.8451C24.8611 37.7075 25.031 37.5381 25.1533 37.3509C25.2662 37.1782 25.3354 36.9697 25.461 36.8104C25.5243 36.73 25.6643 36.7984 25.6599 36.8917C25.6492 37.1221 25.4581 37.3756 25.2961 37.5336C25.1263 37.6991 24.9416 37.8171 24.721 37.9072C24.7039 37.9142 24.6875 37.9044 24.679 37.8899L24.6731 37.8663ZM17.7205 37.7718C17.9262 38.5586 18.2809 39.3139 18.5786 40.0706C19.1915 41.6284 19.9077 43.1115 20.6091 44.6292C21.1814 45.8676 21.3473 47.2248 21.0752 48.5573C20.8 49.9046 20.4135 51.3742 19.8279 52.6515C19.8155 52.6944 19.8043 52.738 19.7913 52.7807C19.7556 52.8975 19.7189 53.0237 19.6799 53.1549C21.1202 53.3465 22.6297 52.9067 23.4623 51.7073C23.8078 51.2098 24.3815 50.5652 24.5102 49.9631C24.6313 49.397 24.625 48.8143 24.659 48.2394C24.7287 47.0604 24.86 45.8916 24.8964 44.7096C24.9179 44.0125 25.125 43.3446 24.7553 42.6986C24.5294 42.3038 24.3478 41.8888 24.1316 41.4895C23.6041 40.5156 22.9024 39.6318 22.3407 38.6739C22.226 38.4783 22.1131 38.2813 21.9993 38.0849C21.9113 37.9469 21.8282 37.8077 21.7515 37.6677C21.7829 38.132 21.6555 38.5879 21.2374 38.8097C20.9766 38.948 20.7538 38.9986 20.5559 38.988C20.543 38.9992 20.5258 39.0067 20.5035 39.0066C20.0365 39.0042 19.3845 38.6725 19.2222 38.2142C19.2083 38.1751 19.2584 38.1389 19.2927 38.1607C19.4463 38.2583 19.5697 38.3909 19.7171 38.4968C19.5741 38.3346 19.4375 38.147 19.2961 37.9537C19.0629 37.635 18.8071 37.3159 18.6145 36.9882C18.6933 37.2716 18.8049 37.5552 18.9299 37.8264C18.9481 37.8659 18.9016 37.9068 18.8671 37.8742C18.3963 37.43 17.9678 36.5747 18.1359 35.9193C18.2678 35.4047 18.4249 35.0543 18.7429 34.7969C18.4392 34.9042 18.1753 35.0827 18.0348 35.3367C17.8471 35.6758 17.7102 36.0048 17.6266 36.3531C17.603 36.8343 17.6015 37.3166 17.7205 37.7718ZM22.3625 35.8068C22.6464 36.2416 23.0765 36.5404 23.4829 36.855C23.7402 37.0542 24.089 37.4332 24.4566 37.2822C24.8204 37.1329 24.9209 36.7177 24.8947 36.3712C24.8709 36.0564 24.8 35.7405 24.6672 35.4569C24.4547 35.2384 24.2353 35.0279 24.0404 34.7875C23.9679 34.6983 23.889 34.5975 23.8029 34.4991C23.0798 34.254 21.8453 35.0148 22.3625 35.8068ZM16.1989 7.54164C18.888 6.95644 21.957 6.67358 24.6873 7.113C24.8245 7.13509 24.7865 7.34371 24.6554 7.34526C23.2445 7.36175 21.8366 7.25339 20.4238 7.30596C19.0137 7.35853 17.6167 7.50691 16.2157 7.66441C16.1443 7.6725 16.1299 7.55668 16.1989 7.54164ZM22.0725 45.7068C22.9819 45.1893 23.7439 44.6417 24.3757 43.808C24.476 43.6756 24.6622 43.7854 24.5977 43.9359C24.1773 44.9155 23.0672 45.4571 22.1148 45.8056C22.0554 45.8274 22.0199 45.7368 22.0725 45.7068ZM23.2788 46.0873C23.6649 45.9228 24.0064 45.7121 24.3363 45.4567C24.4547 45.3649 24.6237 45.52 24.506 45.6239C24.1732 45.9174 23.7552 46.1055 23.3158 46.1738C23.2668 46.1813 23.2248 46.1103 23.2788 46.0873ZM22.6047 45.984L22.6221 45.9636C23.198 45.6711 23.6913 45.2907 24.2328 44.9489C24.3556 44.8714 24.4885 45.0467 24.3865 45.1452C23.9262 45.59 23.2648 45.866 22.6513 46.0315C22.631 46.0369 22.614 46.0248 22.607 46.009L22.6047 45.984ZM22.9153 50.4909L22.931 50.4691C23.4517 50.0774 23.7843 49.5917 24.1223 49.0495C24.1994 48.9258 24.381 49.0338 24.3176 49.1621C24.0356 49.7335 23.5054 50.1983 22.9726 50.5391C22.9452 50.5565 22.921 50.5389 22.9149 50.5154L22.9153 50.4909ZM22.0523 51.5829C22.7607 51.0684 23.4336 50.5431 24.0484 49.9225C24.0981 49.8723 24.1795 49.9364 24.1453 49.9962C23.6984 50.7781 22.8644 51.2351 22.0904 51.6471C22.0466 51.6704 22.0139 51.6108 22.0523 51.5829ZM14.5724 8.19316C17.6507 7.77582 20.7746 7.4771 23.8851 7.63014C24.0598 7.63875 24.0594 7.8877 23.8851 7.89703C23.2657 7.93023 22.646 7.95842 22.0264 7.98419L18.3082 8.13037C17.0691 8.18319 15.8304 8.24699 14.5929 8.34247C14.5067 8.3491 14.4863 8.20477 14.5724 8.19316ZM21.17 52.7208L21.187 52.6982C22.1543 52.1162 22.9657 51.4167 23.8086 50.6796C23.8892 50.6092 24.0317 50.7019 23.9647 50.7984C23.3211 51.7266 22.2818 52.4021 21.2175 52.7692C21.1957 52.7767 21.1788 52.7645 21.172 52.7477L21.17 52.7208ZM20.789 39.2574C21.2749 39.2063 21.5578 38.9105 21.8858 38.5952C21.9799 38.5048 22.1226 38.6189 22.0635 38.7303C21.8296 39.1715 21.2568 39.3334 20.789 39.3318C20.7393 39.3316 20.7417 39.2624 20.789 39.2574ZM10.0363 12.3212C13.6533 11.1277 17.7289 10.352 21.5351 11.062C21.6568 11.0847 21.6228 11.2648 21.5069 11.2678C19.5741 11.3167 17.6484 11.254 15.7195 11.4443C13.8144 11.6321 11.9134 11.9228 10.0627 12.4158C10.0003 12.4324 9.97591 12.3412 10.0363 12.3212ZM18.5614 36.2975C18.7288 36.8325 19.0539 37.2022 19.3808 37.6471C19.7447 38.1424 20.5229 39.3874 21.2372 38.493C21.6014 38.0371 21.5342 37.4118 21.3383 36.8988C21.1852 36.6055 21.0387 36.3089 20.904 36.0068C20.7401 35.6389 20.5231 35.0293 20.1349 34.8184C19.5004 34.7154 18.6934 35.16 18.5426 35.7979C18.5388 35.814 18.5359 35.8304 18.5326 35.8467C18.5069 35.9894 18.5123 36.1407 18.5614 36.2975ZM1.7224 56.8027C1.82035 58.2832 1.98869 59.7459 1.96481 61.23C1.95997 61.5326 1.96617 61.8344 1.9768 62.136C2.1564 64.0367 2.08811 65.9504 2.47719 67.8323C2.65205 68.6777 2.8165 69.5273 2.86532 70.3907C2.90487 71.0904 2.96937 72.5749 3.73552 72.9027C4.65581 73.2964 6.25935 73.1408 6.78015 72.1432C7.09905 71.5321 7.07443 70.8522 7.08926 70.184C7.11093 69.2092 7.10578 68.236 7.0719 67.2615C7.04686 66.5424 7.14692 65.671 6.98626 64.9527C6.87684 65.002 6.75479 65.0353 6.62864 65.0606C6.63453 65.0809 6.63685 65.1024 6.6299 65.1259C6.38476 65.946 5.8889 66.7236 5.37967 67.4077C5.354 67.4422 5.29876 67.4127 5.32044 67.3737C5.64786 66.7853 5.89663 66.1757 6.15445 65.5634L6.35088 65.104L6.21537 65.1188C6.12573 65.6516 5.70804 66.1994 5.38462 66.6144C5.35705 66.6497 5.29971 66.6201 5.32244 66.5786C5.47152 66.3062 5.61324 66.026 5.72719 65.7372C5.80315 65.5446 5.85702 65.3339 5.94508 65.1444C5.90142 65.1488 5.8587 65.1532 5.81788 65.1583C5.81199 65.159 5.8062 65.1593 5.80031 65.1601C5.67321 65.488 5.45279 65.7818 5.22238 66.0459C5.21154 66.0583 5.18734 66.0451 5.19376 66.0294C5.27022 65.8432 5.34157 65.6519 5.42008 65.4642L5.54475 65.1865L5.47236 65.194C5.41429 65.2932 5.3419 65.3834 5.28593 65.4846C5.26972 65.514 5.22522 65.4935 5.23269 65.4625C5.25257 65.38 5.27414 65.2924 5.30665 65.2111C4.79059 65.2543 4.27558 65.2669 3.75425 65.2528C3.69218 65.251 3.6926 65.161 3.75425 65.1581C4.76492 65.1115 5.99011 65.0671 6.95007 64.6904C6.9608 64.6573 6.98005 64.6284 7.00741 64.6066C6.99583 62.9056 7.28632 61.1993 7.18763 59.4931C7.10052 57.9852 7.04633 56.4817 7.01709 54.9734C6.78783 55.2466 6.80761 55.7317 6.76079 56.0629C6.75458 56.1065 6.74637 56.1553 6.73712 56.2074C6.85243 57.8547 6.9285 59.5209 6.89872 61.1594C6.88199 62.0778 6.8822 62.9985 6.83023 63.9157C6.80582 64.347 6.60897 64.6706 6.15329 64.6202C6.12846 64.6175 6.1131 64.5837 6.13951 64.5699C6.41559 64.4243 6.53069 64.0516 6.57267 63.6221C6.44926 63.8801 6.27629 64.1195 6.04314 64.3423C6.01662 64.3676 5.98075 64.3358 5.99474 64.3054C6.15866 63.9488 6.30985 63.5636 6.42327 63.1725C6.29396 63.3566 6.14056 63.5217 5.96686 63.6556C5.93982 63.6764 5.90173 63.6511 5.91846 63.6188C6.13215 63.2026 6.28818 62.8037 6.40728 62.3845C6.25525 62.6025 6.06934 62.8008 5.86017 62.9747C5.82093 63.0074 5.75275 62.9649 5.78484 62.9174C6.05019 62.5253 6.22368 62.1035 6.36456 61.6655C6.21411 61.8612 6.04009 62.0402 5.8546 62.2002C5.82409 62.2265 5.76906 62.1913 5.79536 62.1551C6.06776 61.7806 6.2443 61.3763 6.39507 60.9541C6.18949 61.2176 5.94645 61.4556 5.72003 61.6631C5.68121 61.6986 5.61398 61.6523 5.64459 61.6058C5.85334 61.2883 6.06344 60.9705 6.23231 60.6302C6.33994 60.4134 6.40538 60.2005 6.4603 59.9808C6.20317 60.4127 5.84734 60.8084 5.53854 61.13C5.50792 61.1618 5.45195 61.1201 5.47657 61.0829C5.80041 60.5943 6.19685 59.9853 6.36256 59.3772C6.10006 59.7819 5.75202 60.1385 5.38104 60.4207C5.32317 60.4647 5.26152 60.3737 5.30623 60.3252C5.77474 59.8169 6.01284 59.2702 6.19001 58.6681C5.97559 59.067 5.69941 59.4336 5.3762 59.7453C5.34516 59.7753 5.29634 59.7374 5.31696 59.7003C5.68668 59.0354 5.9435 58.3733 6.1412 57.6688C5.89826 58.1387 5.58199 58.5751 5.2349 58.9711C5.19934 59.0116 5.12832 58.9578 5.15946 58.9138C5.5195 58.4054 5.70646 57.848 5.87154 57.2789C5.67689 57.5131 5.46426 57.7274 5.24668 57.9137C5.22564 57.9318 5.18987 57.9084 5.20628 57.883C5.53528 57.3749 5.76853 56.8592 5.9819 56.3259C5.71088 56.6621 5.38756 56.9626 5.06856 57.2101C5.03573 57.2356 4.98113 57.2034 5.00669 57.1629C5.30739 56.6865 5.62113 56.2602 5.88006 55.7841C5.56779 56.1132 5.20428 56.4085 4.90001 56.7173C4.87476 56.7429 4.82657 56.7083 4.84888 56.6784C5.13221 56.2977 5.346 55.854 5.59935 55.4435C5.35842 55.6503 5.1259 55.8613 4.91064 56.1048C4.89485 56.1225 4.86708 56.0997 4.87834 56.0802C5.03563 55.8045 5.18292 55.4976 5.37325 55.2299C5.29003 55.2855 5.20523 55.3391 5.12674 55.4016C4.99744 55.5046 4.88107 55.6156 4.76618 55.7339C4.73935 55.7616 4.6918 55.7257 4.71242 55.693C4.83678 55.4954 4.95525 55.2552 5.11801 55.0689C4.96745 55.0739 4.83878 55.2028 4.73577 55.2964C4.69421 55.3341 4.63014 55.2865 4.65771 55.2369C4.702 55.1575 4.75134 55.0801 4.80963 55.0132C4.25169 55.0219 3.6988 55.001 3.18747 54.9785C3.12992 54.976 3.13013 54.8935 3.18747 54.8906C4.41256 54.8282 5.8122 54.8728 6.9932 54.4785C7.00898 54.1407 7.08147 53.8077 7.08937 53.4637C7.10073 52.9684 7.13587 52.4846 7.18911 51.9921C7.24666 51.4597 7.25676 50.9337 7.24129 50.3986C7.23035 50.0177 7.32367 49.4638 7.26423 49.0454C7.13492 48.7881 7.00435 48.5315 6.87452 48.2749C6.90893 48.5497 6.9266 48.827 6.93544 49.1061C6.95133 49.3206 6.95606 49.5541 6.94554 49.7952C6.94617 49.9647 6.94649 50.1343 6.94838 50.3038C6.95869 51.2572 6.99299 52.2211 6.88199 53.1694C6.87305 53.3718 6.85737 53.5737 6.83686 53.7735C6.80056 54.1257 6.61717 54.3671 6.2645 54.4362C6.22778 54.4434 6.20253 54.3939 6.2381 54.3745C6.46798 54.2489 6.51564 53.9553 6.51301 53.6587C6.34773 53.944 6.10143 54.1785 5.77937 54.31C5.74476 54.3241 5.71414 54.2708 5.74265 54.2479C6.15834 53.914 6.23473 53.4588 6.31479 52.9934C6.14782 53.2815 5.93666 53.5443 5.67384 53.7672C5.63839 53.7973 5.57968 53.7589 5.60651 53.716C5.96907 53.1368 6.13204 52.5497 6.22452 51.944C5.92993 52.3277 5.57189 52.6826 5.25247 53.0021C5.2168 53.0376 5.1643 52.9926 5.18513 52.9509C5.49751 52.3226 6.02704 51.709 6.19086 51.0141C5.92235 51.4376 5.58515 51.8125 5.19566 52.0985C5.16357 52.122 5.12074 52.0766 5.14168 52.0454C5.58294 51.3843 5.885 50.7534 6.08343 50.0787C5.80936 50.4673 5.48204 50.8424 5.16325 51.2354C5.12443 51.2833 5.0513 51.2221 5.07971 51.1719C5.38956 50.6259 5.85113 50.0082 6.02062 49.4025C6.06376 49.2483 6.09132 49.0922 6.11089 48.9351C5.83093 49.4527 5.45237 49.9296 5.07719 50.3581C5.0412 50.3991 4.98891 50.3468 5.00722 50.3048C5.29761 49.6387 5.57905 49.0035 5.78063 48.3344C5.49803 48.7546 5.21891 49.1784 4.90348 49.5748C4.88539 49.5975 4.84551 49.573 4.85477 49.5468C5.14884 48.715 5.74781 47.8711 5.83145 46.9816C5.58515 47.7146 5.1016 48.4228 4.7081 48.9909C4.6798 49.0317 4.61478 49.0067 4.62667 48.957C4.77249 48.3475 4.96293 47.7731 5.12358 47.1893C4.89296 47.623 4.6193 48.0261 4.36259 48.363C4.33818 48.3951 4.27253 48.3774 4.29052 48.3331C4.56649 47.6547 4.77954 46.9961 4.92389 46.3182C4.71578 46.8071 4.43234 47.2655 4.09209 47.668C4.04758 47.7208 3.97961 47.6535 4.00329 47.6004C4.27789 46.9837 4.45801 46.3791 4.58069 45.7626C4.3769 46.103 4.14848 46.4335 3.94542 46.7599C3.9208 46.7995 3.84989 46.7738 3.86704 46.7275C4.08651 46.1355 4.4033 45.5281 4.53871 44.9114C4.58634 44.6946 4.61189 44.4759 4.62987 44.2566L4.65297 43.9272L4.61173 43.8337C4.47043 44.4777 4.22265 45.1003 3.90523 45.6511C3.88513 45.6859 3.82769 45.6625 3.83947 45.6237C4.14532 44.6167 4.2236 43.6619 4.22308 42.6679C4.19993 42.5681 4.17689 42.4681 4.15742 42.3677C4.08672 43.0417 3.97583 43.7142 3.81538 44.3879C3.80623 44.4263 3.73952 44.4186 3.74468 44.3785C3.87121 43.3916 3.90614 42.3966 3.92329 41.4007L3.9449 39.9073C3.94132 39.691 3.939 39.4747 3.93785 39.2591C3.9308 37.9571 3.95489 36.6543 4.02707 35.3542C4.06778 34.6213 4.14827 33.9033 4.23812 33.1845C4.28747 32.1519 4.31303 31.121 4.23707 30.0955C4.23444 30.0596 4.29199 30.0431 4.30735 30.0767C4.50431 30.5097 4.61299 30.9772 4.67391 31.4568C5.00049 32.83 5.07456 34.2976 5.16525 35.6884C5.2712 37.3135 5.27204 38.9362 5.28098 40.5636C5.29003 42.2043 5.28414 43.8716 5.93835 45.4088C6.48745 46.6993 7.15018 47.9413 7.78103 49.1948C7.89887 48.9621 8.11129 48.7991 8.36043 48.7016C9.12922 48.2491 10.3123 48.7239 10.696 49.479C10.7109 49.5081 10.6707 49.5442 10.6476 49.5158C10.5213 49.3605 10.3524 49.221 10.1586 49.1053L10.0096 49.0246L10.1975 49.1934C10.4408 49.4306 10.6506 49.7028 10.8209 49.9406C10.9967 50.1861 11.2248 50.5115 11.3837 50.8579C11.3114 50.6055 11.2098 50.3636 11.112 50.1018C11.1052 50.0835 11.1317 50.0696 11.1444 50.0832C11.8346 50.8125 11.8213 51.7596 11.3153 52.4876C10.949 53.0724 10.3297 53.7023 10.305 54.3423C10.3036 54.3795 10.247 54.3894 10.2376 54.3513C10.1394 53.9503 10.2537 53.605 10.4399 53.2764C10.1282 53.6523 9.91546 54.0605 10.0679 54.5955C10.5432 55.0464 11.2138 55.2519 11.8687 54.8807C12.5812 54.4768 13.0399 53.8117 13.278 53.0438C13.7776 51.4325 13.7006 49.9313 13.3811 48.2961C13.1294 47.0074 13.1998 45.4732 12.4513 44.3446C12.4495 44.3418 12.4485 44.3391 12.4469 44.3364C12.3367 44.3341 12.225 44.3301 12.1132 44.3259C12.2092 44.394 12.2995 44.4763 12.3831 44.5749C12.3991 44.5937 12.3793 44.6217 12.3562 44.6094C12.0142 44.4275 11.641 44.3765 11.2823 44.2651C11.1128 44.2457 10.9446 44.2228 10.7813 44.1917C10.7366 44.1832 10.736 44.1107 10.7813 44.1027C11.3611 43.9991 11.9917 44.0487 12.5816 44.0497C12.5948 44.007 12.621 43.967 12.6729 43.8649C12.8557 43.5047 12.8735 43.079 12.9376 42.6876C13.0701 41.8772 13.2125 41.0613 13.2953 40.2445C13.4274 38.9407 13.3659 37.6025 13.5894 36.3103C13.5855 36.303 13.5814 36.296 13.5782 36.2877C13.4107 35.8442 12.9926 35.5122 12.6438 35.2065C12.3102 34.914 11.9877 34.552 11.6127 34.3133C11.5931 34.3007 11.6066 34.2754 11.6277 34.2783C11.9049 34.3153 12.0831 34.4914 12.3109 34.6366C12.4514 34.726 12.5955 34.8128 12.7353 34.9054C12.8994 34.8703 13.0713 34.8268 13.2156 34.7516C13.2448 34.7363 13.2675 34.7705 13.2489 34.794C13.1891 34.869 13.1276 34.9332 13.0605 34.9879L12.9554 35.0628L12.9853 35.0852C13.031 35.1221 13.0768 35.1598 13.1224 35.1979C13.4735 35.0038 13.844 34.8429 14.1971 34.6522C14.239 34.6295 14.2849 34.6847 14.2489 34.7186C13.9726 34.9792 13.6689 35.2145 13.3215 35.372C13.3863 35.4319 13.4485 35.4942 13.5079 35.5586C14.3024 35.1386 15.0081 34.682 15.7046 34.1037C15.7465 34.069 15.8033 34.123 15.7653 34.1635C15.1829 34.7819 14.5478 35.5177 13.7231 35.8295C13.7581 35.8821 13.7913 35.9359 13.8202 35.9922C13.8339 35.9883 13.8477 35.9863 13.8612 35.9865C14.6629 35.6612 15.4711 35.0083 16.0797 34.4343C16.7023 33.8472 17.334 33.254 17.8715 32.5885C18.9757 31.2212 19.8119 29.6458 20.299 27.9633C20.8512 26.0563 20.9785 24.0906 20.9541 22.1157C20.9419 21.133 20.8632 20.1451 20.893 19.1627C20.9016 18.8799 20.8864 18.5892 20.8729 18.2977C20.816 17.8075 20.7463 17.3268 20.6359 16.8655C20.3842 16.3809 20.1479 15.8978 19.8358 15.456C20.2788 16.3424 20.5109 17.3434 20.5284 18.3466C20.5289 18.3827 20.473 18.3905 20.4643 18.3551C20.0504 16.6436 19.2819 15.0701 17.8999 14.0337C18.3069 14.5127 18.6421 15.0659 18.9182 15.548C19.5605 16.6691 20.0478 17.9229 19.9876 19.229C19.9857 19.27 19.9244 19.2808 19.9135 19.2389C19.513 17.6902 18.8015 15.8777 17.6101 14.6321C17.9336 15.1557 18.1953 15.7119 18.4118 16.1326C19.0874 17.4455 19.4941 18.7929 19.4795 20.2687C19.4792 20.3004 19.4293 20.3088 19.4223 20.2764C19.1511 19.008 18.7817 17.6958 18.1763 16.5405C17.8528 15.9228 17.4854 15.3635 17.002 14.8524C16.9784 14.8277 16.9541 14.8011 16.9292 14.7737C17.3359 15.3675 17.6563 16.0375 17.9668 16.7082C18.608 18.0929 19.1959 19.6655 18.9355 21.2104C18.9315 21.2345 18.8895 21.2349 18.8859 21.2104C18.6642 19.6932 18.2905 18.3108 17.5438 16.9519C17.1838 16.2968 16.8047 15.6335 16.3621 15.0282C16.3295 14.9835 16.2949 14.9435 16.261 14.9017C17.4452 16.8042 18.1433 18.9739 18.2719 21.2206C18.2733 21.2457 18.2344 21.2501 18.2282 21.2264C17.6125 18.8967 16.7235 16.7787 15.3517 14.8493C15.4556 15.0366 15.5514 15.2209 15.6412 15.3874C16.4125 16.8156 16.9608 18.344 17.226 19.9418C17.2342 19.991 17.1675 20.01 17.1499 19.9625C16.6609 18.6405 16.0825 17.347 15.3308 16.1479C15.1138 15.8016 14.893 15.4036 14.6434 15.0387C14.5346 14.9319 14.4216 14.8298 14.3042 14.7327C14.4369 14.9059 14.5565 15.0832 14.6611 15.2543C15.3621 16.4016 15.8852 17.7645 16.1705 19.0731C16.1796 19.1148 16.1206 19.1433 16.0985 19.103C15.5967 18.1904 15.2284 17.2334 14.6451 16.36C14.2647 15.7905 13.7206 14.9973 13.0521 14.5588L12.8257 14.4278L13.0822 14.7007C14.0032 15.7385 14.6676 17.1222 15.0553 18.3663L15.1542 18.7018C15.1623 18.731 15.1329 18.7514 15.1089 18.7451L15.0884 18.7292L14.4604 17.6541C13.7574 16.4625 13.0064 15.3062 11.9037 14.4402C12.1471 14.7437 12.3542 15.0887 12.5314 15.3632C12.9809 16.0595 13.4508 16.8016 13.7021 17.5936C13.7215 17.6547 13.6352 17.6843 13.6019 17.6353C13.2244 17.0801 12.9185 16.4885 12.5047 15.9551C12.2578 15.6367 11.9981 15.3335 11.7232 15.0386C11.5458 14.8482 11.3429 14.5609 11.1092 14.3912L10.9664 14.3069L11.1885 14.5695C11.7636 15.2908 12.179 16.1385 12.4382 17.0191C12.441 17.0283 12.4277 17.0371 12.4211 17.0289C12.0637 16.5907 11.8132 16.0877 11.4931 15.6245C11.2337 15.2491 10.9276 14.9419 10.6035 14.6369L10.3576 14.4075C10.343 14.4071 10.3315 14.407 10.3198 14.4067C10.719 14.8548 11.0579 15.3809 11.2825 15.9231C11.297 15.9582 11.2437 15.9856 11.2195 15.9593C10.8036 15.5063 10.387 15.0594 9.96207 14.6162C10.0287 14.7335 10.0844 14.8588 10.1362 14.9687C10.2308 15.1696 10.3096 15.3727 10.354 15.5903C10.3627 15.6327 10.3099 15.6534 10.2851 15.619C10.1364 15.4122 9.99753 15.1969 9.8314 15.0028C9.74786 14.9052 9.64903 14.8183 9.56051 14.7242L9.43864 14.5755L9.42034 14.5827C9.58342 14.8104 9.71356 15.0727 9.79763 15.3286C9.81636 15.3857 9.73545 15.4331 9.69452 15.3878C9.49651 15.169 9.29229 14.9466 9.10197 14.719C9.07377 14.7316 9.04568 14.7444 9.01769 14.7574C9.10354 14.8819 9.17435 15.0185 9.24537 15.1499C9.26473 15.1859 9.22117 15.2137 9.1915 15.1909C9.05883 15.0892 8.91585 14.9861 8.79917 14.8645C8.75487 14.8874 8.71131 14.9113 8.66797 14.9355C8.7171 15.0069 8.7696 15.0758 8.82042 15.1463C8.85787 15.1983 8.78402 15.2701 8.7313 15.2341C8.64661 15.1764 8.57475 15.1051 8.50636 15.0299C8.45954 15.0588 8.41262 15.0874 8.36748 15.1182C7.8874 15.4447 7.69623 15.8123 7.60101 16.2853C7.65667 17.5199 7.19174 18.8499 6.75911 19.964C6.21947 21.3532 5.52634 22.677 4.98344 24.0642C4.42498 25.4912 3.68102 26.9952 3.44177 28.5099C3.31436 29.3167 3.04176 30.0674 2.93497 30.8787C2.90551 31.103 2.84753 31.3122 2.78272 31.5177C2.7298 32.0968 2.57998 32.6616 2.54116 33.2442C2.49655 33.9145 2.50033 34.586 2.46604 35.2566C2.39249 36.6888 2.29801 38.1198 2.14072 39.5457C1.97869 41.0155 1.78037 42.4853 1.70493 43.9629C1.63402 45.3517 1.66653 46.7452 1.66653 48.1354C1.66674 51.0166 1.53207 53.9264 1.7224 56.8027ZM19.3256 29.0222C19.8055 27.6736 20.03 26.2638 20.1206 24.8402C20.2068 23.4861 20.1295 22.088 20.3083 20.7447C20.3199 20.6581 20.4636 20.6165 20.4801 20.7218C20.9048 23.4375 20.5281 26.5443 19.407 29.056C19.3867 29.1016 19.3089 29.0689 19.3256 29.0222ZM12.1439 55.1582C12.4517 55.3089 12.734 55.577 13.0334 55.7017C14.0466 56.1236 15.155 55.7497 16.1748 55.5554C16.9757 55.4027 18.0379 55.2836 18.5992 54.6247C19.1306 54.0009 19.4213 52.9958 19.5762 52.2037C19.8973 50.5625 20.5808 48.8254 20.5563 47.1432C20.5331 45.5539 19.6375 44.0924 19.0098 42.6466L18.8703 42.3131L18.7345 41.9759C18.6477 42.4014 18.4286 42.7862 18.0594 42.9577C17.6734 43.137 17.2775 43.1514 16.9204 43.0444C15.9991 42.8975 15.2796 42.046 15.0422 41.161C15.0338 41.1295 15.0784 41.0982 15.1015 41.1269C15.3392 41.4233 15.5596 41.7451 15.8032 42.0299C15.4236 41.195 14.7063 40.5293 14.7948 39.7397C14.684 39.9456 14.6052 40.1617 14.5869 40.374C14.5849 40.3968 14.5498 40.4047 14.5442 40.3797C14.3835 39.6759 14.9381 38.9456 15.4629 38.5233C15.7657 38.2796 16.0944 38.1279 16.4408 38.1085C15.7272 37.9829 14.9329 38.2643 14.604 38.9151C14.1711 39.772 14.0896 40.7263 14.1838 41.6684C14.218 42.0108 14.2566 42.3524 14.2973 42.6935L14.5484 44.7381C14.6285 45.42 14.6989 46.1035 14.7415 46.7917C14.7873 47.529 14.9241 48.3155 14.7677 49.0481C14.7393 49.1808 14.7022 49.3096 14.6613 49.4368C14.5757 50.0581 14.4504 50.6733 14.4133 51.3029C14.3798 51.8693 14.3665 52.4882 14.1664 53.0277C13.851 53.8779 13.2045 54.4154 12.4887 54.9148C12.3786 55.0044 12.2644 55.0879 12.1439 55.1582ZM17.8537 48.8009C18.6338 48.6179 19.3189 48.2865 20.0009 47.8802C20.1672 47.7812 20.2995 48.0229 20.1497 48.1312C19.487 48.6098 18.6775 48.8381 17.8646 48.8805C17.818 48.883 17.8087 48.8115 17.8537 48.8009ZM16.6591 48.5075C17.8855 48.2383 18.9046 47.6791 20.019 47.1401C20.1405 47.0814 20.2822 47.2353 20.1706 47.3338C19.2335 48.1609 17.8984 48.4989 16.6687 48.5771C16.6281 48.5797 16.6197 48.5161 16.6591 48.5075ZM7.84263 13.6338C11.7098 12.0051 15.8835 11.6151 20.0494 11.6681C20.2451 11.6705 20.2425 11.955 20.0494 11.9653C15.951 12.1866 11.8294 12.5767 7.8744 13.708C7.83053 13.7205 7.79918 13.6522 7.84263 13.6338ZM18.2436 49.1907C18.7487 49.0795 19.2082 48.8874 19.6762 48.6754C19.8241 48.6084 19.953 48.8128 19.8059 48.8941C19.3337 49.1556 18.7922 49.2632 18.2554 49.277C18.2054 49.2782 18.1942 49.2015 18.2436 49.1907ZM18.0289 30.5388L18.034 30.5114C18.6191 29.4262 18.8603 28.242 19.0386 27.0371C19.2368 25.6967 19.4272 24.3492 19.5882 23.0041C19.5998 22.907 19.7443 22.9013 19.7459 23.0041C19.784 25.5214 19.5262 28.3836 18.1081 30.554C18.0901 30.5815 18.0577 30.578 18.0402 30.5604L18.0289 30.5388ZM18.5462 49.5737C18.8814 49.5513 19.1999 49.4588 19.4878 49.2872C19.6201 49.2083 19.7435 49.425 19.6072 49.4884C19.2684 49.646 18.9196 49.7161 18.5462 49.675C18.4811 49.6678 18.479 49.5781 18.5462 49.5737ZM12.6793 10.8707C14.7403 10.2878 16.8803 10.0479 19.021 10.2301C19.1967 10.2451 19.2025 10.504 19.021 10.5038C16.9007 10.5018 14.7973 10.6241 12.7002 10.9457C12.6511 10.9531 12.6292 10.8848 12.6793 10.8707ZM17.0505 30.9894L17.0538 30.9641C17.9897 29.2982 18.5642 27.4135 18.8029 25.5262C18.8162 25.4214 18.976 25.4143 18.9743 25.5262C18.9441 27.5447 18.2928 29.354 17.1101 30.9966C17.0981 31.0131 17.0788 31.0142 17.0652 31.0066L17.0505 30.9894ZM17.7256 53.4317C17.9316 53.3151 18.1118 53.1797 18.3034 53.0598C18.4524 52.9667 18.6062 52.8822 18.7133 52.7393C18.7917 52.6349 18.9711 52.7383 18.891 52.8417C18.6142 53.1988 18.1337 53.2581 17.7438 53.4422L17.7314 53.4414L17.7256 53.4317ZM16.1403 54.7206L16.1582 54.699C17.033 54.2604 17.8628 53.7425 18.7349 53.3016C18.8667 53.235 18.966 53.4108 18.849 53.4942C18.0517 54.0619 17.1112 54.4468 16.1886 54.7701C16.1675 54.7775 16.15 54.7647 16.1427 54.7476L16.1403 54.7206ZM17.1809 43.3866C17.6838 43.3284 18.1161 43.2494 18.5515 42.9762C18.6935 42.8871 18.8262 43.1116 18.683 43.1979C18.2424 43.4633 17.6792 43.6302 17.1636 43.5126C17.0863 43.495 17.113 43.3943 17.1809 43.3866ZM15.0295 40.1142C15.2664 40.7458 15.7519 41.2982 16.0518 41.9094C16.2661 42.346 16.5326 42.6931 17.0506 42.7792C17.4163 42.84 17.8635 42.8649 18.1208 42.5371C18.4212 42.1544 18.5055 41.7315 18.4644 41.2985C18.3316 40.9589 18.204 40.6174 18.0897 40.2747C17.9244 39.7789 17.7895 39.1365 17.4526 38.6937C17.0561 38.5011 16.6023 38.4223 16.1721 38.5886C15.6747 38.7808 14.7804 39.4503 15.0295 40.1142ZM14.7471 55.3365C15.9779 55.1052 17.0985 54.8172 18.2137 54.2391C18.3546 54.1661 18.4546 54.3527 18.3348 54.4433C17.3303 55.2036 15.975 55.3049 14.7563 55.4029C14.7177 55.406 14.7092 55.3437 14.7471 55.3365ZM16.0209 39.1289C15.9667 39.1428 15.9453 39.0754 15.9852 39.0456C16.3573 38.767 16.6236 38.6256 17.051 38.8626C17.5226 39.1241 17.234 39.6412 17.5128 39.9775C17.8266 40.356 17.9883 40.837 18.148 41.296C18.3339 41.8306 17.8821 42.1943 17.5359 42.5008C17.4371 42.5883 17.3043 42.4796 17.3582 42.3657C17.5741 41.9093 17.309 41.598 17.1786 41.182C17.0988 40.9272 17.0574 40.6678 16.8914 40.45C16.7301 40.2385 16.6707 40.0838 16.6426 39.8263C16.6099 39.5276 17.3017 38.8016 16.0209 39.1289ZM16.0604 31.6453L16.0638 31.6259C16.9897 30.1883 17.3837 28.6178 17.983 27.0496C18.0107 26.9773 18.1319 26.9818 18.1278 27.0689C18.0493 28.7436 17.0863 30.3378 16.1082 31.6515C16.0986 31.6643 16.083 31.6649 16.072 31.6588L16.0604 31.6453ZM16.5893 21.7995C16.5789 21.6851 16.7466 21.6775 16.7812 21.7739C17.5367 23.8782 17.3329 26.3682 16.7118 28.4758C16.6954 28.5314 16.617 28.5072 16.6259 28.4525C16.8098 27.3095 16.9021 26.1558 16.8797 24.9985C16.8588 23.9209 16.6861 22.8698 16.5893 21.7995ZM15.0818 19.8835C15.7522 20.6382 16.0371 21.7528 16.2225 22.7179C16.4392 23.8463 16.5367 24.9801 16.4626 26.1278C16.4598 26.1694 16.4009 26.1689 16.3974 26.1278C16.3013 25.0092 16.1531 23.901 15.898 22.806C15.6772 21.8582 15.4634 20.8164 14.9768 19.9633C14.9405 19.8997 15.0304 19.8258 15.0818 19.8835ZM7.77497 4.15127C10.2954 3.43282 13.0893 2.83548 15.7286 2.88867C15.8317 2.89075 15.8612 3.05094 15.7536 3.07116C14.398 3.3253 13.0082 3.4181 11.6445 3.6319C10.3624 3.83284 9.07918 4.02519 7.79864 4.23598C7.74303 4.24511 7.71879 4.16734 7.77497 4.15127ZM11.9173 36.5557C12.5978 37.1485 13.1677 37.9693 13.2089 38.8908C13.2141 39.0058 13.0479 39.018 13.0137 38.9168C12.7295 38.0754 12.4614 37.2926 11.8712 36.6011C11.8442 36.5696 11.8855 36.528 11.9173 36.5557ZM11.4403 35.4462C12.2511 36.0202 13.017 36.6808 13.1846 37.6973C13.2036 37.8124 13.0461 37.8583 13.0061 37.7458C12.6939 36.8653 12.0773 36.1347 11.3885 35.5125C11.3529 35.4805 11.4006 35.418 11.4403 35.4462ZM11.0169 34.4263C11.8039 34.9517 12.873 35.5873 13.168 36.5385C13.2 36.6418 13.0591 36.6853 13.002 36.6075C12.4164 35.8093 11.6545 35.1995 10.967 34.49C10.9357 34.4576 10.977 34.3997 11.0169 34.4263ZM7.5242 4.78879C9.24126 4.25356 11.1846 3.92331 12.9886 3.98967C13.157 3.99589 13.1511 4.22711 12.9886 4.24308C11.1598 4.42267 9.36951 4.59282 7.55608 4.90284C7.48085 4.9157 7.44939 4.81212 7.5242 4.78879ZM11.2827 46.5968C12.0278 46.6988 12.5388 47.1913 12.9453 47.7839C12.9899 47.8489 12.8869 47.9275 12.8349 47.8677C12.4002 47.3693 11.8726 46.9249 11.2589 46.6523C11.2241 46.6369 11.2515 46.5925 11.2827 46.5968ZM12.2353 38.1658C12.6157 38.5903 12.8872 39.0374 12.9422 39.611C12.9503 39.6953 12.8206 39.7059 12.7974 39.6303C12.6462 39.1396 12.478 38.6324 12.1842 38.2046C12.1635 38.1745 12.2109 38.1385 12.2353 38.1658ZM10.2612 45.8926C11.1918 45.9607 12.2432 46.2535 12.8822 46.9678C12.9602 47.0549 12.8595 47.2031 12.7513 47.1349C11.938 46.622 11.2267 46.1316 10.2543 45.9424C10.2259 45.9369 10.2322 45.8906 10.2612 45.8926ZM9.77454 45.2893C10.8885 45.3389 12.0335 45.5455 12.8513 46.3521C12.9371 46.4368 12.8216 46.5953 12.7183 46.5219C11.7885 45.8609 10.8893 45.548 9.76318 45.3722C9.7151 45.3647 9.72688 45.2871 9.77454 45.2893ZM10.1866 44.8763C11.0377 44.9548 11.9613 45.0658 12.6652 45.5852C12.7842 45.673 12.6818 45.8629 12.5458 45.7865C11.793 45.3642 11.0107 45.1597 10.1747 44.9626C10.1265 44.9512 10.136 44.8717 10.1866 44.8763ZM10.4067 44.5189C11.1124 44.4927 11.917 44.5809 12.5103 44.99C12.6068 45.0565 12.5494 45.2391 12.4244 45.1907C11.7448 44.9272 11.1464 44.6434 10.4067 44.5729C10.3719 44.5697 10.3708 44.5203 10.4067 44.5189ZM7.95684 49.546C7.96441 49.5611 7.97209 49.5762 7.97956 49.5913C8.32066 50.2799 8.63956 50.9792 8.86829 51.713C9.11186 52.4948 9.27104 53.3984 9.68684 54.1136C9.73355 54.194 9.78637 54.2707 9.84287 54.3445C9.69589 53.5808 10.3983 52.828 10.9247 52.3029C11.6912 51.5385 10.9294 50.4752 10.3813 49.8256C10.1457 49.5465 9.88243 49.2343 9.55196 49.06C9.05041 48.7955 8.06679 48.7324 7.95684 49.546ZM8.5604 49.5029C8.43425 49.4137 8.50684 49.2099 8.66877 49.2497C9.11539 49.3597 9.5093 49.4816 9.87334 49.7801C10.2258 50.0691 10.3573 50.4591 10.6341 50.7928C10.7911 50.9821 11.1356 51.4174 10.9306 51.6792C10.6186 52.0778 10.232 52.3346 9.99928 52.8102C9.97392 52.8619 9.89575 52.8246 9.90837 52.7725C9.98286 52.4667 10.0879 52.2105 10.2312 51.9301C10.4423 51.5172 10.1209 51.3848 9.87292 51.1138C9.67785 50.9006 9.64271 50.5679 9.47038 50.3305C9.23481 50.0061 8.88855 49.735 8.5604 49.5029ZM7.11625 23.6036C7.83527 21.4701 8.5203 19.2248 10.38 17.7639C10.5245 17.6505 10.7151 17.827 10.5861 17.967C9.07782 19.603 7.93827 21.5401 7.1758 23.6198C7.16244 23.6561 7.10362 23.6411 7.11625 23.6036ZM7.37888 5.53644L7.39102 5.5237C8.03923 5.31187 8.70901 5.17273 9.3729 5.01771C9.5183 4.98381 9.57806 5.21005 9.43392 5.23597C8.7573 5.35791 8.08163 5.49685 7.39607 5.5602L7.38064 5.55307L7.37888 5.53644ZM6.01822 25.4869C6.22223 23.2927 6.98575 21.2121 8.22568 19.384C8.29501 19.2818 8.44431 19.3697 8.39139 19.4795L7.91937 20.4524C7.13348 22.0734 6.3804 23.7023 6.09229 25.4968C6.08566 25.538 6.01433 25.5285 6.01822 25.4869ZM5.75233 43.7211L5.75862 43.6895C5.94464 43.3384 6.2022 43.0346 6.52993 42.802C6.87776 42.555 7.23464 42.4982 7.65118 42.4463C7.7303 42.4364 7.73545 42.5525 7.66896 42.5757C7.32986 42.6938 7.01001 42.9085 6.69995 43.0887C6.384 43.2723 6.10372 43.4997 5.84479 43.755C5.81765 43.7817 5.78183 43.7721 5.76365 43.7485L5.75233 43.7211ZM5.58874 43.2057L5.59092 43.1746C5.81681 42.6163 6.33203 41.974 6.98455 41.9041C7.11165 41.8905 7.12228 42.0562 7.04263 42.115C6.81085 42.286 6.53856 42.4009 6.30604 42.5763C6.069 42.7552 5.86005 42.9749 5.68803 43.2149C5.66865 43.242 5.62896 43.2432 5.60548 43.2271L5.58874 43.2057ZM5.53608 69.1646L5.53662 69.1521C6.01259 68.4508 6.23785 67.6883 6.5356 66.909C6.57401 66.8085 6.75634 66.8129 6.74098 66.9363C6.63587 67.7847 6.12265 68.5435 5.55818 69.1685L5.54609 69.1722L5.53608 69.1646ZM5.74543 69.7416L5.75207 69.7209C6.16387 69.216 6.34904 68.6602 6.53727 68.0511C6.56704 67.9549 6.73538 67.9682 6.72244 68.0758C6.6449 68.7247 6.25204 69.3077 5.79089 69.759C5.77806 69.7716 5.76296 69.7687 5.75377 69.7594L5.74543 69.7416ZM5.72764 70.3597L5.73588 70.3421C6.17408 69.9665 6.26762 69.4188 6.53696 68.9408C6.59325 68.8409 6.7436 68.9102 6.71866 69.0163C6.58915 69.5669 6.23416 70.0621 5.76912 70.3846C5.75639 70.3934 5.74224 70.3878 5.73419 70.3775L5.72764 70.3597ZM5.3167 68.5894L5.31972 68.5698C5.79844 67.7895 6.08472 66.9322 6.43118 66.0921C6.49589 65.9353 6.74597 65.992 6.69568 66.1639C6.43286 67.0626 5.90459 67.8381 5.36412 68.5954C5.35476 68.6085 5.33932 68.6092 5.32839 68.6031L5.3167 68.5894ZM5.80525 70.7429L5.81489 70.7219C5.9524 70.574 6.08339 70.4244 6.20091 70.2602C6.29929 70.1227 6.36525 69.9739 6.44795 69.8279C6.50456 69.728 6.64017 69.8005 6.62334 69.9007C6.55811 70.2913 6.1603 70.5615 5.86276 70.783C5.84035 70.7996 5.81726 70.7855 5.80858 70.7648L5.80525 70.7429ZM4.81409 27.2305C5.01294 25.577 5.36835 23.9366 6.09715 22.4243C6.14997 22.3145 6.33093 22.3923 6.29453 22.5063C5.79204 24.0768 5.24767 25.6288 4.88816 27.2403C4.87911 27.2807 4.80904 27.2723 4.81409 27.2305ZM5.78245 27.3481C5.81276 27.2388 6.00035 27.2573 5.98793 27.3754C5.80392 29.1223 5.65357 30.783 5.85673 32.539C5.86157 32.5808 5.79129 32.5895 5.78266 32.5489C5.42494 30.868 5.31984 29.0204 5.78245 27.3481ZM4.96476 28.698C4.97002 28.6226 5.08396 28.6211 5.0847 28.698C5.09702 29.9106 5.20097 31.1188 5.31953 32.3259L5.4987 34.136L5.57846 35.0412C5.58172 35.0812 5.51575 35.0898 5.50776 35.0507C5.07944 32.9487 4.81557 30.8436 4.96476 28.698Z" stroke="#222222" stroke-width="0.680443" stroke-linecap="round" stroke-linejoin="bevel"/>
</g>
<defs>
<clipPath id="clip0_1_16">
<rect width="75" height="31.4516" fill="white" transform="matrix(0 1 1 0 0.411865 0)"/>
</clipPath>
</defs>
</svg>
