<svg width="110" height="48" viewBox="0 0 110 48" fill="none" xmlns="http://www.w3.org/2000/svg">
<path fill-rule="evenodd" clip-rule="evenodd" d="M77.9281 1.5C76.6583 1.5 75.368 1.51393 74.1203 1.5274C73.309 1.53606 72.4792 1.545 71.6506 1.55018L70.411 1.55464H70.3591C69.9213 1.55464 69.4833 1.55229 69.0451 1.54994C68.6052 1.54775 68.1651 1.5454 67.725 1.5454C66.5488 1.5454 65.1579 1.56027 63.7599 1.6708C62.4009 1.77851 61.0286 1.9371 59.7012 2.09068C58.9975 2.17209 58.2935 2.2535 57.5888 2.32787C55.2212 2.57804 53.1586 2.7288 51.2833 2.78861C51.0165 2.79706 50.749 2.80192 50.4811 2.80677C49.7486 2.82023 48.9912 2.83401 48.2438 2.92372C47.9683 2.9567 47.6968 3.00526 47.4307 3.05819L47.0355 3.13945L46.9006 3.16763C46.3673 3.18642 45.8354 3.28364 45.321 3.37757C44.9916 3.43784 44.6809 3.49467 44.3748 3.53115C43.8061 3.5991 43.2598 3.75424 42.7315 3.90438C42.2852 4.03119 41.8635 4.15095 41.4303 4.22219C39.7365 4.50039 38.0861 5.18532 36.4899 5.84755C36.0346 6.03651 35.5636 6.23205 35.1084 6.41021C34.0753 6.8149 33.0544 7.28019 32.067 7.73013C31.0674 8.18555 30.0338 8.65646 28.9982 9.05897C27.9969 9.44817 26.9152 9.84237 25.7885 10.0921C25.231 10.143 24.5681 9.91314 23.9204 9.6938C23.4853 9.54664 23.0355 9.39416 22.6128 9.32292C21.6158 9.15431 20.8047 9.05083 20.0605 8.99697C18.3406 8.87282 16.6352 8.85592 15.1935 8.85592L14.583 8.85694L13.9725 8.85936L13.843 8.85967C13.3304 8.85967 12.8109 8.84668 12.261 8.83275C11.7053 8.81897 11.1304 8.80441 10.5574 8.80441C8.5782 8.80441 6.30003 8.96551 4.40817 10.1592C4.28829 10.2349 4.19942 10.3399 4.14912 10.4628C3.91362 10.7783 3.76759 11.2121 3.66512 11.5733L3.5957 11.8277L3.58475 11.8696C3.39174 12.5905 3.21014 13.3262 3.03456 14.0376C2.9332 14.4489 2.83183 14.86 2.728 15.2702C2.17751 17.4399 1.64877 19.7703 1.50713 22.1108C1.42459 23.4759 1.41209 24.8595 1.40006 26.1977C1.39003 27.322 1.37955 28.4845 1.32725 29.623C1.297 30.2808 1.25179 30.9559 1.20828 31.6089C1.13762 32.6636 1.0648 33.7545 1.04937 34.8322C0.99398 35.8713 0.998146 36.9481 1.00216 37.9892C1.00401 38.4753 1.00586 38.9597 1.00169 39.4404C0.98642 41.2269 1.22942 42.9794 1.52457 44.921C1.56391 45.1802 1.73965 45.3822 1.98481 45.46C2.49055 45.7609 3.01358 45.7996 3.41396 45.7996C3.63489 45.7996 3.85536 45.7856 4.06812 45.7722C4.37067 45.7529 4.6504 45.7341 4.92471 45.7559C5.7233 45.8187 6.5347 45.956 7.3194 46.0887C8.08496 46.2184 8.8769 46.3522 9.67255 46.4212C10.2828 46.4742 10.9107 46.5 11.5923 46.5C13.3089 46.5 15.0517 46.3308 16.737 46.1672C17.6169 46.0817 18.5269 45.9934 19.4109 45.9319C19.4702 45.9278 19.5218 45.9164 19.5647 45.9034C19.6676 45.8905 19.7647 45.8505 19.8485 45.7853C20.4864 45.2901 20.7842 44.4685 21.0467 43.7438C21.1175 43.5479 21.1859 43.3594 21.2575 43.1847L21.3683 42.934L21.5089 42.6429C21.9415 41.7487 22.3872 40.8275 22.6822 39.8718C23.1218 39.9259 23.4995 39.9766 23.8506 40.0288C25.2362 40.2349 26.4746 40.6538 27.7444 41.1227L28.3828 41.3606L28.7946 41.5145C32.3478 42.8377 35.6126 43.6059 38.7756 43.8628C40.0693 43.968 41.4752 44.0191 43.0728 44.0191C44.753 44.0191 46.4574 43.9632 48.1059 43.909C48.7693 43.8871 49.4311 43.8653 50.0905 43.8472C50.6491 43.8318 51.2138 43.8248 51.7819 43.8177C54.4727 43.7845 57.2547 43.7504 59.8333 42.8194C59.9857 42.8266 60.1453 42.8305 60.3088 42.8305C60.9712 42.8305 61.6414 42.7713 62.2894 42.7142C62.8334 42.6661 63.347 42.6209 63.8469 42.609C64.5426 42.5935 65.2776 42.626 65.9907 42.6583C66.5893 42.6855 67.2085 42.7135 67.8171 42.7135C68.5514 42.7135 69.1823 42.6713 69.7462 42.5845C71.5606 42.3049 72.8009 41.5214 73.527 40.194L73.6747 39.9012L73.7701 39.6989C74.1078 38.9869 74.5923 37.9654 74.4665 37.0866C75.7283 36.5744 77.0365 35.6249 78.0322 34.4872C79.0999 33.2673 79.3754 31.084 79.1179 29.4668C79.863 29.213 80.6338 28.8701 81.145 28.3148C82.0946 27.2822 82.4524 25.989 82.6579 24.9778C82.7262 24.6419 82.8071 24.3056 82.8925 23.9496C83.1109 23.041 83.3355 22.106 83.348 21.1592L83.3357 20.6848L83.3326 20.6388C83.2945 20.073 83.2514 19.4317 82.9058 18.8761C82.6725 18.5013 82.4021 18.2037 82.1406 17.9158C82.0677 17.8359 81.9974 17.7583 81.9286 17.6803C82.1563 17.0657 82.1921 16.4468 82.0346 15.8374C81.4822 13.7012 79.3707 13.0867 77.674 12.5929C77.5066 12.5441 77.3413 12.496 77.18 12.4473C76.5121 12.2457 75.8617 12.0036 75.2532 11.752C75.6121 11.7486 75.9349 11.732 76.2362 11.7013C76.6333 11.6609 77.0368 11.634 77.4271 11.608C78.3295 11.5479 79.261 11.4859 80.1791 11.2518C80.276 11.2838 80.3819 11.2929 80.4835 11.276C81.1223 11.4068 81.7714 11.4256 82.38 11.4256C82.5428 11.4256 82.7056 11.4242 82.8679 11.4226C83.173 11.42 83.4764 11.417 83.7744 11.4247C84.4905 11.4427 85.2201 11.4898 85.9258 11.5355C86.5092 11.5732 87.1123 11.6122 87.7095 11.6349C88.0495 11.6479 88.3956 11.6542 88.7676 11.6542C89.4849 11.6542 90.2075 11.6298 90.9211 11.5978L91.9832 11.5462L92.1714 11.5368C92.4675 11.5219 92.7628 11.5108 93.0577 11.4998C93.863 11.4698 94.6948 11.4388 95.5213 11.3265C95.8476 11.4349 96.158 11.4636 96.4736 11.4724L96.7918 11.4768L96.9646 11.4784C97.4776 11.4848 98.0024 11.5075 98.51 11.5294C98.9012 11.5463 99.2925 11.5632 99.6838 11.5734C100.505 11.5947 101.435 11.6191 102.358 11.6191C103.235 11.6191 104.008 11.5969 104.722 11.5513C105.749 11.4856 106.917 11.2893 107.796 10.3305C108.649 9.39995 109.159 7.70805 108.955 6.47846C108.697 4.91134 108.041 4.1425 106.616 3.73577C105.608 3.44786 104.591 3.35503 103.607 3.26516C102.896 3.20019 102.16 3.13287 101.444 2.99166C99.4469 2.59761 96.4442 2.07378 93.436 2.07378C92.918 2.07378 92.4058 2.08912 91.913 2.11933C91.3221 2.08207 90.8017 2.06391 90.3228 2.06391C90.1852 2.06391 90.0471 2.06532 89.909 2.06845C88.5667 2.09945 87.1957 1.96372 85.8678 1.83268C85.0354 1.75065 84.1748 1.66579 83.323 1.62133C81.7394 1.53867 80.0251 1.5 77.9281 1.5ZM15.1843 9.96167C17.2025 9.96918 19.2273 9.99329 21.2349 10.2258C22.2624 10.3448 23.3017 10.4894 24.3129 10.7139C24.3689 10.7264 24.4235 10.7385 24.4781 10.7506C24.0325 10.8086 23.5863 10.8617 23.1422 10.9326C22.7373 10.93 22.3417 11.001 22.0234 11.259C21.393 11.77 20.9738 12.4891 20.644 13.2274C20.616 13.29 20.5904 13.3536 20.563 13.4164C20.5221 13.4599 20.4963 13.5149 20.4958 13.5729C19.7264 15.3642 19.1671 17.223 18.915 19.1676C18.6362 21.3177 18.3447 23.4712 18.1657 25.6335C18.1651 25.6382 18.1649 25.6431 18.1644 25.6477C18.1254 26.1205 18.0899 26.5935 18.0632 27.0672C17.9916 28.3382 17.8765 29.6388 17.9244 30.9119C17.9426 31.3998 17.9415 31.9117 17.9651 32.4197C17.8934 34.1503 17.9278 35.8902 18.0433 37.6022C18.2124 40.1046 18.7254 42.4717 19.1741 44.9171C16.1493 44.7146 13.1434 45.6238 10.107 45.3628C8.64254 45.2369 7.21031 44.8933 5.74984 44.7417C4.68558 44.6314 3.51594 44.8801 2.48284 44.583C2.16331 41.9345 2.01952 39.2742 1.91723 36.6101C2.21547 32.065 2.20945 27.5043 2.45306 22.9583C2.58097 20.5686 3.03996 18.2425 3.62656 15.9294C3.88437 14.9126 4.16286 13.9036 4.37963 12.8769C4.47452 12.4266 4.53916 11.316 4.85961 10.8977C8.0487 9.45098 11.7855 9.9493 15.1843 9.96167ZM3.0683 26.9328C2.78488 29.7965 2.80031 32.7159 2.71313 35.5917C2.63383 38.2093 2.38853 40.9277 2.91233 43.5135C2.88116 43.6983 2.95938 43.8968 3.19173 43.9557C3.78604 44.1065 4.36677 44.1368 4.95797 44.1418L5.85563 44.1424C6.86682 44.1484 7.86459 44.3031 8.87331 44.3538C8.95045 44.3575 9.02775 44.3596 9.10489 44.363C10.1502 44.5398 11.201 44.6758 12.2472 44.6483C14.128 44.5986 16.0223 43.767 17.8939 44.1153C18.0771 44.1495 18.2892 44.0328 18.2781 43.8185C18.2395 43.0763 17.9661 42.4069 17.8162 41.6854C17.7254 41.2491 17.6593 40.8117 17.6117 40.3723C17.6184 39.5244 17.5661 38.6783 17.3879 37.8746C17.3775 37.8278 17.3112 37.8412 17.3089 37.8855C17.2838 38.358 17.2276 38.8368 17.1671 39.318L17.0794 40.0272L17.0281 39.5267C16.9885 39.1848 16.9324 38.8454 16.8533 38.5114L16.7164 38.0148C16.689 37.9286 16.5577 37.9419 16.5583 38.0365C16.5634 38.663 16.6067 39.2891 16.5933 39.9157C16.1496 38.6403 14.8671 37.4314 13.5466 37.8213C12.5541 37.9331 11.6198 38.6434 11.043 39.7708C10.8952 40.0596 10.7985 40.3552 10.7397 40.65C10.6731 40.7647 10.6197 40.8847 10.5799 41.0096C10.5779 40.526 10.5908 40.0416 10.632 39.5538C10.6402 39.4561 10.4839 39.4357 10.4641 39.5308C10.2682 40.4753 10.1261 41.4439 10.1315 42.4116C9.97166 42.6539 9.79192 42.8039 9.59552 42.8864C9.35206 42.9498 9.09595 42.9424 8.83736 42.8695C8.5524 42.7206 8.28486 42.5307 8.04402 42.2952C7.62096 41.8813 7.36038 41.4206 7.17139 40.9229C6.90031 38.5911 6.77688 36.2539 6.7636 33.8971C6.7633 33.8386 6.66841 33.8217 6.65993 33.8829C6.34349 36.1359 6.26884 38.4135 6.40614 40.6808L6.47745 41.6364L6.2932 40.382C5.91764 37.4096 5.90744 34.3752 5.80025 31.3919C5.79701 31.3013 5.67419 31.3055 5.66447 31.3919C5.43057 33.5017 5.39894 35.6296 5.35143 37.7509C5.34062 38.2329 5.3325 38.7178 5.33601 39.2031L5.35245 39.9156L5.22815 38.5554C5.0209 35.8032 5.03263 33.0423 5.02589 30.2666C5.02558 30.149 4.86172 30.1548 4.84985 30.2666C4.66964 31.967 4.50771 33.6835 4.43394 35.4013L4.39664 36.6738L4.33185 35.918C4.31274 35.6601 4.29612 35.4015 4.28239 35.1421C4.15541 32.738 4.32003 30.2967 4.08058 27.9026C4.07272 27.8234 3.96871 27.8243 3.95992 27.9026C3.67742 30.4144 3.57005 33.0165 3.56248 35.5444C3.56105 36.0189 3.57092 36.4961 3.59238 36.9741L3.63345 37.6872L3.47266 36.9557C3.37751 36.4627 3.30607 35.9653 3.25731 35.4675C3.32581 32.6179 3.44877 29.7644 3.27443 26.9328C3.26594 26.7964 3.08141 26.7998 3.0683 26.9328ZM21.0695 39.2455L21.4793 39.2927C21.4106 39.5292 21.3373 39.7619 21.2394 39.99C21.2136 40.0499 21.2881 40.0956 21.3262 40.0415C21.4859 39.8145 21.6317 39.576 21.7497 39.324C21.8727 39.3381 21.9955 39.352 22.1185 39.3664C21.5155 40.3483 21.0463 41.4478 20.529 42.4737C20.2993 42.9294 20.1122 43.425 19.9145 43.912L19.6032 44.6301L19.5496 44.3204L19.5518 44.3173C20.0382 43.0368 20.5954 41.7792 21.0545 40.4895C21.0712 40.4427 21.0021 40.417 20.978 40.4566C20.3599 41.4744 19.8716 42.6041 19.4378 43.7252C19.4135 43.6076 19.3904 43.4899 19.3649 43.3723C19.3674 43.3654 19.3719 43.3614 19.3737 43.3539C19.5684 42.5894 20.0037 41.8187 20.2802 41.0733C20.5114 40.4498 20.8347 39.8624 21.0695 39.2455ZM13.6634 38.2456C14.2296 38.2572 14.7274 38.4197 15.1878 38.6851C15.8381 39.2668 16.2525 40.186 16.231 41.0037C16.1977 42.2771 15.0173 43.5973 13.7018 43.6973L13.5118 43.7033C13.2603 43.6995 13.0055 43.6502 12.7548 43.5456C11.2894 42.9345 10.7366 41.1399 11.642 39.7531C12.1074 39.0403 12.6996 38.2257 13.6634 38.2456ZM29.6476 31.6682C31.0058 31.7398 32.3664 31.786 33.726 31.7517C33.8016 31.7497 33.877 31.7468 33.9525 31.7445C35.1664 31.7881 36.3793 31.7834 37.5917 31.7633L41.2272 31.6898L43.0441 31.6801C42.78 31.7146 42.5169 31.7456 42.256 31.7684C39.7803 31.9857 37.2993 32.1268 34.8253 32.3652C34.7171 32.3757 34.7133 32.5352 34.8253 32.5387C37.2144 32.6106 39.6321 32.705 42.0233 32.6242C39.972 32.8609 37.9107 32.9388 35.8629 33.1884C35.7837 33.1979 35.7478 33.3285 35.8422 33.3437C37.6925 33.6391 39.651 33.6171 41.5444 33.5057C40.1088 33.6222 38.6645 33.718 37.2402 33.9287C37.1669 33.9396 37.1953 34.0413 37.2562 34.049C38.9112 34.2561 40.6315 34.2934 42.298 34.2362C42.775 34.2199 43.2704 34.217 43.7706 34.2088C43.6919 34.2214 43.6133 34.2337 43.5352 34.2451C41.8225 34.4953 40.0977 34.6101 38.3682 34.6265C38.2993 34.6271 38.2799 34.7389 38.3515 34.7518C41.0203 35.2269 43.8334 35.2086 46.5541 34.9265C44.3046 35.1896 42.0486 35.4043 39.7945 35.6139C39.7092 35.6219 39.7117 35.736 39.7945 35.7465C42.0315 36.0329 44.2568 36.0861 46.4891 35.9485C44.5957 36.188 42.7028 36.4142 40.7958 36.5844C40.682 36.5946 40.6831 36.7513 40.7958 36.7629C42.887 36.9783 45.0318 37.0301 47.1484 36.8833C46.8235 36.9346 46.4982 36.9821 46.1722 37.0146C44.6815 37.1633 43.1738 37.1588 41.6895 37.3609C41.6035 37.3725 41.5625 37.5134 41.6668 37.5312C43.1641 37.7863 44.7053 37.7621 46.2263 37.7331L46.9849 37.7194L47.2871 37.7111C45.6993 37.9411 44.1108 38.1664 42.5115 38.3306C42.4442 38.3375 42.4157 38.4493 42.4942 38.4609C44.6301 38.776 46.8315 38.72 48.9986 38.4876C48.6592 38.5619 48.3191 38.6325 47.9775 38.6941C46.5272 38.9557 45.0851 39.096 43.6176 39.1934C43.5511 39.1978 43.527 39.3075 43.6009 39.3186C46.2509 39.719 49.185 39.4641 51.8453 38.9074C48.6757 39.6621 45.4931 40.1559 42.1972 39.9828C42.0992 39.9776 42.075 40.1438 42.1738 40.1581C45.7364 40.6763 49.4636 40.7422 52.9833 39.8372C52.9884 39.8425 52.9924 39.8483 52.998 39.8533C51.4835 40.2702 49.9495 40.7381 48.4208 40.8643C46.4603 41.0262 44.4421 40.8034 42.5005 41.1447C42.4601 41.1518 42.464 41.2136 42.5005 41.2233C44.451 41.7418 46.7868 41.7393 48.7872 41.5651C49.2285 41.5265 49.6704 41.4761 50.1122 41.4195C50.0493 41.4325 49.9866 41.4475 49.9237 41.4603C48.0693 41.8359 46.2119 42.0319 44.3345 42.2343C44.2676 42.2415 44.2384 42.3535 44.3173 42.3646C46.7121 42.7038 49.2218 42.5045 51.6276 42.1438C51.3689 42.2528 51.104 42.3497 50.8272 42.4252C49.6492 42.7458 48.439 42.8765 47.23 43.0148C44.2953 43.1056 41.327 43.2198 38.4225 42.9158C34.9756 42.555 31.5865 41.6989 28.3762 40.3691C26.8058 39.7188 25.336 39.3085 23.6536 39.0692C22.2382 38.8681 20.0456 38.6719 18.6492 38.3347C18.6301 38.1044 18.6163 37.8733 18.6008 37.6426C20.006 38.1753 21.6218 38.2885 23.0852 38.5689C24.6022 38.8596 26.1157 39.1755 27.6564 39.2997C27.7214 39.305 27.728 39.2083 27.6712 39.1895C26.2151 38.7089 24.7109 38.4127 23.2141 38.095C22.9276 38.0343 22.633 37.9787 22.336 37.9236C21.858 37.7789 21.3898 37.6017 20.9539 37.3819C21.3046 37.4417 21.6601 37.4876 22.0208 37.5236C23.5078 37.6721 24.9723 37.8844 26.4254 38.2428C26.5132 38.2644 26.5781 38.1291 26.4892 38.0889C25.3012 37.5513 24.035 37.3738 22.7765 37.0799C21.8796 36.8704 21.0084 36.5883 20.166 36.2279C20.0477 36.0972 19.9313 35.9637 19.8204 35.8253C21.3861 36.6286 23.5931 36.7942 24.9586 36.9697C25.0337 36.9794 25.0443 36.8595 24.976 36.8394C23.8397 36.5055 22.6367 36.1617 21.5512 35.6526C21.2224 35.4647 20.9054 35.2596 20.6193 35.0149L20.3442 34.7563L20.7154 34.9942C22.1151 35.8212 23.8952 36.1272 25.4685 36.1489C25.5589 36.1501 25.5641 36.0282 25.4885 35.9986C24.1654 35.4791 22.592 35.0589 21.4101 34.1688C22.6987 34.8242 24.1842 35.1535 25.4643 35.1649C25.5311 35.1655 25.5412 35.0691 25.4797 35.0497C24.1699 34.6351 23.0231 34.2552 21.9091 33.4475C23.1891 34.051 24.6173 34.3768 25.8713 34.4282C25.9952 34.4332 26.0157 34.2458 25.9 34.2127C24.8197 33.9035 23.7345 33.5129 22.7535 32.9822C23.8648 33.3254 25.0289 33.5732 26.1717 33.6087C26.2404 33.6109 26.2532 33.5062 26.1878 33.4885C25.2247 33.2299 24.2302 32.9434 23.2835 32.5615C24.8524 33.0292 26.588 33.2895 28.1114 33.0253C28.175 33.0143 28.1514 32.9263 28.0974 32.9201C26.8154 32.7706 25.4017 32.5035 24.0832 32.0717C25.7082 32.4192 27.414 32.5562 29.0323 32.379C29.1104 32.3704 29.1425 32.2463 29.0524 32.2287C28.6 32.1403 28.1484 32.0546 27.6974 31.9676C28.3438 31.8452 28.9916 31.7493 29.6476 31.6682ZM56.9193 34.1533C58.4983 35.429 60.1832 36.359 61.9787 37.2844C62.5814 37.5951 63.2646 38.1063 63.9784 38.0953C65.0261 38.0793 66.0844 37.9228 67.1255 37.8058C69.08 37.5862 71.0519 37.4331 72.9817 37.0419C73.1744 37.0174 73.3686 36.9821 73.5635 36.9318C73.8637 37.762 72.8703 39.5796 72.4662 40.1789C71.5575 41.5273 69.5976 41.7808 68.1192 41.736C66.6898 41.6926 65.2671 41.6671 63.8369 41.7135C62.4844 41.7573 61.0873 41.9787 59.7369 41.9123C58.0633 41.8303 57.0947 40.686 55.818 39.7606C54.7828 39.0101 53.8063 38.1702 52.7806 37.4021C53.1706 37.4688 53.5519 37.4705 53.8618 37.3993C54.0496 37.3561 54.2241 37.2955 54.3824 37.2166C54.8914 37.0545 55.2732 36.5213 55.2553 35.9547C55.227 35.0572 54.6751 34.3114 53.9873 33.7861C53.9566 33.7626 53.9189 33.8069 53.9368 33.8372C54.1357 34.1744 54.4083 34.5878 54.6129 35.0134C54.5501 34.9327 54.4873 34.8541 54.4284 34.7777C53.9725 34.1864 53.4027 33.3183 52.691 32.911C52.919 32.9772 53.1578 33.0716 53.4226 33.1554C53.4329 33.1587 53.4405 33.1468 53.4359 33.138C53.0383 32.3823 51.7779 32.2834 51.1543 32.7785C50.4762 33.3171 50.0386 33.8567 49.8987 34.5631C49.8566 34.4358 49.8356 34.3012 49.8467 34.1575C49.9129 33.2949 50.7559 32.5374 51.6718 32.1074C53.5667 31.6358 55.459 32.9731 56.9193 34.1533ZM19.8607 39.075C20.0881 39.1131 20.3089 39.1472 20.5034 39.1746C20.4317 39.5544 20.3411 39.9276 20.2561 40.3032C20.1095 40.6022 19.9617 40.9 19.8192 41.1962C19.7099 41.4234 19.5849 41.6543 19.462 41.8887C19.64 41.0862 19.994 40.3456 20.1703 39.542C20.1907 39.4491 20.0628 39.4151 20.0314 39.5032C19.8963 39.8815 19.6903 40.2242 19.4816 40.5647C19.5397 40.3095 19.5933 40.0529 19.6619 39.8005C19.7176 39.5957 19.7858 39.393 19.8358 39.1867C19.8343 39.1932 19.8463 39.1395 19.8607 39.075ZM62.5957 39.7915L62.5671 39.8011C62.1331 40.2857 61.6612 40.7368 61.1463 41.1317C60.9579 41.2762 61.1591 41.5415 61.3444 41.3922C61.8744 40.9648 62.3037 40.4493 62.6185 39.8414L62.6183 39.8101L62.5957 39.7915ZM62.8237 38.282C62.0345 39.3519 61.0366 40.1314 60.1336 41.0811C59.9909 41.2314 60.1729 41.4745 60.353 41.3696C61.4745 40.7163 62.3189 39.47 62.9367 38.349C62.9788 38.2723 62.8729 38.2152 62.8237 38.282ZM70.1509 39.6431L70.1196 39.6572C69.5434 40.1757 69.0024 40.6533 68.281 40.9486C68.098 41.0234 68.1633 41.2986 68.3639 41.2535C69.1658 41.0733 69.7441 40.3634 70.2104 39.7282C70.2352 39.6945 70.2143 39.6606 70.1835 39.6479L70.1509 39.6431ZM68.6835 40.1606L68.6551 40.1657C68.2282 40.452 67.765 40.6529 67.2764 40.8041C67.0561 40.8722 67.1842 41.1992 67.4003 41.1025C67.8821 40.8869 68.3101 40.5829 68.7037 40.2297C68.7208 40.2144 68.7182 40.192 68.7065 40.1766L68.6835 40.1606ZM71.4545 39.0169C70.8896 39.7737 70.1628 40.2741 69.4625 40.8837C69.3344 40.9951 69.4973 41.1653 69.63 41.104C70.4746 40.714 71.1008 39.8714 71.5543 39.0761C71.5927 39.0088 71.4981 38.9584 71.4545 39.0169ZM72.9451 37.8507C72.3358 38.9885 71.4678 39.8208 70.6405 40.7819C70.5245 40.9168 70.6728 41.1394 70.8355 41.0381C71.9331 40.3551 72.6268 39.0931 73.0599 37.8998C73.0849 37.8313 72.9786 37.788 72.9451 37.8507ZM55.5451 36.7005L55.5135 36.7174C55.3088 36.9802 55.0567 37.2331 54.7782 37.4151C54.5211 37.5831 54.2109 37.686 53.9739 37.8729C53.8543 37.9671 53.956 38.1754 54.0949 38.1689C54.4377 38.153 54.8149 37.8687 55.05 37.6276C55.2963 37.3749 55.4719 37.1 55.6059 36.7718C55.6164 36.7463 55.6017 36.7219 55.5802 36.7093L55.5451 36.7005ZM55.4044 26.3551C56.5753 26.6611 57.6991 27.1889 58.8251 27.6319C61.143 28.5439 63.3499 29.6095 65.6082 30.6533C67.451 31.5048 69.4705 31.7517 71.4533 31.3468C73.4581 30.9373 75.6448 30.3623 77.5455 29.4909C77.6093 29.4724 77.6741 29.4558 77.7377 29.4364C77.9114 29.3833 78.0993 29.3287 78.2945 29.2706C78.5796 31.4138 77.9252 33.6599 76.1405 34.8989C75.4001 35.4129 74.4411 36.2666 73.5451 36.4581C72.7027 36.6383 71.8357 36.629 70.9803 36.6796C69.2259 36.7832 67.4867 36.9786 65.728 37.0328C64.6907 37.0647 63.6968 37.373 62.7356 36.8228C62.1481 36.4867 61.5306 36.2165 60.9365 35.8948C59.4872 35.1098 58.1721 34.0657 56.7468 33.2299C56.4557 33.0592 56.1625 32.8913 55.8703 32.7219C55.665 32.591 55.4579 32.4673 55.2495 32.3532C55.9404 32.3998 56.6188 32.2104 56.9488 31.5882C57.1546 31.2001 57.2299 30.8686 57.2142 30.5741C57.2308 30.555 57.2419 30.5293 57.2418 30.4961C57.2382 29.8013 56.7447 28.8311 56.0627 28.5896C56.0046 28.5689 55.9507 28.6434 55.9831 28.6945C56.1283 28.923 56.3256 29.1067 56.4833 29.326C56.2418 29.1133 55.9627 28.9099 55.6752 28.6995C55.2009 28.3526 54.7261 27.972 54.2384 27.6853C54.6601 27.8026 55.0821 27.9687 55.4857 28.1547C55.5445 28.1818 55.6053 28.1126 55.5568 28.0612C54.8959 27.3606 53.6232 26.723 52.6479 26.9731C51.8822 27.1695 51.3609 27.4032 50.9778 27.8763C51.1375 27.4245 51.4031 27.0319 51.781 26.8227C52.2857 26.5434 52.7752 26.3397 53.2934 26.2153C54.0095 26.1802 54.7271 26.178 55.4044 26.3551ZM52.4805 33.2623C53.1276 33.6848 53.5721 34.3248 54.0402 34.9295C54.3367 35.3124 54.9006 35.8314 54.676 36.3784C54.4538 36.9197 53.8359 37.0693 53.3203 37.0303C52.8519 36.9949 52.3819 36.8894 51.96 36.6918C51.6347 36.3756 51.3215 36.0491 50.9639 35.759C50.8311 35.6512 50.6811 35.5338 50.5347 35.4057C50.1699 34.3297 51.3021 32.4928 52.4805 33.2623ZM10.422 24.0909C9.55121 28.0923 9.13031 32.659 9.78417 36.7216C9.81704 36.9258 10.1275 36.8692 10.1298 36.6742C10.1543 34.5748 9.99308 32.4797 10.0713 30.3775C10.1495 28.2794 10.3703 26.2006 10.6047 24.1159C10.6167 24.0096 10.4444 23.9882 10.422 24.0909ZM67.2118 32.8309C66.4417 34.184 65.6268 35.3179 64.3863 36.258C64.1893 36.4072 64.3527 36.6843 64.5766 36.5884C66.0343 35.9628 66.8401 34.311 67.3588 32.8938C67.3912 32.8054 67.2564 32.7526 67.2118 32.8309ZM51.6101 33.8099C51.2511 34.0305 50.891 34.2697 50.7899 34.7046C50.7029 35.0788 50.9527 35.4724 51.2122 35.7044C51.4028 35.8747 51.6407 35.9552 51.8502 36.0937C52.0467 36.2238 52.2649 36.4641 52.5025 36.518C52.9941 36.6291 53.4901 36.6182 53.9773 36.4898C54.245 36.4192 54.1534 36.0707 53.9171 36.0388C53.5768 35.9929 53.0092 36.0176 52.7632 35.7175C52.5881 35.5041 52.4028 35.3604 52.1501 35.2515C51.913 35.1491 51.5421 35.0484 51.3759 34.8394C51.1954 34.6124 51.6242 34.1156 51.7237 33.9251C51.7613 33.8526 51.684 33.7645 51.6101 33.8099ZM67.7779 34.6258C67.5332 35.2003 67.2197 35.7085 66.8395 36.1993C66.703 36.3756 66.9338 36.627 67.0884 36.4518C67.5252 35.9567 67.805 35.3347 67.9066 34.6809C67.9178 34.6079 67.8121 34.5455 67.7779 34.6258ZM67.6242 33.6227L67.5938 33.6487C67.1586 34.5056 66.5926 35.2396 66.084 36.0454C65.9687 36.2281 66.2295 36.4258 66.376 36.2741C67.0379 35.5892 67.4486 34.6049 67.6949 33.692C67.703 33.6618 67.685 33.6366 67.6613 33.6261L67.6242 33.6227ZM74.3305 34.0849L74.298 34.1083C73.7152 34.8831 72.9924 35.378 72.1857 35.8809C72.0016 35.9956 72.1624 36.2658 72.3532 36.1716C73.2035 35.7519 73.8951 34.963 74.4021 34.1702C74.4281 34.1294 74.4019 34.0934 74.3669 34.0843L74.3305 34.0849ZM75.9554 32.8008C75.1898 33.8549 74.4082 34.8561 73.4846 35.771C73.41 35.8449 73.5053 35.9661 73.5943 35.9152C74.7578 35.2501 75.4379 34.0091 76.0509 32.8575C76.0856 32.7924 75.9969 32.7437 75.9554 32.8008ZM11.3914 21.6706C10.7705 26.2511 10.326 30.8996 10.5537 35.528C10.5665 35.7879 10.9369 35.7874 10.9508 35.528C11.0002 34.6062 11.0422 33.6843 11.0805 32.7622L11.298 27.2296C11.3766 25.3857 11.4715 23.5426 11.6136 21.7012C11.6235 21.5729 11.4087 21.5426 11.3914 21.6706ZM77.6486 31.4879L77.6149 31.5133C76.7489 32.9525 75.7081 34.1598 74.6113 35.4142C74.5065 35.5341 74.6445 35.7461 74.788 35.6465C76.1691 34.6887 77.1743 33.1422 77.7206 31.5585C77.7317 31.5262 77.7136 31.5011 77.6886 31.4909L77.6486 31.4879ZM57.6151 30.921C57.539 31.644 57.0988 32.0649 56.6296 32.5531C56.4951 32.693 56.665 32.9053 56.8307 32.8175C57.4872 32.4693 57.7282 31.617 57.7257 30.921C57.7254 30.8471 57.6225 30.8505 57.6151 30.921ZM17.534 14.921C15.7581 20.303 14.6039 26.3675 15.6602 32.0312C15.694 32.2122 15.962 32.1616 15.9665 31.9893C16.0393 29.1132 15.946 26.2477 16.2291 23.3776C16.5087 20.5427 16.9411 17.7141 17.6748 14.9602C17.6994 14.8674 17.5637 14.8311 17.534 14.921ZM53.2107 27.6063C54.0067 27.8553 54.5569 28.3391 55.2189 28.8255C55.956 29.367 57.8085 30.5251 56.4776 31.5879C55.7992 32.1298 54.8687 32.0299 54.1055 31.7384C53.669 31.5106 53.2277 31.2925 52.7781 31.0921C52.2307 30.8482 51.3237 30.5254 51.0099 29.9477C50.8565 29.0035 51.5181 27.8027 52.4672 27.5784C52.4913 27.5728 52.5157 27.5684 52.5399 27.5635C52.7522 27.5252 52.9773 27.5333 53.2107 27.6063ZM52.1678 28.1121C51.7045 28.4766 51.2086 28.8564 51.2399 29.4954C51.2652 30.0078 51.8907 30.3474 52.2881 30.5243C53.3561 30.9996 55.2484 32.166 56.1948 30.9971C56.2949 30.8736 56.2297 30.7059 56.0705 30.6925C55.1326 30.6122 54.4773 30.1215 53.6222 29.791C53.2277 29.6385 52.8314 29.4967 52.4333 29.3547C51.7946 29.1269 52.0308 28.695 52.302 28.2172C52.354 28.1254 52.2405 28.055 52.1678 28.1121ZM83.7224 2.54986C85.9253 2.69561 88.1018 2.9461 90.3103 2.91057C90.7605 2.90336 91.2096 2.9126 91.6584 2.92841C94.4867 3.19565 97.3342 3.09405 100.134 3.67299C101.392 3.93319 102.657 4.17788 103.941 4.25052C104.983 4.30939 107.191 4.40536 107.679 5.54539C108.265 6.91479 108.034 9.30085 106.549 10.0758C105.64 10.5503 104.628 10.5137 103.634 10.5358C102.183 10.568 100.735 10.5603 99.2851 10.5099C98.2151 10.4727 96.9185 10.6215 95.8496 10.3825C95.9231 10.2197 95.9726 10.0381 96.0102 9.85036C96.0403 9.85912 96.0724 9.86257 96.1073 9.85224C97.3277 9.48746 98.4847 8.74962 99.5026 7.99189C99.554 7.95369 99.51 7.8715 99.452 7.90375C98.5766 8.39095 97.6695 8.76112 96.7584 9.14476L96.0747 9.43705L96.0968 9.23541C96.8897 9.10202 97.7047 8.4805 98.3222 7.99925C98.3748 7.95823 98.3307 7.8729 98.269 7.90672C97.8637 8.12856 97.4466 8.33944 97.0169 8.50899C96.7304 8.62202 96.4169 8.70218 96.1349 8.83322C96.1414 8.76825 96.148 8.70468 96.1556 8.64394C96.1566 8.63517 96.1571 8.62656 96.1582 8.6178C96.6462 8.42868 97.0833 8.10069 97.4762 7.75784C97.4948 7.74171 97.4752 7.7057 97.4517 7.71525C97.1746 7.82902 96.89 7.9352 96.6107 8.05202L96.1975 8.23752L96.2086 8.12981C96.3563 8.04339 96.4905 7.93568 96.6411 7.8524C96.6848 7.82829 96.6544 7.76206 96.6082 7.77318C96.4854 7.80277 96.3551 7.83486 96.2341 7.88324C96.2984 7.11533 96.3171 6.34899 96.2961 5.57326C96.2935 5.48089 96.1596 5.48152 96.1553 5.57326C96.086 7.07713 96.0198 8.90022 95.4593 10.3286C95.4101 10.3446 95.367 10.3733 95.3346 10.414C92.8036 10.3967 90.2646 10.829 87.7257 10.6821C85.4819 10.5525 83.2448 10.4719 81.0004 10.4284C81.4069 10.0872 82.1288 10.1167 82.6216 10.047C82.6864 10.0378 82.7591 10.0255 82.8367 10.0118C85.2878 10.1834 87.767 10.2965 90.2052 10.2522C91.5717 10.2273 92.9418 10.2277 94.3066 10.1503C94.9483 10.114 95.4298 9.82108 95.3548 9.14304C95.3508 9.10609 95.3005 9.08324 95.28 9.12253C95.0634 9.53333 94.5087 9.7046 93.8697 9.76707C94.2535 9.58343 94.6098 9.32605 94.9413 8.97913C94.979 8.93967 94.9316 8.88629 94.8864 8.90711C94.3558 9.15102 93.7826 9.37599 93.2007 9.54476C93.4747 9.35235 93.7203 9.1241 93.9195 8.86562C93.9505 8.82539 93.9129 8.76872 93.8647 8.79361C93.2454 9.11157 92.6519 9.34374 92.0281 9.52096C92.3526 9.29474 92.6476 9.01811 92.9063 8.70688C92.9551 8.64848 92.8918 8.54703 92.8211 8.59478C92.2376 8.98962 91.61 9.24778 90.9583 9.4574C91.2494 9.23353 91.5159 8.97459 91.7539 8.69858C91.793 8.65318 91.7407 8.5713 91.6868 8.61044C91.1296 9.01576 90.528 9.27846 89.8997 9.5028C90.2918 9.1969 90.6459 8.83525 90.9547 8.49834C91.0075 8.44058 90.9387 8.34054 90.8694 8.38609C90.397 8.6967 89.9241 9.00934 89.4178 9.26061C89.0951 9.42077 88.7784 9.51815 88.4515 9.59987C89.0941 9.21725 89.683 8.68778 90.1614 8.22829C90.2088 8.18273 90.1468 8.09944 90.0914 8.13607C89.3644 8.61795 88.4581 9.20785 87.5532 9.45443C88.1555 9.06382 88.6861 8.54594 89.1059 7.99392C89.1715 7.90782 89.036 7.81608 88.9638 7.88261C88.2075 8.57975 87.3941 8.93404 86.4982 9.19768C87.0917 8.87862 87.6371 8.46766 88.1011 7.98672C88.1457 7.94054 88.0892 7.8679 88.0341 7.89858C87.0447 8.44872 86.0594 8.83087 85.0112 9.12504C85.7104 8.76355 86.3598 8.29294 86.949 7.77647C87.0092 7.72355 86.9293 7.61788 86.8637 7.66422C86.1072 8.19995 85.2778 8.47815 84.4311 8.72378C84.7795 8.43416 85.0984 8.11776 85.3756 7.794C85.4025 7.76269 85.3678 7.70946 85.33 7.73388C84.5738 8.22343 83.8065 8.57052 83.0129 8.88801C83.5132 8.48472 83.9604 8.00363 84.3286 7.52895C84.3666 7.48011 84.3186 7.39885 84.2584 7.4369C83.5495 7.88433 82.9152 8.35118 82.2067 8.73646C82.6964 8.27181 83.1359 7.73091 83.5953 7.27815C83.6334 7.24058 83.5819 7.16887 83.5375 7.20206C82.9709 7.62367 82.3107 7.94179 81.6999 8.31877C82.0077 7.96026 82.3217 7.61427 82.684 7.29396C82.7103 7.27048 82.6764 7.22915 82.6474 7.2459C82.2371 7.47995 81.7805 7.69913 81.3821 7.98234C81.4648 7.8585 81.5445 7.73232 81.6376 7.61553C81.7908 7.42312 81.956 7.24997 82.1321 7.07901C82.1733 7.03909 82.1199 6.96833 82.0711 6.99901C81.7772 7.18406 81.4197 7.36034 81.1425 7.60253C81.15 7.3785 81.3418 7.18704 81.481 7.03377C81.5371 6.97193 81.4663 6.87659 81.3926 6.9176C81.2744 6.98351 81.1591 7.05694 81.0596 7.14367C81.0726 6.31346 81.0414 5.49076 81.0079 4.7299C81.0042 4.64426 80.8816 4.64457 80.8773 4.7299C80.7844 6.55283 80.8507 8.63549 80.264 10.3928C79.7613 10.4163 79.2659 10.5242 78.754 10.5359C78.017 10.5528 77.2971 10.6051 76.5642 10.6843C75.7721 10.77 74.9894 10.785 74.1931 10.762C73.6263 10.7457 72.8021 10.8846 72.1796 10.7961C71.7968 10.6037 71.4149 10.4094 71.0331 10.2162C71.4419 10.2674 71.8546 10.2937 72.2698 10.3069C72.589 10.3305 72.9365 10.3376 73.2952 10.3219C73.5475 10.3228 73.7999 10.3233 74.0521 10.3261C75.4708 10.3415 76.905 10.3925 78.3161 10.2273C78.6173 10.214 78.9177 10.1907 79.215 10.1602C79.7391 10.1062 80.0983 9.83329 80.201 9.30852C80.2118 9.25388 80.1381 9.21631 80.1092 9.26922C79.9224 9.6113 79.4855 9.68222 79.0442 9.6783C79.4686 9.43235 79.8176 9.06586 80.0133 8.58664C80.0342 8.53513 79.9549 8.48958 79.9208 8.532C79.424 9.15055 78.7467 9.26421 78.0541 9.38335C78.4829 9.1349 78.8739 8.82069 79.2056 8.42962C79.2503 8.37686 79.1932 8.2895 79.1294 8.32942C78.2675 8.86891 77.394 9.11142 76.4926 9.24903C77.0636 8.81067 77.5917 8.27791 78.0671 7.80261C78.12 7.74954 78.0531 7.67142 77.9909 7.70242C77.0561 8.16723 76.143 8.95517 75.109 9.19893C75.7391 8.7994 76.297 8.29764 76.7225 7.71807C76.7575 7.67032 76.6899 7.6066 76.6435 7.63776C75.6598 8.29435 74.7211 8.74382 73.7172 9.03909C74.2953 8.63126 74.8535 8.14422 75.4382 7.66985C75.5095 7.61208 75.4185 7.50328 75.3438 7.54555C74.5313 8.0066 73.6123 8.69341 72.7109 8.94562C72.4815 9.00981 72.2491 9.05083 72.0154 9.07995C72.7856 8.66335 73.4953 8.10007 74.1328 7.54179C74.1939 7.48825 74.116 7.41044 74.0535 7.43768C73.0624 7.86977 72.1172 8.28856 71.1216 8.58852C71.7468 8.16801 72.3775 7.75267 72.9673 7.28332C73.0011 7.25639 72.9646 7.19705 72.9257 7.21083C71.688 7.6484 70.4323 8.53967 69.1087 8.66414C70.1993 8.29764 71.2531 7.57811 72.0984 6.99259C72.1592 6.95048 72.122 6.85373 72.048 6.87142C71.1411 7.08841 70.2863 7.37177 69.4177 7.61083C70.0631 7.26766 70.6628 6.86046 71.1642 6.47846C71.2119 6.44214 71.1856 6.34445 71.1196 6.37122C70.1103 6.78187 69.1303 7.09889 68.1215 7.31369C68.849 7.00402 69.5311 6.58226 70.13 6.07596C70.2086 6.00974 70.1084 5.9086 70.0294 5.94383C69.1117 6.35244 68.2121 6.62046 67.2947 6.803C67.8012 6.49976 68.2931 6.15987 68.7788 5.85772C68.8377 5.82109 68.7995 5.71557 68.7305 5.74109C67.8497 6.06766 66.9459 6.53905 66.0282 6.74054C65.7056 6.81141 65.3802 6.84943 65.0538 6.87619L64.5637 6.91056L64.4245 6.84919C65.3828 6.63893 66.3093 6.27025 67.1289 5.79792C67.1807 5.76802 67.1458 5.68254 67.0881 5.70007C65.5897 6.15518 64.1689 6.27165 62.6899 6.27087C62.5413 6.23643 62.3926 6.20214 62.2431 6.17318C63.2461 6.06798 64.2468 5.90297 65.2492 5.66422C65.3063 5.6506 65.2949 5.55134 65.2352 5.55901C63.7667 5.7473 62.2861 5.79927 60.8043 5.82479L58.5821 5.85694C58.2602 5.85162 57.9384 5.84817 57.6176 5.84645C55.6802 5.83596 53.7416 5.87181 51.8071 5.97921C50.7166 6.0398 49.6481 6.15956 48.5786 6.29326C47.0421 6.36668 45.508 6.40473 43.9821 6.29169C43.9288 6.28778 43.9041 6.37342 43.9542 6.39627C44.5985 6.68935 45.294 6.85107 46.0078 6.94171C48.0511 7.42766 50.2349 7.53788 52.3043 7.67283C54.7224 7.83048 57.137 7.83173 59.5587 7.84504C61.9999 7.8585 64.481 7.84974 66.7683 8.8232C68.6885 9.64026 70.5367 10.6264 72.4019 11.5651C72.0557 11.7405 71.8131 12.0565 71.668 12.4273C70.9946 13.5712 71.7011 15.3317 72.8248 15.9026C72.8681 15.9247 72.9218 15.8649 72.8796 15.8306C72.6484 15.6426 72.4408 15.3913 72.2687 15.103L72.1486 14.8812L72.3999 15.1609C72.7528 15.5229 73.1578 15.8351 73.5117 16.0885C73.8769 16.3501 74.3612 16.6895 74.8766 16.9259C74.5009 16.8183 74.141 16.6671 73.7514 16.5217C73.7243 16.5115 73.7036 16.5509 73.7238 16.5699C74.8091 17.5969 76.2183 17.577 77.3015 16.8241C78.1717 16.279 79.109 15.3575 80.0614 15.3207C80.1166 15.3187 80.1315 15.2345 80.0747 15.2205C79.4781 15.0743 78.9643 15.2445 78.4753 15.5216C79.0346 15.0577 79.6421 14.7412 80.4382 14.968C81.109 15.6752 81.4148 16.673 80.8625 17.6476C80.2615 18.7078 79.2718 19.3904 78.1291 19.7447C75.7315 20.488 73.4978 20.3734 71.0645 19.8981C69.1471 19.5235 66.8641 19.6282 65.1847 18.5145C65.1805 18.5118 65.1765 18.5104 65.1725 18.5079C65.1691 18.344 65.1633 18.1777 65.1569 18.0114C65.2583 18.1542 65.3808 18.2885 65.5275 18.413C65.5555 18.4368 65.5971 18.4074 65.5788 18.3729C65.3081 17.8641 65.2322 17.3088 65.0665 16.775C65.0377 16.5228 65.0036 16.2726 64.9573 16.0294C64.9446 15.9631 64.8368 15.9621 64.8248 16.0294C64.6706 16.8922 64.7445 17.8306 64.7459 18.7084C64.6824 18.728 64.623 18.767 64.471 18.8442C63.935 19.1163 63.3015 19.1427 62.7192 19.2381C61.5133 19.4353 60.2993 19.6471 59.0838 19.7703C57.1438 19.967 55.1526 19.8754 53.2297 20.2079C53.2189 20.2021 53.2084 20.196 53.1961 20.1913C52.5362 19.9421 52.0422 19.3199 51.5874 18.8009C51.1521 18.3045 50.6133 17.8247 50.2582 17.2667C50.2395 17.2374 50.2019 17.2576 50.2062 17.2889C50.2611 17.7015 50.5232 17.9667 50.7393 18.3056C50.8722 18.5146 51.0015 18.7291 51.1393 18.937C51.087 19.1812 51.0224 19.437 50.9104 19.6518C50.8877 19.6952 50.9386 19.729 50.9735 19.7013C51.0851 19.6124 51.1807 19.5207 51.262 19.421L51.3735 19.2645L51.4068 19.3091C51.4618 19.3771 51.5178 19.4452 51.5746 19.5131C51.2857 20.0355 51.0463 20.5868 50.7625 21.1122C50.7288 21.1746 50.8108 21.2429 50.8613 21.1894C51.249 20.7782 51.5992 20.3263 51.8336 19.8093C51.9226 19.9058 52.0153 19.9983 52.1112 20.0867C51.4863 21.2689 50.8068 22.3191 49.9464 23.3555C49.8947 23.4178 49.9751 23.5023 50.0352 23.4456C50.9556 22.5791 52.0504 21.6341 52.5143 20.4069C52.5925 20.459 52.6726 20.5083 52.7564 20.5514C52.7507 20.5717 52.7476 20.5923 52.7479 20.6125C52.2639 21.8054 51.2924 23.0079 50.4382 23.9136C49.5647 24.8399 48.682 25.7799 47.6916 26.5797C45.6572 28.2228 43.313 29.4671 40.8094 30.1919C37.9718 31.0135 35.0468 31.203 32.1082 31.1666C30.646 31.1485 29.176 31.0314 27.7141 31.0757C27.2934 31.0885 26.8607 31.066 26.4271 31.0458C25.6976 30.9611 24.9823 30.8574 24.2959 30.6932C23.5748 30.3186 22.856 29.967 22.1985 29.5026C23.5175 30.1619 25.007 30.5072 26.4997 30.5332C26.5534 30.534 26.5651 30.4507 26.5124 30.4379C23.9657 29.822 21.6243 28.6783 20.0822 26.622C20.7949 27.2275 21.6181 27.7263 22.3354 28.1373C24.0037 29.0929 25.8693 29.8181 27.8129 29.7285C27.8738 29.7257 27.8898 29.6344 27.8275 29.6183C25.5231 29.0223 22.826 27.9635 20.9726 26.1908C21.7517 26.6721 22.5793 27.0616 23.2053 27.3836C25.159 28.389 27.1639 28.9941 29.3599 28.9725C29.4071 28.972 29.4196 28.8977 29.3713 28.8873C27.4839 28.4837 25.5314 27.9341 23.8122 27.0333C22.8931 26.5519 22.0609 26.0052 21.3005 25.2859C21.2636 25.2509 21.2241 25.2147 21.1833 25.1776C22.0669 25.7827 23.0638 26.2596 24.0619 26.7216C26.1222 27.6756 28.4622 28.5504 30.7611 28.163C30.7969 28.157 30.7975 28.0946 30.7611 28.0892C28.5034 27.7592 26.4465 27.2033 24.4244 26.0921C23.4497 25.5565 22.4627 24.9924 21.562 24.3338C21.4955 24.2852 21.4359 24.2337 21.3737 24.1833C24.2047 25.9454 27.4332 26.9841 30.7762 27.1756C30.8136 27.1776 30.8202 27.1197 30.7849 27.1104C27.3184 26.1943 24.1668 24.8715 21.2958 22.8302C21.5745 22.9849 21.8488 23.1274 22.0964 23.2611C24.2217 24.4088 26.4959 25.2246 28.8734 25.6193C28.9467 25.6315 28.9749 25.5322 28.9043 25.5061C26.9371 24.7784 25.0124 23.9177 23.2281 22.7992C22.7128 22.4762 22.1206 22.1478 21.5775 21.7763C21.4186 21.6144 21.2668 21.4463 21.1223 21.2716C21.3801 21.4691 21.6439 21.647 21.8985 21.8026C23.6056 22.8457 25.6336 23.6241 27.5808 24.0487C27.6428 24.0622 27.6853 23.9743 27.6252 23.9414C26.2674 23.1948 24.8433 22.6467 23.5438 21.7788C22.6963 21.2128 21.516 20.4032 20.8635 19.4084L20.6686 19.0716L21.0747 19.4533C22.619 20.8237 24.6778 21.8123 26.5291 22.3893L27.0283 22.5364C27.0717 22.5485 27.1022 22.5046 27.0927 22.469L27.069 22.4385L25.4693 21.504C23.6962 20.4579 21.9757 19.3405 20.687 17.6996C21.1386 18.0618 21.6521 18.37 22.0605 18.6336C23.0965 19.3026 24.2009 20.0017 25.3793 20.3757C25.4702 20.4045 25.5143 20.2762 25.4413 20.2265C24.6153 19.6648 23.7349 19.2097 22.9413 18.594C22.4675 18.2265 22.0163 17.8402 21.5774 17.4311C21.2942 17.167 20.8666 16.8651 20.6141 16.5174L20.4886 16.305L20.8795 16.6354C21.9528 17.4912 23.2141 18.1093 24.5244 18.495C24.5381 18.4991 24.5513 18.4794 24.5391 18.4695C23.8871 17.9377 23.1385 17.5649 22.4493 17.0887C21.8906 16.7027 21.4336 16.2472 20.9797 15.765L20.6384 15.399C20.6378 15.3774 20.6376 15.3602 20.6372 15.3428C21.304 15.9368 22.0868 16.441 22.8936 16.7753C22.9458 16.7969 22.9866 16.7175 22.9475 16.6815C22.2734 16.0626 21.6084 15.4428 20.949 14.8105C21.1235 14.9096 21.3099 14.9926 21.4734 15.0696C21.7724 15.2103 22.0747 15.3276 22.3984 15.3937C22.4615 15.4067 22.4923 15.3281 22.4411 15.2911C22.1334 15.0699 21.813 14.8633 21.5242 14.6161C21.3789 14.4918 21.2497 14.3447 21.1097 14.213L20.8884 14.0316L20.8992 14.0044C21.238 14.2471 21.6282 14.4407 22.0089 14.5658C22.0939 14.5937 22.1645 14.4733 22.097 14.4124C21.7715 14.1177 21.4405 13.8139 21.1019 13.5307C21.1207 13.4887 21.1397 13.4469 21.159 13.4053C21.3443 13.533 21.5476 13.6384 21.7431 13.744C21.7966 13.7729 21.838 13.708 21.804 13.6639C21.6527 13.4665 21.4993 13.2537 21.3183 13.0801C21.3524 13.0142 21.3881 12.9494 21.424 12.8849C21.5303 12.958 21.6328 13.0361 21.7377 13.1117C21.8151 13.1675 21.9219 13.0576 21.8684 12.9791C21.7824 12.8531 21.6764 12.7462 21.5646 12.6444C21.6075 12.5747 21.6501 12.5049 21.6959 12.4377C22.1817 11.7234 22.7287 11.4389 23.4325 11.2972C25.2696 11.3801 27.2486 10.6882 28.9064 10.0445C30.9735 9.24151 32.9435 8.21012 35.0075 7.4023C37.1309 6.5713 39.3689 5.4643 41.6228 5.10829C42.8233 4.9187 43.9403 4.51307 45.1475 4.35416C45.4813 4.31033 45.7925 4.22407 46.0983 4.12763C46.96 4.04888 47.8004 3.82595 48.6673 3.76818C49.6648 3.7018 50.664 3.70743 51.6619 3.6564C53.793 3.54696 55.9223 3.40638 58.0441 3.17233C60.2311 2.93123 62.4182 2.63612 64.6168 2.52387C66.6833 2.41835 68.7569 2.46673 70.8256 2.46673C75.1127 2.46704 79.4426 2.26665 83.7224 2.54986ZM42.385 28.7434C40.3784 29.4576 38.2806 29.7915 36.1622 29.9265C34.1473 30.0547 32.067 29.9396 30.0681 30.2058C29.9393 30.223 29.8774 30.4368 30.034 30.4613C34.0751 31.0933 38.6979 30.5328 42.4353 28.8646C42.5032 28.8343 42.4545 28.7186 42.385 28.7434ZM81.2755 18.057C81.4997 18.5151 81.8986 18.9351 82.0841 19.3807C82.7119 20.8883 82.1555 22.5376 81.8664 24.0551C81.6393 25.2468 81.462 26.8274 80.4815 27.6626C79.5533 28.4532 78.0577 28.8858 76.8791 29.1164C74.4371 29.5942 71.8522 30.6112 69.349 30.5747C66.9842 30.5403 64.8095 29.2076 62.6581 28.2736L62.1619 28.0659L61.6602 27.8639C62.2932 27.7348 62.866 27.4087 63.1211 26.8593C63.3879 26.2849 63.4093 25.6958 63.2501 25.1645C63.0315 23.7937 61.7645 22.723 60.4475 22.3698C60.4008 22.3573 60.3542 22.4236 60.3969 22.4579C60.8379 22.8117 61.3168 23.1396 61.7404 23.5022C60.4981 22.9373 59.5076 21.8699 58.3327 22.0016C58.6391 21.8367 58.9607 21.7195 59.2765 21.6922C59.3104 21.6892 59.3222 21.6371 59.285 21.6287C58.2377 21.3896 57.1511 22.2148 56.5226 22.9957C56.1601 23.4463 55.9344 23.9353 55.9055 24.4509C55.7185 23.389 56.1372 22.2071 57.1057 21.7177C58.3807 21.0735 59.8008 20.9523 61.2026 21.0925C61.7121 21.1434 62.2204 21.2008 62.7279 21.2613L65.7703 21.635C66.785 21.7541 67.802 21.8589 68.826 21.9224C69.9231 21.9905 71.0935 22.194 72.1836 21.9613C72.3811 21.9191 72.5727 21.8638 72.762 21.8029C73.6865 21.6756 74.6018 21.4892 75.5387 21.4339C76.3815 21.3841 77.3025 21.3642 78.1052 21.0666C79.3704 20.5973 80.1702 19.6352 80.9132 18.5702C81.0465 18.4063 81.1709 18.2364 81.2755 18.057ZM71.8157 26.5532C71.5434 27.714 71.0503 28.7335 70.4458 29.7483C70.2985 29.9957 70.6581 30.1926 70.8192 29.9697C71.5314 28.9836 71.8711 27.779 71.9342 26.5695C71.9379 26.5001 71.8315 26.4863 71.8157 26.5532ZM71.3791 24.7757C70.9786 26.6006 70.1465 28.117 69.3445 29.7752C69.2571 29.956 69.4862 30.1669 69.6328 30.0008C70.8635 28.6063 71.3663 26.6198 71.4828 24.79C71.4866 24.7296 71.3919 24.717 71.3791 24.7757ZM19.4872 11.6568C17.0637 17.4111 16.4832 23.6215 16.5621 29.8205C16.5658 30.1117 16.989 30.1078 17.0044 29.8205C17.3337 23.722 17.9141 17.5891 19.5975 11.7041C19.6162 11.6388 19.5145 11.5921 19.4872 11.6568ZM72.3958 27.1335C72.2304 27.8849 71.9445 28.5688 71.629 29.2651C71.5293 29.4853 71.8334 29.677 71.9545 29.4582C72.3436 28.7555 72.5036 27.9498 72.5241 27.151C72.526 27.0766 72.4118 27.0599 72.3958 27.1335ZM44.6417 26.8139L44.601 26.8215C42.9863 27.6921 41.2242 28.0511 39.4312 28.3163C37.4368 28.6113 35.4317 28.8946 33.4301 29.1342C33.2857 29.1514 33.2772 29.3665 33.4301 29.3689C37.1759 29.4255 41.4348 29.042 44.6644 26.9318C44.7053 26.9051 44.7001 26.8568 44.6739 26.8308L44.6417 26.8139ZM72.9656 27.5837C72.9323 28.0825 72.7947 28.5564 72.5393 28.9847C72.4219 29.1817 72.7444 29.3653 72.8388 29.1624C73.0733 28.6583 73.1776 28.1393 73.1164 27.5837C73.1057 27.4868 72.9723 27.4837 72.9656 27.5837ZM15.3756 18.8537C14.5082 21.9205 14.1512 25.1048 14.4225 28.2901C14.4447 28.5516 14.8299 28.5603 14.8296 28.2901C14.8267 25.1352 15.0088 22.0054 15.4872 18.8849C15.4983 18.8118 15.3966 18.7792 15.3756 18.8537ZM45.3122 25.3581L45.2746 25.363C42.7957 26.7557 39.9912 27.6105 37.1829 27.9657C37.0271 27.9854 37.0165 28.2232 37.1829 28.2208C40.1866 28.1758 42.8787 27.2066 45.3229 25.4467C45.3476 25.4289 45.3492 25.4003 45.3378 25.38L45.3122 25.3581ZM78.7064 26.3627C78.5329 26.6691 78.3314 26.9373 78.153 27.2224C78.0145 27.4441 77.8887 27.673 77.6761 27.8323C77.5208 27.949 77.6746 28.2159 77.8284 28.0968C78.3598 27.6849 78.448 26.9699 78.722 26.3897L78.7208 26.3713L78.7064 26.3627ZM80.6243 24.0037L80.5922 24.0304C79.9395 25.332 79.1689 26.5667 78.5129 27.8644C78.4136 28.0606 78.6753 28.2084 78.7994 28.0343C79.6441 26.8479 80.2168 25.4485 80.6978 24.0756C80.7089 24.0441 80.6899 24.0181 80.6644 24.0073L80.6243 24.0037ZM63.7592 25.5522C63.6727 26.3005 63.5551 26.9436 63.1486 27.5916C63.016 27.8028 63.3501 28.0004 63.4784 27.7873C63.8734 27.1317 64.1218 26.2936 63.9468 25.5263C63.9206 25.4114 63.7708 25.451 63.7592 25.5522ZM58.89 22.3508C59.8298 22.7034 60.6518 23.4258 61.5612 23.8721C62.2109 24.1908 62.7274 24.5874 62.8555 25.3583C62.9459 25.9025 62.9831 26.5678 62.4952 26.9508C61.9257 27.3977 61.2966 27.5231 60.6523 27.4619C60.1468 27.2643 59.6388 27.0744 59.1288 26.9044C58.391 26.6585 57.4351 26.4578 56.7763 25.9565C56.4896 25.3664 56.3724 24.6912 56.6198 24.051C56.9059 23.3108 57.9021 21.9801 58.89 22.3508ZM81.5407 21.9306C81.1965 23.762 80.7681 25.4295 79.9078 27.089C79.7992 27.2986 80.0769 27.4473 80.2116 27.2692C81.3429 25.7744 81.4937 23.7578 81.6395 21.9443C81.6441 21.887 81.5514 21.8743 81.5407 21.9306ZM57.4239 23.826C57.4445 23.7454 57.3442 23.7136 57.2998 23.7729C56.8852 24.3267 56.675 24.7229 57.0275 25.3588C57.4166 26.0605 58.1862 25.6311 58.6865 26.0459C59.2497 26.513 59.9654 26.7536 60.6484 26.9912C61.4439 27.2679 61.9852 26.5955 62.4412 26.0804C62.5714 25.9334 62.4096 25.7358 62.2402 25.816C61.561 26.1372 61.0979 25.7427 60.4789 25.5487C60.0996 25.4299 59.7138 25.3684 59.3896 25.1213C59.0749 24.8813 58.8447 24.7929 58.4616 24.7511C58.0171 24.7025 56.9368 25.7319 57.4239 23.826ZM46.2883 23.8848L46.2593 23.8898C44.1203 25.2677 41.7833 25.854 39.4499 26.7457C39.3422 26.7869 39.349 26.9672 39.4786 26.9611C41.9705 26.8443 44.3426 25.4114 46.2974 23.9559C46.3165 23.9416 46.3174 23.9184 46.3084 23.9021L46.2883 23.8848ZM31.6377 24.6718C31.4674 24.6563 31.4561 24.9058 31.5996 24.9573C34.7308 26.0816 38.4359 25.7783 41.572 24.8542C41.6547 24.8297 41.6188 24.7131 41.5373 24.7263C39.8366 24.9999 38.1199 25.1372 36.3977 25.1039C34.7943 25.0729 33.2303 24.8158 31.6377 24.6718ZM28.7867 22.4286C29.9097 23.4262 31.5682 23.8501 33.0042 24.126C34.6833 24.4485 36.3704 24.5936 38.0782 24.4832C38.1401 24.4792 38.1393 24.3915 38.0782 24.3863C36.4137 24.2432 34.7646 24.0228 33.1354 23.6432C31.7251 23.3146 30.1748 22.9964 28.9055 22.2724C28.8108 22.2184 28.7007 22.3522 28.7867 22.4286ZM5.37712 11.5561C4.30807 15.3065 3.41924 19.4639 3.49838 23.3911C3.50147 23.5445 3.73984 23.5885 3.76992 23.4283C4.14808 21.4111 4.28616 19.3432 4.6043 17.3139C4.90331 15.4063 5.18951 13.4968 5.50317 11.5913C5.51675 11.5086 5.40104 11.4725 5.37712 11.5561ZM53.5948 17.7198C54.477 18.7324 55.6984 19.5805 57.0695 19.6419C57.2406 19.6495 57.2588 19.4022 57.1082 19.3513C55.8562 18.9284 54.6914 18.5295 53.6624 17.6513C53.6155 17.6112 53.5536 17.6725 53.5948 17.7198ZM51.9439 17.0101C52.7981 18.2166 53.781 19.3563 55.2936 19.6057C55.4649 19.6339 55.5332 19.3995 55.3658 19.34C54.0556 18.8755 52.9684 17.9579 52.0427 16.933C51.995 16.88 51.902 16.951 51.9439 17.0101ZM50.4264 16.3801C51.2081 17.5511 52.1539 19.142 53.5693 19.581C53.723 19.6286 53.7878 19.419 53.6719 19.3339C52.4842 18.4626 51.5769 17.3288 50.5211 16.3058C50.4729 16.2592 50.3867 16.3207 50.4264 16.3801ZM6.32574 11.1829C5.52932 13.7379 5.03792 16.6297 5.13667 19.314C5.14592 19.5646 5.48997 19.5558 5.51373 19.314C5.78096 16.5927 6.03413 13.9288 6.49545 11.2304C6.51458 11.1184 6.36046 11.0716 6.32574 11.1829ZM68.536 16.7756C68.6878 17.8843 69.4207 18.6447 70.3024 19.2495C70.3991 19.3159 70.5161 19.1626 70.4272 19.0853C69.6856 18.4384 69.0243 17.6534 68.6187 16.7402C68.5957 16.6884 68.5297 16.7291 68.536 16.7756ZM55.9907 18.1931C56.6225 18.7591 57.2877 19.1631 58.1412 19.2449C58.2667 19.2569 58.2824 19.064 58.1699 19.0294C57.4397 18.8045 56.6851 18.5541 56.0485 18.117C56.0036 18.0862 55.9501 18.1568 55.9907 18.1931ZM67.4882 15.2555C67.5896 16.6403 68.0252 18.2049 69.088 19.1557C69.2176 19.2717 69.4383 19.1218 69.3367 18.9609C68.5735 17.7507 67.8439 16.6923 67.5623 15.2454C67.5541 15.2031 67.4852 15.2125 67.4882 15.2555ZM66.5905 14.5315C66.6644 16.1891 66.9717 17.8929 68.1719 19.1096C68.2979 19.2374 68.5338 19.0655 68.4246 18.9117C67.441 17.5282 66.9754 16.1902 66.7139 14.5146C66.7026 14.443 66.5872 14.4605 66.5905 14.5315ZM65.976 15.1446C66.0928 16.411 66.2579 17.7854 67.0308 18.8327C67.1615 19.0098 67.444 18.8575 67.3303 18.655C66.7019 17.5349 66.3976 16.3709 66.1043 15.1269C66.0874 15.0552 65.969 15.0693 65.976 15.1446ZM65.4442 15.4721C65.4051 16.5222 65.5364 17.7194 66.1451 18.6022C66.2441 18.7458 66.5158 18.6605 66.4438 18.4745C66.0517 17.4631 65.6295 16.5728 65.5245 15.4721C65.5198 15.4204 65.4462 15.4187 65.4442 15.4721ZM72.9245 11.8267C72.947 11.838 72.9693 11.8494 72.9919 11.8605C74.0165 12.3681 75.057 12.8426 76.149 13.183C77.3123 13.5454 78.6568 13.7822 79.721 14.401C79.8406 14.4705 79.9548 14.5491 80.0646 14.6331C78.9282 14.4144 77.8081 15.4596 77.0268 16.2428C75.8894 17.3835 74.3072 16.2499 73.3406 15.4344C72.9252 15.0837 72.4607 14.692 72.2013 14.2003C71.8077 13.454 71.7138 11.9903 72.9245 11.8267ZM72.8604 12.7248C72.7277 12.5371 72.4243 12.6451 72.4836 12.8861C72.6473 13.5506 72.8286 14.1368 73.2728 14.6785C73.7029 15.2029 74.2832 15.3986 74.7797 15.8105C75.0614 16.0441 75.7091 16.5567 76.0987 16.2517C76.6917 15.7873 77.0739 15.2122 77.7816 14.8659C77.8586 14.8281 77.803 14.7118 77.7254 14.7306C77.2705 14.8414 76.8892 14.9977 76.472 15.2109C75.8577 15.5251 75.6606 15.0468 75.2573 14.6778C74.9401 14.3876 74.445 14.3353 74.0919 14.0789C73.6091 13.7283 73.2056 13.2131 72.8604 12.7248ZM34.3222 10.5759C31.1476 11.6458 27.8065 12.6651 25.6328 15.4324C25.464 15.6474 25.7266 15.9311 25.9349 15.7391C28.3693 13.4947 31.2517 11.7991 34.3462 10.6645C34.4004 10.6446 34.378 10.5571 34.3222 10.5759ZM7.43826 10.9667L7.4193 10.9848C7.1041 11.9493 6.89705 12.9459 6.66639 13.9338C6.61594 14.1502 6.95258 14.2391 6.99116 14.0246C7.17259 13.0178 7.37934 12.0124 7.47361 10.9923L7.463 10.9693L7.43826 10.9667ZM37.1245 8.94205C33.8596 9.24561 30.7637 10.3817 28.0434 12.2267C27.8913 12.3299 28.0222 12.5521 28.1855 12.4733L29.6332 11.771C32.0452 10.6016 34.469 9.48097 37.1392 9.05227C37.2006 9.04241 37.1864 8.93626 37.1245 8.94205ZM64.2571 8.54641L64.2099 8.55577C63.6875 8.83256 63.2355 9.21581 62.8894 9.70348C62.5219 10.221 62.4373 10.7521 62.36 11.3719C62.3454 11.4896 62.5182 11.4973 62.5526 11.3983C62.7283 10.8938 63.0479 10.4178 63.316 9.95647C63.5892 9.48633 63.9276 9.06927 64.3074 8.68399C64.3472 8.6436 64.3329 8.5903 64.2978 8.56325L64.2571 8.54641ZM63.49 8.30299L63.4438 8.30622C62.6131 8.64234 61.6573 9.409 61.5533 10.38C61.5331 10.5691 61.7796 10.5849 61.8671 10.4664C62.1215 10.1215 62.2925 9.71631 62.5535 9.37033C62.8197 9.01761 63.1466 8.70669 63.5038 8.45072C63.5441 8.42188 63.5459 8.36284 63.522 8.32789L63.49 8.30299ZM102.117 8.22463L102.098 8.22542C101.055 8.93368 99.9202 9.26886 98.7605 9.71192C98.611 9.76906 98.6177 10.0404 98.8013 10.0175C100.064 9.86111 101.193 9.09743 102.123 8.25751L102.128 8.23952L102.117 8.22463ZM102.975 8.53613L102.945 8.54601C102.193 9.15877 101.366 9.43431 100.46 9.71439C100.317 9.75869 100.337 10.0092 100.497 9.98993C101.462 9.87455 102.33 9.28997 103.001 8.60378C103.02 8.58468 103.016 8.56222 103.002 8.54854L102.975 8.53613ZM103.895 8.50966L103.869 8.52192C103.31 9.17397 102.495 9.31315 101.784 9.71393C101.635 9.79769 101.738 10.0214 101.896 9.98431C102.716 9.79159 103.452 9.26337 103.932 8.57139C103.945 8.55245 103.937 8.53139 103.922 8.51942L103.895 8.50966ZM101.261 7.89819L101.232 7.90268C100.071 8.61501 98.7952 9.041 97.545 9.55653C97.3117 9.65281 97.3961 10.0249 97.6519 9.95011C98.9891 9.55904 100.143 8.77297 101.27 7.96875C101.289 7.95481 101.291 7.93184 101.281 7.91558L101.261 7.89819ZM104.465 8.62515L104.434 8.63949C104.214 8.84411 103.991 9.03902 103.747 9.2139C103.543 9.36028 103.321 9.45844 103.104 9.58149C102.955 9.66572 103.063 9.86752 103.212 9.84247C103.794 9.7454 104.196 9.15347 104.525 8.71073C104.55 8.67738 104.529 8.64302 104.498 8.6301L104.465 8.62515ZM39.7189 7.15031C37.2585 7.4462 34.8177 7.97504 32.5673 9.0595C32.4039 9.13809 32.5198 9.40737 32.6894 9.3532C35.0263 8.60549 37.3357 7.79547 39.7336 7.26052C39.7938 7.24706 39.7813 7.14279 39.7189 7.15031ZM39.8939 8.59123C39.7313 8.63632 39.7589 8.91545 39.9347 8.89698C42.5339 8.62317 45.0051 8.39945 47.6181 8.70176C47.6803 8.70896 47.6932 8.60438 47.6328 8.59154C45.1316 8.05925 42.3824 7.90285 39.8939 8.59123ZM41.9026 7.3745C41.7905 7.38232 41.7882 7.55187 41.9026 7.55297C43.707 7.57131 45.5048 7.72598 47.3009 7.9024L49.9944 8.16901L51.3414 8.28768C51.4008 8.29254 51.4136 8.19438 51.3554 8.18248C48.2277 7.54514 45.0953 7.1525 41.9026 7.3745Z" fill="#222222"/>
<path d="M51.6539 33.7975L51.6101 33.8099M51.6101 33.8099C51.2511 34.0305 50.891 34.2697 50.7899 34.7046C50.7029 35.0788 50.9527 35.4724 51.2122 35.7044C51.4028 35.8747 51.6407 35.9552 51.8502 36.0937C52.0467 36.2238 52.2649 36.4641 52.5025 36.518C52.9941 36.6291 53.4901 36.6182 53.9773 36.4898C54.245 36.4192 54.1534 36.0707 53.9171 36.0388C53.5768 35.9929 53.0092 36.0176 52.7632 35.7175C52.5881 35.5041 52.4028 35.3604 52.1501 35.2515C51.913 35.1491 51.5421 35.0484 51.3759 34.8394C51.1954 34.6124 51.6242 34.1156 51.7237 33.9251C51.7613 33.8526 51.684 33.7645 51.6101 33.8099ZM52.2147 28.0923L52.1678 28.1121M52.1678 28.1121C51.7045 28.4766 51.2086 28.8564 51.2399 29.4954C51.2652 30.0078 51.8907 30.3474 52.2881 30.5243C53.3561 30.9996 55.2484 32.166 56.1948 30.9971C56.2949 30.8736 56.2297 30.7059 56.0705 30.6925C55.1326 30.6122 54.4773 30.1215 53.6222 29.791C53.2277 29.6385 52.8314 29.4967 52.4333 29.3547C51.7946 29.1269 52.0308 28.695 52.302 28.2172C52.354 28.1254 52.2405 28.055 52.1678 28.1121ZM77.9281 1.5C76.6583 1.5 75.368 1.51393 74.1203 1.5274C73.309 1.53606 72.4792 1.545 71.6506 1.55018L70.411 1.55464H70.3591C69.9213 1.55464 69.4833 1.55229 69.0451 1.54994C68.6052 1.54775 68.165 1.5454 67.725 1.5454C66.5488 1.5454 65.1579 1.56027 63.7599 1.6708C62.4009 1.77851 61.0286 1.9371 59.7012 2.09068C58.9975 2.17209 58.2935 2.2535 57.5888 2.32787C55.2213 2.57804 53.1586 2.7288 51.2833 2.78861C51.0165 2.79706 50.749 2.80192 50.4811 2.80677C49.7486 2.82023 48.9912 2.83401 48.2438 2.92372C47.9683 2.9567 47.6968 3.00526 47.4307 3.05819L47.0355 3.13945L46.9006 3.16763C46.3673 3.18642 45.8354 3.28364 45.321 3.37757C44.9916 3.43784 44.6809 3.49467 44.3748 3.53115C43.8061 3.5991 43.2598 3.75424 42.7315 3.90438C42.2852 4.03119 41.8635 4.15095 41.4303 4.22219C39.7365 4.50039 38.0861 5.18532 36.4899 5.84755C36.0346 6.03651 35.5636 6.23205 35.1084 6.41021C34.0753 6.8149 33.0544 7.28019 32.067 7.73013C31.0674 8.18555 30.0338 8.65646 28.9982 9.05897C27.9969 9.44817 26.9152 9.84237 25.7885 10.0921C25.231 10.143 24.5681 9.91314 23.9204 9.6938C23.4853 9.54664 23.0355 9.39416 22.6128 9.32292C21.6158 9.15431 20.8047 9.05083 20.0605 8.99697C18.3406 8.87282 16.6352 8.85592 15.1935 8.85592L14.583 8.85693L13.9725 8.85936L13.8431 8.85967C13.3304 8.85967 12.8109 8.84668 12.261 8.83275C11.7053 8.81897 11.1304 8.80441 10.5574 8.80441C8.5782 8.80441 6.30002 8.96551 4.40817 10.1592C4.28829 10.2349 4.19942 10.3399 4.14913 10.4628C3.91362 10.7783 3.76759 11.2121 3.66511 11.5733L3.5957 11.8277L3.58475 11.8696C3.39174 12.5905 3.21014 13.3262 3.03456 14.0376C2.9332 14.4489 2.83183 14.86 2.728 15.2702C2.17751 17.4399 1.64877 19.7703 1.50713 22.1108C1.42459 23.4759 1.4121 24.8595 1.40006 26.1977C1.39003 27.322 1.37955 28.4845 1.32724 29.623C1.297 30.2808 1.25179 30.9559 1.20828 31.6089C1.13762 32.6636 1.0648 33.7545 1.04937 34.8322C0.993978 35.8713 0.998147 36.9481 1.00216 37.9892C1.00401 38.4753 1.00586 38.9597 1.0017 39.4404C0.986423 41.2269 1.22942 42.9794 1.52457 44.921C1.56391 45.1802 1.73965 45.3822 1.98481 45.46C2.49056 45.7609 3.01358 45.7996 3.41395 45.7996C3.63489 45.7996 3.85536 45.7856 4.06812 45.7722C4.37068 45.7529 4.6504 45.7341 4.92472 45.7559C5.7233 45.8187 6.5347 45.956 7.31939 46.0887C8.08496 46.2184 8.8769 46.3522 9.67255 46.4213C10.2828 46.4742 10.9107 46.5 11.5923 46.5C13.3089 46.5 15.0517 46.3308 16.737 46.1672C17.6169 46.0817 18.5269 45.9934 19.4109 45.9319C19.4702 45.9278 19.5218 45.9164 19.5647 45.9034C19.6676 45.8905 19.7647 45.8505 19.8485 45.7853C20.4864 45.2901 20.7842 44.4685 21.0467 43.7438C21.1175 43.5479 21.1859 43.3594 21.2575 43.1848L21.3683 42.934L21.5089 42.6429C21.9415 41.7487 22.3872 40.8275 22.6822 39.8718C23.1218 39.9259 23.4995 39.9766 23.8506 40.0288C25.2362 40.2349 26.4746 40.6538 27.7444 41.1227L28.3828 41.3606L28.7946 41.5145C32.3478 42.8377 35.6126 43.6059 38.7756 43.8628C40.0693 43.968 41.4752 44.0191 43.0728 44.0191C44.753 44.0191 46.4574 43.9632 48.1059 43.909C48.7693 43.8871 49.4311 43.8653 50.0905 43.8472C50.6491 43.8318 51.2138 43.8248 51.7819 43.8177C54.4727 43.7845 57.2547 43.7504 59.8333 42.8194C59.9857 42.8266 60.1453 42.8305 60.3088 42.8305C60.9712 42.8305 61.6414 42.7713 62.2894 42.7142C62.8334 42.6661 63.347 42.6209 63.8469 42.609C64.5426 42.5935 65.2776 42.626 65.9907 42.6583C66.5893 42.6855 67.2085 42.7135 67.8171 42.7135C68.5514 42.7135 69.1823 42.6713 69.7462 42.5845C71.5606 42.3049 72.8009 41.5214 73.527 40.194L73.6747 39.9012L73.7701 39.6989C74.1078 38.9869 74.5923 37.9654 74.4665 37.0866C75.7283 36.5744 77.0365 35.6249 78.0322 34.4872C79.0999 33.2673 79.3754 31.084 79.1179 29.4668C79.863 29.213 80.6338 28.8701 81.145 28.3148C82.0946 27.2822 82.4524 25.989 82.6579 24.9778C82.7262 24.6419 82.8071 24.3056 82.8925 23.9496C83.1109 23.041 83.3355 22.106 83.348 21.1592L83.3357 20.6848L83.3326 20.6388C83.2945 20.073 83.2514 19.4317 82.9058 18.8761C82.6725 18.5013 82.4021 18.2037 82.1406 17.9158C82.0677 17.8359 81.9974 17.7583 81.9286 17.6803C82.1563 17.0657 82.1921 16.4468 82.0346 15.8374C81.4822 13.7012 79.3707 13.0867 77.674 12.5929C77.5066 12.5441 77.3413 12.496 77.18 12.4473C76.5121 12.2457 75.8617 12.0036 75.2532 11.752C75.6121 11.7486 75.9349 11.732 76.2362 11.7013C76.6333 11.6609 77.0368 11.634 77.4271 11.608C78.3295 11.5479 79.261 11.4859 80.1791 11.2518C80.276 11.2838 80.3819 11.2929 80.4835 11.276C81.1223 11.4068 81.7714 11.4256 82.38 11.4256C82.5428 11.4256 82.7056 11.4242 82.8679 11.4226C83.173 11.42 83.4764 11.417 83.7744 11.4247C84.4905 11.4427 85.2201 11.4898 85.9258 11.5355C86.5092 11.5733 87.1123 11.6122 87.7095 11.6349C88.0495 11.6479 88.3956 11.6542 88.7676 11.6542C89.4849 11.6542 90.2075 11.6298 90.9211 11.5978L91.9832 11.5462L92.1714 11.5368C92.4675 11.5219 92.7628 11.5108 93.0577 11.4998C93.863 11.4698 94.6948 11.4388 95.5213 11.3265C95.8476 11.4349 96.158 11.4636 96.4736 11.4724L96.7918 11.4768L96.9646 11.4784C97.4776 11.4848 98.0024 11.5075 98.51 11.5294C98.9012 11.5463 99.2925 11.5632 99.6838 11.5734C100.505 11.5947 101.435 11.6191 102.358 11.6191C103.235 11.6191 104.008 11.5969 104.722 11.5513C105.749 11.4856 106.917 11.2893 107.796 10.3305C108.649 9.39995 109.159 7.70805 108.955 6.47846C108.697 4.91134 108.041 4.1425 106.616 3.73577C105.608 3.44786 104.591 3.35503 103.607 3.26516C102.896 3.20019 102.16 3.13287 101.444 2.99166C99.4469 2.59761 96.4442 2.07378 93.436 2.07378C92.918 2.07378 92.4058 2.08912 91.913 2.11933C91.3221 2.08207 90.8017 2.06391 90.3228 2.06391C90.1852 2.06391 90.0471 2.06532 89.909 2.06845C88.5667 2.09945 87.1957 1.96372 85.8678 1.83268C85.0354 1.75065 84.1748 1.66579 83.323 1.62133C81.7394 1.53867 80.0251 1.5 77.9281 1.5ZM15.1843 9.96167C17.2025 9.96918 19.2273 9.99329 21.2349 10.2258C22.2624 10.3448 23.3017 10.4894 24.3129 10.7139C24.3689 10.7264 24.4235 10.7385 24.4781 10.7506C24.0325 10.8086 23.5863 10.8617 23.1422 10.9326C22.7373 10.93 22.3417 11.001 22.0234 11.259C21.393 11.77 20.9738 12.4891 20.644 13.2274C20.616 13.29 20.5904 13.3536 20.563 13.4164C20.5221 13.4599 20.4963 13.5149 20.4959 13.5729C19.7264 15.3642 19.1671 17.223 18.915 19.1676C18.6362 21.3177 18.3447 23.4712 18.1657 25.6335C18.1651 25.6382 18.1649 25.6431 18.1644 25.6477C18.1254 26.1205 18.0899 26.5935 18.0632 27.0672C17.9916 28.3382 17.8765 29.6388 17.9244 30.9119C17.9426 31.3998 17.9415 31.9117 17.9651 32.4197C17.8934 34.1503 17.9278 35.8902 18.0433 37.6022C18.2124 40.1046 18.7254 42.4717 19.1741 44.9171C16.1493 44.7146 13.1434 45.6238 10.107 45.3628C8.64254 45.2369 7.21031 44.8933 5.74984 44.7417C4.68558 44.6314 3.51594 44.8801 2.48284 44.583C2.16331 41.9345 2.01952 39.2742 1.91723 36.6101C2.21547 32.065 2.20945 27.5043 2.45307 22.9583C2.58097 20.5686 3.03997 18.2425 3.62656 15.9294C3.88437 14.9126 4.16286 13.9036 4.37963 12.8769C4.47451 12.4266 4.53916 11.316 4.85961 10.8977C8.0487 9.45098 11.7855 9.9493 15.1843 9.96167ZM3.0683 26.9328C2.78488 29.7965 2.80031 32.7159 2.71314 35.5917C2.63383 38.2093 2.38853 40.9277 2.91233 43.5135C2.88116 43.6983 2.95938 43.8968 3.19173 43.9557C3.78604 44.1065 4.36677 44.1368 4.95797 44.1418L5.85563 44.1424C6.86682 44.1484 7.86459 44.3031 8.87331 44.3538C8.95045 44.3575 9.02775 44.3596 9.10489 44.363C10.1502 44.5398 11.201 44.6758 12.2472 44.6483C14.128 44.5986 16.0223 43.767 17.8939 44.1153C18.0771 44.1495 18.2892 44.0328 18.2781 43.8185C18.2395 43.0763 17.9661 42.4069 17.8162 41.6854C17.7254 41.2491 17.6593 40.8117 17.6117 40.3723C17.6184 39.5244 17.5661 38.6783 17.3879 37.8746C17.3775 37.8278 17.3112 37.8412 17.3089 37.8855C17.2838 38.358 17.2276 38.8368 17.1671 39.318L17.0794 40.0272L17.0281 39.5267C16.9885 39.1848 16.9324 38.8454 16.8533 38.5114L16.7164 38.0148C16.689 37.9286 16.5577 37.9419 16.5583 38.0365C16.5634 38.663 16.6067 39.2891 16.5933 39.9157C16.1496 38.6403 14.8671 37.4314 13.5466 37.8213C12.5541 37.9331 11.6198 38.6434 11.043 39.7708C10.8952 40.0596 10.7985 40.3552 10.7397 40.65C10.6731 40.7647 10.6197 40.8847 10.5799 41.0096C10.5779 40.526 10.5908 40.0416 10.632 39.5538C10.6402 39.4561 10.4839 39.4357 10.4642 39.5308C10.2682 40.4753 10.1261 41.4439 10.1315 42.4116C9.97167 42.6539 9.79192 42.8039 9.59552 42.8864C9.35205 42.9498 9.09595 42.9424 8.83736 42.8695C8.5524 42.7206 8.28486 42.5307 8.04402 42.2952C7.62097 41.8813 7.36039 41.4206 7.17139 40.9229C6.90031 38.5911 6.77687 36.2539 6.76361 33.8971C6.7633 33.8386 6.66841 33.8217 6.65993 33.8829C6.34349 36.1359 6.26884 38.4135 6.40613 40.6808L6.47745 41.6364L6.29319 40.382C5.91764 37.4096 5.90744 34.3752 5.80025 31.3919C5.79701 31.3013 5.67419 31.3055 5.66447 31.3919C5.43057 33.5017 5.39894 35.6296 5.35142 37.7509C5.34062 38.2329 5.3325 38.7178 5.33601 39.2031L5.35245 39.9156L5.22815 38.5554C5.0209 35.8032 5.03263 33.0423 5.02589 30.2666C5.02558 30.149 4.86172 30.1548 4.84984 30.2666C4.66964 31.967 4.50771 33.6835 4.43395 35.4013L4.39665 36.6738L4.33185 35.918C4.31274 35.6601 4.29612 35.4015 4.28239 35.1421C4.15541 32.738 4.32003 30.2967 4.08058 27.9026C4.07271 27.8234 3.96871 27.8243 3.95992 27.9026C3.67742 30.4144 3.57005 33.0165 3.56249 35.5444C3.56105 36.0189 3.57092 36.4961 3.59238 36.9741L3.63345 37.6872L3.47266 36.9557C3.37751 36.4627 3.30606 35.9653 3.25731 35.4675C3.32581 32.6179 3.44877 29.7644 3.27443 26.9328C3.26594 26.7964 3.08142 26.7998 3.0683 26.9328ZM21.0695 39.2455L21.4793 39.2927C21.4106 39.5292 21.3373 39.7619 21.2394 39.99C21.2136 40.0499 21.2881 40.0956 21.3262 40.0415C21.4859 39.8145 21.6317 39.576 21.7497 39.324C21.8727 39.3381 21.9955 39.352 22.1185 39.3664C21.5155 40.3483 21.0463 41.4478 20.529 42.4737C20.2993 42.9294 20.1122 43.425 19.9145 43.912L19.6032 44.6301L19.5496 44.3204L19.5518 44.3173C20.0382 43.0368 20.5954 41.7792 21.0545 40.4895C21.0712 40.4427 21.0021 40.417 20.978 40.4566C20.3599 41.4744 19.8716 42.6041 19.4378 43.7252C19.4135 43.6076 19.3904 43.4899 19.3649 43.3723C19.3674 43.3654 19.3719 43.3614 19.3737 43.3539C19.5684 42.5894 20.0037 41.8187 20.2802 41.0733C20.5114 40.4498 20.8347 39.8624 21.0695 39.2455ZM13.6634 38.2456C14.2296 38.2572 14.7274 38.4197 15.1878 38.6851C15.8381 39.2668 16.2525 40.186 16.231 41.0036C16.1977 42.2771 15.0173 43.5973 13.7018 43.6973L13.5118 43.7033C13.2603 43.6995 13.0055 43.6502 12.7548 43.5456C11.2894 42.9345 10.7366 41.1399 11.642 39.7531C12.1074 39.0403 12.6996 38.2257 13.6634 38.2456ZM29.6476 31.6682C31.0058 31.7398 32.3664 31.786 33.726 31.7517C33.8016 31.7497 33.877 31.7468 33.9525 31.7445C35.1664 31.7881 36.3793 31.7834 37.5917 31.7633L41.2272 31.6898L43.0441 31.6801C42.78 31.7146 42.5169 31.7456 42.256 31.7684C39.7803 31.9857 37.2993 32.1268 34.8253 32.3652C34.7171 32.3757 34.7133 32.5353 34.8253 32.5387C37.2144 32.6106 39.6321 32.705 42.0233 32.6242C39.972 32.8609 37.9107 32.9388 35.8629 33.1884C35.7837 33.1979 35.7478 33.3285 35.8422 33.3437C37.6925 33.6391 39.651 33.617 41.5444 33.5057C40.1088 33.6222 38.6645 33.718 37.2402 33.9288C37.1669 33.9396 37.1953 34.0413 37.2562 34.049C38.9112 34.2561 40.6315 34.2934 42.298 34.2362C42.775 34.2199 43.2704 34.217 43.7706 34.2088C43.6919 34.2214 43.6133 34.2337 43.5352 34.2451C41.8225 34.4953 40.0977 34.6101 38.3682 34.6265C38.2993 34.6271 38.2799 34.7389 38.3515 34.7518C41.0203 35.2269 43.8334 35.2086 46.5541 34.9265C44.3046 35.1896 42.0486 35.4043 39.7945 35.6139C39.7092 35.6219 39.7117 35.736 39.7945 35.7465C42.0315 36.0329 44.2568 36.0861 46.4891 35.9485C44.5957 36.188 42.7028 36.4142 40.7958 36.5844C40.682 36.5946 40.6831 36.7513 40.7958 36.7629C42.887 36.9783 45.0318 37.0301 47.1484 36.8833C46.8235 36.9346 46.4982 36.9821 46.1722 37.0146C44.6815 37.1633 43.1738 37.1588 41.6895 37.3609C41.6035 37.3725 41.5625 37.5134 41.6668 37.5312C43.1641 37.7863 44.7053 37.7621 46.2263 37.7331L46.9849 37.7194L47.2871 37.7111C45.6993 37.9411 44.1108 38.1664 42.5115 38.3306C42.4442 38.3375 42.4157 38.4493 42.4942 38.4609C44.6301 38.776 46.8315 38.72 48.9986 38.4876C48.6592 38.5619 48.3191 38.6325 47.9775 38.6941C46.5272 38.9557 45.0851 39.096 43.6176 39.1934C43.5511 39.1978 43.527 39.3075 43.6009 39.3186C46.2509 39.719 49.185 39.4641 51.8453 38.9074C48.6757 39.6621 45.4931 40.1559 42.1972 39.9828C42.0992 39.9776 42.075 40.1438 42.1738 40.1581C45.7364 40.6763 49.4636 40.7422 52.9833 39.8372C52.9884 39.8425 52.9924 39.8483 52.998 39.8533C51.4835 40.2702 49.9495 40.7381 48.4208 40.8643C46.4603 41.0262 44.4421 40.8034 42.5005 41.1447C42.4601 41.1518 42.464 41.2136 42.5005 41.2233C44.451 41.7418 46.7868 41.7393 48.7872 41.5651C49.2285 41.5265 49.6704 41.4761 50.1122 41.4195C50.0493 41.4325 49.9866 41.4475 49.9237 41.4603C48.0693 41.8359 46.2119 42.0319 44.3345 42.2343C44.2676 42.2415 44.2384 42.3535 44.3173 42.3646C46.7121 42.7038 49.2218 42.5045 51.6276 42.1438C51.3689 42.2528 51.104 42.3497 50.8272 42.4252C49.6492 42.7458 48.439 42.8765 47.23 43.0148C44.2953 43.1056 41.327 43.2198 38.4225 42.9158C34.9756 42.555 31.5865 41.6989 28.3761 40.3691C26.8058 39.7188 25.336 39.3085 23.6536 39.0692C22.2382 38.8681 20.0456 38.6719 18.6492 38.3347C18.6301 38.1044 18.6163 37.8733 18.6008 37.6426C20.006 38.1753 21.6218 38.2885 23.0852 38.5689C24.6022 38.8596 26.1157 39.1755 27.6564 39.2997C27.7214 39.305 27.728 39.2083 27.6712 39.1895C26.2151 38.7089 24.7109 38.4127 23.2141 38.095C22.9276 38.0343 22.633 37.9787 22.336 37.9236C21.858 37.7789 21.3898 37.6017 20.9539 37.3819C21.3046 37.4417 21.6601 37.4876 22.0208 37.5236C23.5078 37.6721 24.9723 37.8844 26.4254 38.2428C26.5132 38.2644 26.5781 38.1291 26.4892 38.0889C25.3012 37.5513 24.035 37.3738 22.7765 37.0799C21.8796 36.8704 21.0084 36.5883 20.166 36.2279C20.0477 36.0972 19.9313 35.9637 19.8204 35.8253C21.3861 36.6286 23.5931 36.7942 24.9586 36.9697C25.0337 36.9794 25.0444 36.8595 24.976 36.8394C23.8397 36.5055 22.6367 36.1617 21.5512 35.6526C21.2224 35.4647 20.9054 35.2596 20.6193 35.0149L20.3442 34.7563L20.7154 34.9942C22.1151 35.8212 23.8952 36.1272 25.4685 36.1489C25.5589 36.1501 25.5641 36.0282 25.4885 35.9986C24.1654 35.4791 22.592 35.0589 21.4101 34.1687C22.6987 34.8242 24.1842 35.1535 25.4643 35.1649C25.5311 35.1655 25.5412 35.0691 25.4797 35.0497C24.1699 34.6351 23.0231 34.2552 21.9091 33.4475C23.1891 34.051 24.6173 34.3768 25.8713 34.4282C25.9952 34.4332 26.0157 34.2458 25.9 34.2127C24.8197 33.9035 23.7345 33.5129 22.7535 32.9822C23.8648 33.3254 25.0289 33.5732 26.1717 33.6087C26.2404 33.6109 26.2532 33.5062 26.1878 33.4885C25.2247 33.2299 24.2302 32.9434 23.2835 32.5615C24.8524 33.0292 26.588 33.2895 28.1114 33.0253C28.175 33.0143 28.1514 32.9263 28.0974 32.9201C26.8154 32.7706 25.4017 32.5035 24.0831 32.0717C25.7082 32.4192 27.414 32.5562 29.0323 32.379C29.1104 32.3704 29.1425 32.2462 29.0524 32.2287C28.6 32.1403 28.1484 32.0546 27.6974 31.9676C28.3437 31.8452 28.9916 31.7493 29.6476 31.6682ZM56.9193 34.1533C58.4983 35.429 60.1832 36.359 61.9787 37.2844C62.5814 37.5951 63.2646 38.1063 63.9784 38.0953C65.0261 38.0794 66.0844 37.9228 67.1255 37.8058C69.08 37.5862 71.0519 37.4331 72.9817 37.0419C73.1744 37.0174 73.3686 36.9821 73.5635 36.9318C73.8637 37.762 72.8703 39.5796 72.4662 40.1789C71.5575 41.5273 69.5976 41.7808 68.1192 41.736C66.6898 41.6926 65.2671 41.6671 63.8369 41.7135C62.4844 41.7573 61.0873 41.9787 59.7369 41.9123C58.0633 41.8303 57.0947 40.686 55.818 39.7606C54.7828 39.0101 53.8063 38.1702 52.7806 37.4021C53.1706 37.4688 53.5519 37.4705 53.8618 37.3993C54.0496 37.3561 54.2241 37.2955 54.3824 37.2166C54.8914 37.0545 55.2732 36.5213 55.2553 35.9547C55.227 35.0572 54.6751 34.3114 53.9873 33.7861C53.9566 33.7626 53.9189 33.807 53.9368 33.8372C54.1357 34.1744 54.4083 34.5878 54.6129 35.0134C54.5501 34.9327 54.4873 34.8541 54.4284 34.7777C53.9725 34.1864 53.4027 33.3183 52.691 32.911C52.919 32.9772 53.1578 33.0716 53.4226 33.1554C53.4329 33.1587 53.4405 33.1468 53.4359 33.138C53.0383 32.3823 51.7779 32.2834 51.1543 32.7785C50.4762 33.3171 50.0386 33.8567 49.8987 34.5631C49.8566 34.4358 49.8356 34.3012 49.8467 34.1575C49.9129 33.2949 50.7559 32.5374 51.6718 32.1074C53.5667 31.6358 55.459 32.9731 56.9193 34.1533ZM19.8607 39.075C20.0881 39.1131 20.3089 39.1472 20.5034 39.1746C20.4317 39.5544 20.3411 39.9276 20.2561 40.3032C20.1095 40.6022 19.9617 40.9 19.8192 41.1962C19.7099 41.4234 19.5849 41.6543 19.462 41.8887C19.64 41.0862 19.994 40.3456 20.1703 39.542C20.1907 39.4491 20.0628 39.4151 20.0314 39.5032C19.8963 39.8815 19.6903 40.2242 19.4816 40.5647C19.5397 40.3095 19.5933 40.0529 19.6619 39.8005C19.7176 39.5957 19.7858 39.393 19.8358 39.1867C19.8343 39.1932 19.8463 39.1395 19.8607 39.075ZM62.5957 39.7915L62.5671 39.8011C62.1331 40.2857 61.6612 40.7368 61.1463 41.1317C60.9579 41.2762 61.1591 41.5415 61.3444 41.3922C61.8744 40.9648 62.3037 40.4493 62.6185 39.8414L62.6183 39.8101L62.5957 39.7915ZM62.8237 38.282C62.0345 39.3519 61.0366 40.1314 60.1336 41.0811C59.9909 41.2314 60.1729 41.4745 60.353 41.3696C61.4745 40.7163 62.3189 39.47 62.9367 38.349C62.9788 38.2723 62.8729 38.2152 62.8237 38.282ZM70.1509 39.6431L70.1196 39.6571C69.5434 40.1757 69.0024 40.6533 68.281 40.9486C68.098 41.0234 68.1633 41.2986 68.3639 41.2535C69.1658 41.0733 69.7441 40.3634 70.2104 39.7282C70.2352 39.6945 70.2143 39.6606 70.1835 39.6479L70.1509 39.6431ZM68.6835 40.1606L68.6551 40.1657C68.2282 40.452 67.765 40.6529 67.2764 40.8041C67.0561 40.8722 67.1842 41.1993 67.4003 41.1025C67.8821 40.8869 68.3101 40.5829 68.7037 40.2297C68.7208 40.2144 68.7182 40.192 68.7065 40.1766L68.6835 40.1606ZM71.4545 39.0169C70.8896 39.7737 70.1628 40.2741 69.4625 40.8837C69.3344 40.9951 69.4974 41.1653 69.63 41.104C70.4746 40.714 71.1008 39.8714 71.5543 39.0761C71.5927 39.0088 71.4981 38.9584 71.4545 39.0169ZM72.9451 37.8507C72.3358 38.9885 71.4678 39.8208 70.6405 40.7819C70.5245 40.9168 70.6728 41.1394 70.8355 41.0381C71.9331 40.3551 72.6268 39.0931 73.0599 37.8998C73.0849 37.8313 72.9786 37.788 72.9451 37.8507ZM55.5451 36.7005L55.5135 36.7174C55.3088 36.9802 55.0567 37.2331 54.7782 37.4151C54.5211 37.5831 54.2109 37.686 53.9739 37.8729C53.8543 37.9671 53.956 38.1754 54.0949 38.1689C54.4377 38.153 54.8149 37.8687 55.05 37.6276C55.2963 37.3749 55.4719 37.1 55.6059 36.7718C55.6164 36.7463 55.6017 36.7219 55.5802 36.7093L55.5451 36.7005ZM55.4044 26.3551C56.5753 26.6611 57.6991 27.1889 58.8251 27.6319C61.143 28.5439 63.3499 29.6095 65.6082 30.6533C67.451 31.5048 69.4705 31.7517 71.4533 31.3468C73.4581 30.9373 75.6448 30.3623 77.5455 29.4909C77.6093 29.4724 77.6741 29.4558 77.7377 29.4364C77.9114 29.3833 78.0993 29.3287 78.2945 29.2706C78.5796 31.4138 77.9252 33.6599 76.1405 34.8989C75.4001 35.4129 74.4411 36.2666 73.5451 36.4581C72.7027 36.6383 71.8357 36.629 70.9803 36.6796C69.2259 36.7832 67.4867 36.9786 65.7279 37.0328C64.6907 37.0647 63.6968 37.373 62.7356 36.8228C62.1481 36.4867 61.5306 36.2165 60.9365 35.8948C59.4872 35.1098 58.1721 34.0657 56.7468 33.2299C56.4557 33.0592 56.1625 32.8913 55.8703 32.7219C55.665 32.591 55.4579 32.4673 55.2495 32.3532C55.9404 32.3998 56.6188 32.2104 56.9488 31.5882C57.1546 31.2001 57.2299 30.8686 57.2142 30.5741C57.2308 30.555 57.2419 30.5293 57.2418 30.4961C57.2382 29.8013 56.7447 28.8311 56.0627 28.5896C56.0046 28.5689 55.9507 28.6434 55.9831 28.6945C56.1283 28.923 56.3256 29.1067 56.4833 29.326C56.2418 29.1133 55.9627 28.9099 55.6752 28.6995C55.2009 28.3526 54.7261 27.972 54.2384 27.6853C54.6601 27.8026 55.0821 27.9687 55.4857 28.1547C55.5445 28.1818 55.6053 28.1126 55.5568 28.0612C54.8959 27.3606 53.6232 26.723 52.6479 26.9731C51.8822 27.1695 51.3609 27.4032 50.9778 27.8763C51.1375 27.4245 51.4031 27.0319 51.781 26.8227C52.2857 26.5434 52.7752 26.3397 53.2934 26.2153C54.0095 26.1802 54.7271 26.178 55.4044 26.3551ZM52.4805 33.2623C53.1276 33.6848 53.5721 34.3248 54.0402 34.9295C54.3367 35.3124 54.9006 35.8314 54.676 36.3784C54.4538 36.9197 53.8359 37.0693 53.3203 37.0303C52.8519 36.9949 52.3819 36.8894 51.96 36.6918C51.6347 36.3756 51.3215 36.0491 50.9639 35.759C50.8311 35.6512 50.6811 35.5338 50.5347 35.4057C50.1699 34.3297 51.3021 32.4928 52.4805 33.2623ZM10.422 24.0909C9.55121 28.0923 9.13031 32.659 9.78417 36.7216C9.81704 36.9258 10.1275 36.8692 10.1298 36.6742C10.1543 34.5748 9.99308 32.4797 10.0713 30.3775C10.1495 28.2794 10.3703 26.2006 10.6047 24.1159C10.6167 24.0096 10.4444 23.9882 10.422 24.0909ZM67.2118 32.8309C66.4417 34.184 65.6268 35.3179 64.3863 36.258C64.1893 36.4072 64.3527 36.6843 64.5766 36.5884C66.0343 35.9628 66.8401 34.311 67.3588 32.8938C67.3912 32.8054 67.2564 32.7526 67.2118 32.8309ZM67.7779 34.6258C67.5332 35.2003 67.2197 35.7085 66.8395 36.1993C66.703 36.3756 66.9338 36.627 67.0884 36.4518C67.5252 35.9567 67.805 35.3347 67.9066 34.6809C67.9178 34.6079 67.8121 34.5455 67.7779 34.6258ZM67.6242 33.6227L67.5938 33.6487C67.1586 34.5056 66.5926 35.2396 66.084 36.0454C65.9687 36.2281 66.2295 36.4258 66.376 36.2741C67.0379 35.5892 67.4486 34.6049 67.6949 33.692C67.703 33.6618 67.685 33.6366 67.6613 33.6261L67.6242 33.6227ZM74.3305 34.0849L74.298 34.1083C73.7152 34.8831 72.9924 35.378 72.1857 35.8809C72.0016 35.9956 72.1624 36.2658 72.3532 36.1716C73.2035 35.7519 73.8951 34.963 74.4021 34.1702C74.4281 34.1294 74.4019 34.0934 74.3669 34.0843L74.3305 34.0849ZM75.9554 32.8008C75.1898 33.8549 74.4082 34.8561 73.4846 35.771C73.41 35.8449 73.5053 35.9661 73.5943 35.9152C74.7578 35.2501 75.4379 34.0091 76.0509 32.8575C76.0856 32.7924 75.9969 32.7437 75.9554 32.8008ZM11.3915 21.6706C10.7705 26.2511 10.326 30.8996 10.5537 35.528C10.5665 35.7879 10.9369 35.7874 10.9508 35.528C11.0002 34.6062 11.0422 33.6843 11.0805 32.7622L11.298 27.2296C11.3766 25.3857 11.4716 23.5426 11.6136 21.7012C11.6235 21.5729 11.4087 21.5426 11.3915 21.6706ZM77.6486 31.4879L77.6149 31.5133C76.7489 32.9525 75.7081 34.1598 74.6113 35.4142C74.5065 35.5341 74.6445 35.7461 74.788 35.6465C76.1691 34.6887 77.1743 33.1422 77.7206 31.5585C77.7317 31.5262 77.7136 31.5011 77.6886 31.4909L77.6486 31.4879ZM57.6151 30.921C57.539 31.644 57.0988 32.0649 56.6296 32.5531C56.4951 32.693 56.665 32.9053 56.8307 32.8175C57.4872 32.4693 57.7282 31.617 57.7257 30.921C57.7254 30.8471 57.6225 30.8505 57.6151 30.921ZM17.534 14.921C15.7581 20.303 14.6038 26.3675 15.6602 32.0312C15.694 32.2122 15.962 32.1616 15.9665 31.9893C16.0393 29.1132 15.946 26.2477 16.2291 23.3776C16.5087 20.5427 16.9411 17.7141 17.6748 14.9603C17.6994 14.8674 17.5637 14.8311 17.534 14.921ZM53.2107 27.6063C54.0067 27.8553 54.5569 28.3391 55.2189 28.8255C55.956 29.367 57.8085 30.5251 56.4776 31.5879C55.7992 32.1298 54.8687 32.0299 54.1055 31.7384C53.669 31.5106 53.2277 31.2925 52.7781 31.0921C52.2307 30.8482 51.3237 30.5254 51.0099 29.9477C50.8565 29.0035 51.5181 27.8027 52.4672 27.5784C52.4913 27.5728 52.5157 27.5684 52.5399 27.5635C52.7522 27.5252 52.9773 27.5333 53.2107 27.6063ZM83.7224 2.54986C85.9253 2.69561 88.1018 2.9461 90.3103 2.91056C90.7605 2.90336 91.2096 2.9126 91.6584 2.92841C94.4867 3.19565 97.3342 3.09405 100.134 3.67299C101.392 3.93319 102.657 4.17788 103.941 4.25052C104.983 4.30939 107.191 4.40536 107.679 5.54539C108.265 6.91479 108.034 9.30085 106.549 10.0758C105.64 10.5503 104.628 10.5137 103.634 10.5358C102.183 10.568 100.735 10.5603 99.2851 10.5099C98.2151 10.4727 96.9185 10.6215 95.8496 10.3825C95.9231 10.2197 95.9726 10.0381 96.0102 9.85036C96.0403 9.85912 96.0724 9.86257 96.1073 9.85224C97.3277 9.48746 98.4847 8.74962 99.5026 7.99189C99.554 7.95369 99.51 7.8715 99.452 7.90375C98.5766 8.39095 97.6695 8.76112 96.7584 9.14476L96.0747 9.43705L96.0968 9.23541C96.8897 9.10202 97.7047 8.4805 98.3222 7.99925C98.3748 7.95823 98.3307 7.8729 98.269 7.90672C97.8637 8.12856 97.4466 8.33944 97.0169 8.50899C96.7304 8.62202 96.4169 8.70218 96.1349 8.83322C96.1414 8.76825 96.148 8.70468 96.1556 8.64394C96.1566 8.63517 96.1571 8.62656 96.1582 8.6178C96.6462 8.42868 97.0833 8.10069 97.4762 7.75784C97.4948 7.74171 97.4752 7.7057 97.4517 7.71525C97.1746 7.82902 96.89 7.9352 96.6107 8.05202L96.1975 8.23752L96.2086 8.12981C96.3563 8.04339 96.4905 7.93568 96.6411 7.8524C96.6848 7.82829 96.6544 7.76206 96.6082 7.77318C96.4854 7.80277 96.3551 7.83486 96.2341 7.88324C96.2984 7.11533 96.3171 6.34899 96.2961 5.57326C96.2935 5.48089 96.1596 5.48152 96.1553 5.57326C96.086 7.07713 96.0198 8.90022 95.4593 10.3286C95.4101 10.3446 95.367 10.3733 95.3346 10.414C92.8036 10.3967 90.2646 10.829 87.7257 10.6821C85.4819 10.5525 83.2448 10.4719 81.0004 10.4284C81.4069 10.0872 82.1288 10.1167 82.6216 10.047C82.6864 10.0378 82.7591 10.0255 82.8367 10.0118C85.2878 10.1834 87.767 10.2965 90.2052 10.2522C91.5717 10.2273 92.9418 10.2277 94.3066 10.1503C94.9483 10.114 95.4298 9.82108 95.3548 9.14304C95.3508 9.10609 95.3005 9.08324 95.28 9.12253C95.0634 9.53333 94.5087 9.7046 93.8697 9.76707C94.2535 9.58343 94.6098 9.32605 94.9413 8.97913C94.979 8.93967 94.9316 8.88629 94.8864 8.90711C94.3558 9.15102 93.7826 9.37599 93.2007 9.54476C93.4747 9.35235 93.7203 9.1241 93.9195 8.86562C93.9505 8.82539 93.9129 8.76872 93.8647 8.79361C93.2454 9.11157 92.6519 9.34374 92.0281 9.52096C92.3526 9.29474 92.6476 9.01811 92.9063 8.70688C92.9551 8.64848 92.8918 8.54703 92.8211 8.59478C92.2376 8.98962 91.61 9.24777 90.9583 9.4574C91.2494 9.23353 91.5159 8.97459 91.7539 8.69858C91.793 8.65318 91.7407 8.5713 91.6868 8.61044C91.1296 9.01576 90.528 9.27846 89.8997 9.5028C90.2918 9.19689 90.6459 8.83525 90.9547 8.49834C91.0075 8.44057 90.9387 8.34054 90.8694 8.38609C90.397 8.6967 89.9241 9.00934 89.4178 9.26061C89.0951 9.42077 88.7784 9.51815 88.4515 9.59987C89.0941 9.21725 89.683 8.68778 90.1614 8.22829C90.2088 8.18273 90.1468 8.09944 90.0914 8.13607C89.3644 8.61795 88.4581 9.20785 87.5532 9.45443C88.1555 9.06382 88.6861 8.54594 89.1059 7.99392C89.1715 7.90782 89.036 7.81608 88.9638 7.88261C88.2075 8.57975 87.3941 8.93404 86.4982 9.19768C87.0917 8.87862 87.6371 8.46766 88.1011 7.98672C88.1457 7.94054 88.0892 7.86789 88.0341 7.89858C87.0447 8.44872 86.0594 8.83087 85.0112 9.12504C85.7104 8.76355 86.3598 8.29294 86.949 7.77647C87.0092 7.72355 86.9293 7.61788 86.8637 7.66422C86.1072 8.19995 85.2778 8.47815 84.4311 8.72378C84.7795 8.43416 85.0984 8.11776 85.3756 7.794C85.4025 7.76269 85.3678 7.70946 85.33 7.73388C84.5738 8.22343 83.8065 8.57052 83.0129 8.88801C83.5132 8.48472 83.9604 8.00363 84.3286 7.52895C84.3666 7.48011 84.3186 7.39885 84.2584 7.4369C83.5495 7.88433 82.9152 8.35118 82.2067 8.73646C82.6964 8.27181 83.1359 7.73091 83.5953 7.27815C83.6334 7.24058 83.5819 7.16887 83.5375 7.20206C82.9709 7.62367 82.3107 7.94179 81.6999 8.31877C82.0077 7.96026 82.3217 7.61428 82.684 7.29396C82.7103 7.27048 82.6764 7.22915 82.6474 7.2459C82.2371 7.47995 81.7805 7.69913 81.3821 7.98234C81.4648 7.8585 81.5446 7.73232 81.6376 7.61553C81.7908 7.42312 81.956 7.24997 82.1321 7.07901C82.1733 7.03909 82.1199 6.96833 82.0711 6.99901C81.7772 7.18406 81.4197 7.36034 81.1425 7.60253C81.15 7.3785 81.3418 7.18704 81.481 7.03377C81.5371 6.97193 81.4663 6.87659 81.3926 6.9176C81.2744 6.98351 81.1591 7.05694 81.0596 7.14367C81.0726 6.31346 81.0414 5.49076 81.0079 4.7299C81.0042 4.64426 80.8816 4.64457 80.8773 4.7299C80.7844 6.55283 80.8507 8.63549 80.264 10.3928C79.7613 10.4163 79.2659 10.5242 78.754 10.5359C78.017 10.5528 77.2971 10.6051 76.5642 10.6843C75.7721 10.77 74.9894 10.785 74.1931 10.762C73.6263 10.7457 72.8021 10.8846 72.1796 10.7961C71.7968 10.6037 71.4149 10.4094 71.0331 10.2162C71.4419 10.2674 71.8546 10.2937 72.2698 10.3069C72.589 10.3305 72.9365 10.3376 73.2952 10.3219C73.5475 10.3228 73.7999 10.3233 74.0521 10.3261C75.4708 10.3415 76.905 10.3925 78.3161 10.2273C78.6173 10.214 78.9177 10.1907 79.215 10.1602C79.7391 10.1062 80.0983 9.83329 80.201 9.30852C80.2118 9.25388 80.1381 9.21631 80.1092 9.26922C79.9224 9.6113 79.4855 9.68222 79.0442 9.6783C79.4686 9.43235 79.8176 9.06586 80.0133 8.58664C80.0342 8.53513 79.9549 8.48958 79.9208 8.532C79.424 9.15055 78.7467 9.26421 78.0541 9.38335C78.4829 9.1349 78.8739 8.82069 79.2056 8.42962C79.2503 8.37686 79.1932 8.2895 79.1294 8.32942C78.2675 8.86891 77.394 9.11142 76.4926 9.24903C77.0636 8.81067 77.5917 8.27791 78.0671 7.80261C78.12 7.74954 78.0531 7.67142 77.9909 7.70242C77.0561 8.16723 76.143 8.95517 75.109 9.19893C75.7391 8.7994 76.297 8.29764 76.7225 7.71807C76.7575 7.67032 76.6899 7.6066 76.6435 7.63776C75.6598 8.29435 74.7211 8.74382 73.7172 9.03909C74.2953 8.63126 74.8535 8.14422 75.4382 7.66985C75.5095 7.61208 75.4185 7.50328 75.3438 7.54555C74.5313 8.0066 73.6123 8.69341 72.7109 8.94562C72.4815 9.00981 72.2491 9.05083 72.0154 9.07995C72.7856 8.66335 73.4953 8.10007 74.1328 7.54179C74.1939 7.48825 74.116 7.41044 74.0535 7.43768C73.0624 7.86977 72.1172 8.28856 71.1216 8.58852C71.7468 8.16801 72.3775 7.75267 72.9673 7.28332C73.0011 7.25639 72.9646 7.19705 72.9257 7.21083C71.688 7.6484 70.4323 8.53967 69.1087 8.66414C70.1993 8.29764 71.2531 7.57811 72.0984 6.99259C72.1592 6.95048 72.122 6.85373 72.048 6.87142C71.1411 7.08841 70.2863 7.37177 69.4177 7.61083C70.0631 7.26766 70.6628 6.86046 71.1642 6.47846C71.2119 6.44214 71.1857 6.34445 71.1196 6.37122C70.1103 6.78187 69.1303 7.09889 68.1215 7.31369C68.849 7.00402 69.5311 6.58226 70.13 6.07596C70.2086 6.00974 70.1084 5.9086 70.0294 5.94383C69.1117 6.35244 68.2121 6.62046 67.2947 6.803C67.8012 6.49976 68.2931 6.15987 68.7788 5.85772C68.8377 5.82109 68.7995 5.71557 68.7305 5.74109C67.8497 6.06766 66.9459 6.53905 66.0282 6.74054C65.7056 6.81141 65.3802 6.84943 65.0538 6.87619L64.5637 6.91056L64.4245 6.84919C65.3828 6.63893 66.3093 6.27025 67.1289 5.79792C67.1807 5.76802 67.1458 5.68254 67.0881 5.70007C65.5897 6.15518 64.1689 6.27165 62.6899 6.27087C62.5413 6.23643 62.3926 6.20214 62.2431 6.17318C63.2461 6.06798 64.2468 5.90297 65.2492 5.66422C65.3063 5.6506 65.2949 5.55134 65.2352 5.55901C63.7667 5.7473 62.2861 5.79927 60.8043 5.82479L58.5821 5.85694C58.2602 5.85162 57.9384 5.84817 57.6176 5.84645C55.6802 5.83596 53.7416 5.87181 51.8071 5.97921C50.7166 6.0398 49.6481 6.15956 48.5786 6.29326C47.0421 6.36668 45.508 6.40473 43.9821 6.29169C43.9288 6.28778 43.9041 6.37342 43.9542 6.39627C44.5985 6.68935 45.294 6.85107 46.0078 6.94171C48.0511 7.42766 50.2349 7.53788 52.3043 7.67283C54.7224 7.83048 57.137 7.83173 59.5587 7.84504C61.9999 7.8585 64.481 7.84974 66.7683 8.8232C68.6885 9.64026 70.5367 10.6264 72.4019 11.5651C72.0557 11.7405 71.8131 12.0565 71.668 12.4273C70.9946 13.5712 71.7011 15.3317 72.8248 15.9026C72.8681 15.9247 72.9218 15.8649 72.8796 15.8306C72.6484 15.6426 72.4408 15.3913 72.2687 15.103L72.1486 14.8812L72.3999 15.1609C72.7528 15.5229 73.1578 15.8351 73.5117 16.0885C73.8769 16.3501 74.3612 16.6895 74.8766 16.9259C74.5009 16.8183 74.141 16.6671 73.7514 16.5217C73.7243 16.5115 73.7036 16.5509 73.7238 16.5699C74.8091 17.5969 76.2183 17.577 77.3015 16.8241C78.1717 16.279 79.109 15.3575 80.0614 15.3207C80.1166 15.3187 80.1315 15.2345 80.0747 15.2205C79.4781 15.0743 78.9643 15.2445 78.4753 15.5216C79.0346 15.0577 79.6421 14.7412 80.4382 14.968C81.109 15.6752 81.4148 16.673 80.8625 17.6476C80.2615 18.7078 79.2718 19.3904 78.1291 19.7447C75.7315 20.488 73.4978 20.3734 71.0645 19.8981C69.1471 19.5235 66.8641 19.6282 65.1847 18.5145C65.1805 18.5118 65.1765 18.5104 65.1725 18.5079C65.1691 18.344 65.1633 18.1777 65.1569 18.0114C65.2583 18.1542 65.3808 18.2885 65.5275 18.413C65.5555 18.4368 65.5971 18.4074 65.5788 18.3729C65.3081 17.8641 65.2322 17.3088 65.0665 16.775C65.0377 16.5228 65.0036 16.2726 64.9573 16.0294C64.9446 15.9631 64.8368 15.9621 64.8248 16.0294C64.6706 16.8922 64.7445 17.8306 64.7459 18.7084C64.6824 18.728 64.623 18.767 64.471 18.8442C63.935 19.1163 63.3015 19.1427 62.7192 19.2381C61.5133 19.4353 60.2993 19.6471 59.0838 19.7703C57.1438 19.967 55.1526 19.8754 53.2297 20.2079C53.2189 20.2021 53.2084 20.196 53.1961 20.1913C52.5362 19.9421 52.0422 19.3199 51.5874 18.8009C51.1521 18.3045 50.6134 17.8247 50.2582 17.2667C50.2395 17.2374 50.2019 17.2576 50.2062 17.2889C50.2611 17.7015 50.5232 17.9667 50.7392 18.3056C50.8722 18.5146 51.0015 18.7291 51.1393 18.937C51.087 19.1812 51.0224 19.437 50.9103 19.6518C50.8877 19.6952 50.9386 19.729 50.9735 19.7013C51.0851 19.6124 51.1807 19.5207 51.262 19.421L51.3735 19.2645L51.4068 19.3091C51.4618 19.3771 51.5178 19.4452 51.5745 19.5131C51.2857 20.0355 51.0463 20.5868 50.7625 21.1122C50.7288 21.1746 50.8108 21.2429 50.8613 21.1894C51.249 20.7782 51.5992 20.3263 51.8336 19.8093C51.9226 19.9058 52.0153 19.9983 52.1112 20.0867C51.4863 21.2689 50.8068 22.3191 49.9464 23.3555C49.8947 23.4178 49.9751 23.5023 50.0352 23.4456C50.9556 22.5791 52.0504 21.6341 52.5143 20.4069C52.5925 20.459 52.6726 20.5083 52.7564 20.5514C52.7507 20.5717 52.7476 20.5923 52.7479 20.6125C52.2639 21.8054 51.2924 23.0079 50.4382 23.9136C49.5647 24.8399 48.682 25.7799 47.6916 26.5797C45.6572 28.2228 43.313 29.4671 40.8094 30.1919C37.9718 31.0135 35.0468 31.203 32.1082 31.1666C30.646 31.1485 29.176 31.0314 27.7141 31.0757C27.2934 31.0885 26.8608 31.066 26.4271 31.0458C25.6976 30.9611 24.9823 30.8574 24.2959 30.6932C23.5748 30.3186 22.856 29.967 22.1985 29.5026C23.5175 30.1619 25.007 30.5072 26.4997 30.5332C26.5534 30.534 26.5651 30.4507 26.5124 30.4379C23.9657 29.822 21.6243 28.6783 20.0822 26.622C20.7949 27.2275 21.6181 27.7263 22.3354 28.1373C24.0037 29.0929 25.8693 29.8181 27.8129 29.7285C27.8738 29.7257 27.8898 29.6344 27.8275 29.6183C25.5231 29.0223 22.826 27.9635 20.9726 26.1908C21.7517 26.6721 22.5793 27.0616 23.2053 27.3836C25.159 28.389 27.1639 28.9941 29.3599 28.9725C29.4071 28.972 29.4196 28.8977 29.3713 28.8873C27.4839 28.4837 25.5314 27.9341 23.8122 27.0333C22.8931 26.5519 22.0609 26.0052 21.3005 25.2859C21.2636 25.2509 21.2241 25.2147 21.1833 25.1776C22.0669 25.7827 23.0638 26.2596 24.0619 26.7216C26.1222 27.6756 28.4622 28.5504 30.7611 28.163C30.7969 28.157 30.7975 28.0946 30.7611 28.0892C28.5034 27.7592 26.4465 27.2033 24.4244 26.0921C23.4497 25.5565 22.4627 24.9924 21.562 24.3338C21.4955 24.2852 21.4359 24.2337 21.3737 24.1833C24.2047 25.9454 27.4332 26.9841 30.7762 27.1756C30.8136 27.1776 30.8202 27.1197 30.7849 27.1104C27.3184 26.1943 24.1668 24.8715 21.2958 22.8302C21.5745 22.9849 21.8488 23.1274 22.0964 23.2611C24.2217 24.4088 26.4959 25.2246 28.8734 25.6193C28.9467 25.6315 28.9749 25.5322 28.9043 25.5061C26.9371 24.7784 25.0124 23.9177 23.2281 22.7992C22.7128 22.4762 22.1206 22.1478 21.5775 21.7763C21.4186 21.6144 21.2668 21.4463 21.1223 21.2716C21.3801 21.4691 21.6439 21.647 21.8985 21.8026C23.6056 22.8457 25.6336 23.6241 27.5808 24.0487C27.6428 24.0622 27.6853 23.9743 27.6252 23.9414C26.2674 23.1948 24.8433 22.6467 23.5438 21.7788C22.6963 21.2128 21.516 20.4032 20.8635 19.4084L20.6686 19.0716L21.0747 19.4533C22.619 20.8237 24.6778 21.8123 26.5291 22.3893L27.0283 22.5364C27.0717 22.5485 27.1022 22.5046 27.0927 22.469L27.069 22.4385L25.4693 21.504C23.6962 20.4579 21.9757 19.3405 20.687 17.6996C21.1386 18.0618 21.6521 18.37 22.0605 18.6336C23.0965 19.3026 24.2009 20.0017 25.3793 20.3757C25.4702 20.4045 25.5143 20.2762 25.4413 20.2265C24.6153 19.6648 23.7349 19.2097 22.9413 18.594C22.4675 18.2265 22.0163 17.8402 21.5774 17.4311C21.2942 17.167 20.8666 16.8651 20.6141 16.5174L20.4886 16.305L20.8795 16.6354C21.9528 17.4912 23.2141 18.1093 24.5244 18.495C24.5381 18.4991 24.5513 18.4794 24.5391 18.4695C23.8871 17.9377 23.1385 17.5649 22.4493 17.0887C21.8906 16.7027 21.4336 16.2472 20.9797 15.765L20.6384 15.399C20.6378 15.3774 20.6376 15.3602 20.6372 15.3428C21.304 15.9368 22.0868 16.441 22.8936 16.7753C22.9458 16.7969 22.9866 16.7175 22.9475 16.6815C22.2734 16.0626 21.6084 15.4428 20.949 14.8105C21.1235 14.9096 21.3099 14.9926 21.4734 15.0696C21.7724 15.2103 22.0747 15.3276 22.3984 15.3937C22.4615 15.4067 22.4923 15.3281 22.4411 15.2911C22.1334 15.0699 21.813 14.8633 21.5242 14.6161C21.3789 14.4918 21.2497 14.3447 21.1097 14.213L20.8884 14.0316L20.8992 14.0044C21.238 14.2471 21.6282 14.4407 22.0089 14.5658C22.0939 14.5937 22.1645 14.4733 22.097 14.4124C21.7715 14.1177 21.4405 13.8139 21.1019 13.5307C21.1207 13.4887 21.1397 13.4469 21.159 13.4053C21.3443 13.533 21.5476 13.6384 21.7431 13.744C21.7966 13.7729 21.838 13.708 21.804 13.6639C21.6527 13.4665 21.4993 13.2537 21.3183 13.0801C21.3524 13.0142 21.3881 12.9494 21.424 12.8849C21.5303 12.958 21.6328 13.0361 21.7377 13.1117C21.8151 13.1675 21.9219 13.0576 21.8684 12.9791C21.7824 12.8531 21.6764 12.7462 21.5646 12.6444C21.6075 12.5747 21.6501 12.5049 21.6959 12.4377C22.1817 11.7234 22.7287 11.4389 23.4325 11.2972C25.2696 11.3801 27.2486 10.6882 28.9064 10.0445C30.9736 9.24151 32.9435 8.21013 35.0075 7.4023C37.1309 6.5713 39.3688 5.4643 41.6228 5.10829C42.8233 4.9187 43.9403 4.51307 45.1475 4.35416C45.4813 4.31033 45.7925 4.22407 46.0983 4.12763C46.96 4.04888 47.8004 3.82595 48.6673 3.76818C49.6648 3.7018 50.664 3.70743 51.6619 3.6564C53.793 3.54696 55.9223 3.40638 58.0441 3.17233C60.2311 2.93123 62.4182 2.63612 64.6168 2.52387C66.6833 2.41835 68.7569 2.46673 70.8256 2.46673C75.1127 2.46704 79.4426 2.26665 83.7224 2.54986ZM42.385 28.7434C40.3784 29.4576 38.2806 29.7915 36.1622 29.9265C34.1473 30.0547 32.067 29.9396 30.0681 30.2058C29.9393 30.223 29.8774 30.4368 30.034 30.4613C34.0751 31.0933 38.6979 30.5328 42.4353 28.8646C42.5032 28.8343 42.4545 28.7186 42.385 28.7434ZM81.2755 18.057C81.4997 18.5151 81.8986 18.9351 82.0841 19.3807C82.7119 20.8883 82.1555 22.5376 81.8664 24.0551C81.6393 25.2468 81.462 26.8274 80.4815 27.6626C79.5533 28.4532 78.0577 28.8858 76.8791 29.1164C74.4371 29.5942 71.8522 30.6112 69.349 30.5747C66.9842 30.5403 64.8095 29.2076 62.6581 28.2736L62.1619 28.0659L61.6602 27.8639C62.2932 27.7348 62.866 27.4087 63.1211 26.8593C63.3879 26.2849 63.4093 25.6958 63.2501 25.1645C63.0315 23.7937 61.7645 22.723 60.4475 22.3698C60.4008 22.3573 60.3542 22.4236 60.3969 22.4579C60.8379 22.8117 61.3168 23.1396 61.7404 23.5022C60.4981 22.9373 59.5076 21.8699 58.3327 22.0016C58.6391 21.8367 58.9607 21.7195 59.2765 21.6922C59.3104 21.6892 59.3222 21.6371 59.285 21.6287C58.2377 21.3896 57.1511 22.2148 56.5226 22.9957C56.1601 23.4463 55.9344 23.9353 55.9055 24.4509C55.7185 23.389 56.1372 22.2071 57.1057 21.7177C58.3807 21.0735 59.8008 20.9523 61.2026 21.0925C61.7121 21.1434 62.2204 21.2008 62.7279 21.2613L65.7703 21.635C66.785 21.7541 67.802 21.8589 68.826 21.9224C69.9231 21.9905 71.0935 22.194 72.1836 21.9613C72.3811 21.9191 72.5727 21.8638 72.762 21.8029C73.6865 21.6756 74.6018 21.4892 75.5387 21.4339C76.3815 21.3841 77.3025 21.3642 78.1052 21.0666C79.3704 20.5973 80.1702 19.6352 80.9132 18.5702C81.0465 18.4063 81.1709 18.2364 81.2755 18.057ZM71.8157 26.5532C71.5434 27.714 71.0503 28.7335 70.4458 29.7483C70.2985 29.9957 70.6581 30.1926 70.8192 29.9697C71.5314 28.9836 71.8711 27.779 71.9342 26.5695C71.9379 26.5001 71.8315 26.4863 71.8157 26.5532ZM71.3791 24.7757C70.9786 26.6006 70.1465 28.117 69.3445 29.7752C69.2571 29.956 69.4862 30.1669 69.6328 30.0008C70.8635 28.6063 71.3663 26.6198 71.4828 24.79C71.4866 24.7296 71.3919 24.717 71.3791 24.7757ZM19.4872 11.6568C17.0637 17.4111 16.4832 23.6215 16.5621 29.8205C16.5658 30.1117 16.989 30.1078 17.0044 29.8205C17.3337 23.722 17.9141 17.5891 19.5975 11.7041C19.6162 11.6388 19.5145 11.5921 19.4872 11.6568ZM72.3958 27.1335C72.2304 27.8849 71.9445 28.5688 71.629 29.2651C71.5293 29.4853 71.8334 29.677 71.9545 29.4582C72.3436 28.7555 72.5036 27.9498 72.5241 27.151C72.526 27.0766 72.4118 27.0599 72.3958 27.1335ZM44.6417 26.8139L44.601 26.8215C42.9863 27.6921 41.2242 28.0511 39.4312 28.3163C37.4368 28.6113 35.4317 28.8946 33.4301 29.1342C33.2857 29.1514 33.2772 29.3665 33.4301 29.3689C37.1759 29.4255 41.4348 29.042 44.6644 26.9318C44.7053 26.9051 44.7001 26.8568 44.6739 26.8308L44.6417 26.8139ZM72.9656 27.5837C72.9323 28.0825 72.7947 28.5564 72.5393 28.9847C72.4219 29.1817 72.7444 29.3653 72.8388 29.1624C73.0733 28.6583 73.1776 28.1393 73.1164 27.5837C73.1057 27.4868 72.9723 27.4837 72.9656 27.5837ZM15.3756 18.8537C14.5082 21.9205 14.1512 25.1048 14.4225 28.2901C14.4447 28.5516 14.8299 28.5603 14.8296 28.2901C14.8267 25.1352 15.0088 22.0054 15.4872 18.8849C15.4983 18.8118 15.3966 18.7792 15.3756 18.8537ZM45.3122 25.3581L45.2746 25.363C42.7957 26.7557 39.9912 27.6105 37.1829 27.9657C37.0271 27.9854 37.0165 28.2232 37.1829 28.2208C40.1866 28.1758 42.8787 27.2066 45.3229 25.4467C45.3476 25.4289 45.3492 25.4003 45.3378 25.38L45.3122 25.3581ZM78.7064 26.3627C78.5329 26.6691 78.3314 26.9373 78.153 27.2224C78.0145 27.4441 77.8887 27.673 77.6761 27.8323C77.5208 27.949 77.6746 28.2159 77.8284 28.0968C78.3598 27.6849 78.448 26.9699 78.722 26.3897L78.7208 26.3713L78.7064 26.3627ZM80.6243 24.0037L80.5922 24.0304C79.9395 25.332 79.1689 26.5667 78.5129 27.8644C78.4136 28.0606 78.6753 28.2084 78.7994 28.0343C79.6441 26.8479 80.2168 25.4485 80.6978 24.0756C80.7089 24.0441 80.6899 24.0181 80.6644 24.0073L80.6243 24.0037ZM63.7592 25.5522C63.6727 26.3005 63.5551 26.9436 63.1486 27.5916C63.016 27.8028 63.3501 28.0004 63.4784 27.7873C63.8734 27.1317 64.1218 26.2936 63.9468 25.5263C63.9206 25.4114 63.7708 25.451 63.7592 25.5522ZM58.89 22.3508C59.8298 22.7034 60.6518 23.4258 61.5612 23.8721C62.2109 24.1908 62.7274 24.5874 62.8555 25.3583C62.9459 25.9025 62.9831 26.5678 62.4952 26.9508C61.9257 27.3977 61.2966 27.5231 60.6523 27.4619C60.1468 27.2643 59.6388 27.0744 59.1288 26.9044C58.391 26.6585 57.4351 26.4578 56.7763 25.9565C56.4896 25.3664 56.3724 24.6912 56.6198 24.051C56.9059 23.3108 57.9021 21.9801 58.89 22.3508ZM81.5407 21.9306C81.1965 23.762 80.7681 25.4295 79.9078 27.089C79.7992 27.2986 80.0769 27.4473 80.2116 27.2692C81.3429 25.7744 81.4937 23.7578 81.6395 21.9443C81.6441 21.887 81.5514 21.8743 81.5407 21.9306ZM57.4239 23.826C57.4445 23.7454 57.3442 23.7136 57.2998 23.7729C56.8852 24.3267 56.675 24.7229 57.0275 25.3588C57.4166 26.0605 58.1862 25.6311 58.6865 26.0459C59.2497 26.513 59.9654 26.7536 60.6484 26.9912C61.4439 27.2679 61.9852 26.5955 62.4412 26.0804C62.5714 25.9334 62.4096 25.7358 62.2402 25.816C61.561 26.1372 61.0979 25.7427 60.4789 25.5487C60.0996 25.4299 59.7138 25.3684 59.3896 25.1213C59.0749 24.8813 58.8447 24.7929 58.4616 24.7511C58.0171 24.7025 56.9368 25.7319 57.4239 23.826ZM46.2883 23.8848L46.2593 23.8898C44.1203 25.2677 41.7833 25.854 39.4499 26.7457C39.3422 26.7869 39.349 26.9672 39.4786 26.9611C41.9704 26.8443 44.3426 25.4114 46.2974 23.9559C46.3165 23.9416 46.3174 23.9184 46.3084 23.9021L46.2883 23.8848ZM31.6377 24.6718C31.4674 24.6563 31.4561 24.9058 31.5996 24.9573C34.7308 26.0816 38.4359 25.7783 41.572 24.8542C41.6547 24.8297 41.6188 24.7131 41.5373 24.7263C39.8366 24.9999 38.1199 25.1372 36.3977 25.1039C34.7942 25.0729 33.2303 24.8158 31.6377 24.6718ZM28.7867 22.4286C29.9097 23.4262 31.5682 23.8501 33.0042 24.126C34.6833 24.4485 36.3704 24.5936 38.0782 24.4832C38.1401 24.4792 38.1393 24.3915 38.0782 24.3863C36.4136 24.2432 34.7646 24.0228 33.1354 23.6432C31.7251 23.3146 30.1748 22.9964 28.9055 22.2724C28.8108 22.2184 28.7007 22.3522 28.7867 22.4286ZM5.37712 11.5561C4.30808 15.3065 3.41923 19.4639 3.49838 23.3911C3.50147 23.5445 3.73984 23.5885 3.76992 23.4283C4.14808 21.4111 4.28616 19.3432 4.6043 17.3139C4.90331 15.4063 5.1895 13.4968 5.50317 11.5913C5.51674 11.5086 5.40104 11.4725 5.37712 11.5561ZM53.5948 17.7198C54.477 18.7324 55.6984 19.5805 57.0695 19.6419C57.2406 19.6495 57.2588 19.4022 57.1082 19.3513C55.8562 18.9284 54.6914 18.5295 53.6624 17.6513C53.6155 17.6112 53.5536 17.6725 53.5948 17.7198ZM51.9439 17.0101C52.7981 18.2166 53.781 19.3563 55.2936 19.6057C55.4649 19.6339 55.5332 19.3995 55.3658 19.34C54.0556 18.8755 52.9684 17.9579 52.0427 16.933C51.995 16.88 51.902 16.951 51.9439 17.0101ZM50.4264 16.3801C51.2081 17.5511 52.1539 19.142 53.5693 19.581C53.723 19.6286 53.7878 19.419 53.6719 19.3339C52.4842 18.4626 51.5769 17.3288 50.5211 16.3058C50.473 16.2592 50.3867 16.3207 50.4264 16.3801ZM6.32575 11.1829C5.52932 13.7379 5.03792 16.6297 5.13666 19.314C5.14592 19.5646 5.48998 19.5558 5.51374 19.314C5.78096 16.5927 6.03414 13.9288 6.49545 11.2304C6.51458 11.1184 6.36046 11.0716 6.32575 11.1829ZM68.536 16.7756C68.6878 17.8843 69.4207 18.6447 70.3024 19.2495C70.3991 19.3159 70.5161 19.1626 70.4272 19.0853C69.6856 18.4384 69.0243 17.6534 68.6187 16.7402C68.5957 16.6884 68.5297 16.7291 68.536 16.7756ZM55.9907 18.1931C56.6225 18.7591 57.2877 19.1631 58.1412 19.2449C58.2667 19.2569 58.2824 19.064 58.1699 19.0294C57.4397 18.8045 56.6851 18.5541 56.0485 18.117C56.0036 18.0862 55.9501 18.1568 55.9907 18.1931ZM67.4882 15.2555C67.5896 16.6403 68.0252 18.2049 69.088 19.1557C69.2176 19.2717 69.4383 19.1218 69.3367 18.9609C68.5735 17.7507 67.8439 16.6923 67.5623 15.2454C67.5541 15.2031 67.4852 15.2125 67.4882 15.2555ZM66.5905 14.5315C66.6644 16.1891 66.9717 17.8929 68.1719 19.1096C68.2979 19.2374 68.5338 19.0655 68.4246 18.9117C67.441 17.5282 66.9754 16.1902 66.7139 14.5146C66.7026 14.443 66.5872 14.4605 66.5905 14.5315ZM65.976 15.1446C66.0928 16.411 66.2579 17.7854 67.0308 18.8327C67.1615 19.0098 67.444 18.8575 67.3303 18.655C66.7019 17.5349 66.3976 16.3709 66.1043 15.1269C66.0874 15.0552 65.969 15.0693 65.976 15.1446ZM65.4442 15.4721C65.4051 16.5222 65.5364 17.7194 66.1451 18.6022C66.2441 18.7458 66.5158 18.6605 66.4438 18.4745C66.0517 17.4631 65.6295 16.5728 65.5245 15.4721C65.5198 15.4204 65.4462 15.4187 65.4442 15.4721ZM72.9245 11.8267C72.947 11.838 72.9693 11.8494 72.9919 11.8605C74.0165 12.3681 75.057 12.8426 76.149 13.183C77.3123 13.5454 78.6568 13.7822 79.721 14.401C79.8406 14.4705 79.9548 14.5491 80.0646 14.6331C78.9282 14.4144 77.8081 15.4596 77.0268 16.2428C75.8894 17.3835 74.3072 16.2499 73.3406 15.4344C72.9252 15.0837 72.4607 14.692 72.2013 14.2003C71.8077 13.454 71.7138 11.9903 72.9245 11.8267ZM72.8604 12.7248C72.7277 12.5371 72.4243 12.6451 72.4836 12.8861C72.6473 13.5506 72.8286 14.1368 73.2728 14.6785C73.7029 15.2029 74.2832 15.3986 74.7797 15.8105C75.0614 16.0441 75.7091 16.5567 76.0987 16.2517C76.6917 15.7873 77.0739 15.2122 77.7816 14.8659C77.8586 14.8281 77.803 14.7118 77.7254 14.7306C77.2705 14.8414 76.8892 14.9977 76.472 15.2109C75.8577 15.5251 75.6606 15.0468 75.2573 14.6778C74.9401 14.3876 74.445 14.3353 74.0919 14.0789C73.6091 13.7283 73.2056 13.2131 72.8604 12.7248ZM34.3221 10.5759C31.1476 11.6458 27.8065 12.6651 25.6328 15.4324C25.464 15.6474 25.7266 15.9311 25.9349 15.7391C28.3693 13.4947 31.2517 11.7991 34.3462 10.6645C34.4004 10.6446 34.378 10.5571 34.3221 10.5759ZM7.43825 10.9667L7.4193 10.9848C7.1041 11.9493 6.89705 12.9459 6.66639 13.9338C6.61594 14.1502 6.95258 14.2391 6.99116 14.0246C7.1726 13.0178 7.37934 12.0124 7.47361 10.9923L7.463 10.9693L7.43825 10.9667ZM37.1245 8.94205C33.8596 9.24561 30.7637 10.3817 28.0434 12.2267C27.8913 12.3299 28.0222 12.5521 28.1855 12.4733L29.6332 11.771C32.0452 10.6016 34.469 9.48097 37.1392 9.05227C37.2006 9.04241 37.1864 8.93626 37.1245 8.94205ZM64.2571 8.54641L64.2099 8.55577C63.6875 8.83256 63.2355 9.21581 62.8894 9.70348C62.5219 10.221 62.4373 10.7521 62.36 11.3719C62.3454 11.4896 62.5182 11.4973 62.5526 11.3983C62.7283 10.8938 63.0479 10.4178 63.316 9.95647C63.5892 9.48633 63.9276 9.06927 64.3074 8.68399C64.3472 8.6436 64.3329 8.5903 64.2978 8.56325L64.2571 8.54641ZM63.49 8.30299L63.4438 8.30622C62.6131 8.64234 61.6573 9.409 61.5533 10.38C61.5331 10.5691 61.7796 10.5849 61.8671 10.4664C62.1215 10.1215 62.2925 9.71631 62.5535 9.37033C62.8197 9.01761 63.1466 8.70669 63.5038 8.45072C63.5441 8.42188 63.5459 8.36284 63.522 8.32789L63.49 8.30299ZM102.117 8.22463L102.098 8.22542C101.055 8.93368 99.9202 9.26886 98.7605 9.71192C98.611 9.76906 98.6177 10.0404 98.8013 10.0175C100.064 9.86111 101.193 9.09743 102.123 8.25751L102.128 8.23952L102.117 8.22463ZM102.975 8.53613L102.945 8.54601C102.193 9.15877 101.366 9.43431 100.46 9.71439C100.317 9.75869 100.337 10.0092 100.497 9.98993C101.462 9.87454 102.33 9.28997 103.001 8.60378C103.02 8.58468 103.016 8.56222 103.002 8.54854L102.975 8.53613ZM103.895 8.50966L103.869 8.52192C103.31 9.17397 102.495 9.31315 101.784 9.71393C101.635 9.79769 101.738 10.0214 101.896 9.98431C102.716 9.79159 103.452 9.26337 103.932 8.57139C103.945 8.55245 103.937 8.53139 103.922 8.51942L103.895 8.50966ZM101.261 7.89819L101.232 7.90268C100.071 8.61501 98.7952 9.041 97.545 9.55653C97.3117 9.65282 97.3961 10.0249 97.6519 9.95011C98.9891 9.55904 100.143 8.77297 101.27 7.96875C101.289 7.95481 101.291 7.93184 101.281 7.91558L101.261 7.89819ZM104.465 8.62515L104.434 8.63949C104.214 8.84411 103.991 9.03902 103.747 9.2139C103.543 9.36028 103.321 9.45844 103.104 9.58149C102.955 9.66572 103.063 9.86752 103.212 9.84247C103.794 9.7454 104.196 9.15347 104.525 8.71073C104.55 8.67738 104.529 8.64302 104.498 8.6301L104.465 8.62515ZM39.7189 7.15031C37.2585 7.4462 34.8177 7.97504 32.5673 9.0595C32.4039 9.13809 32.5198 9.40737 32.6894 9.3532C35.0263 8.60549 37.3357 7.79547 39.7336 7.26052C39.7938 7.24706 39.7813 7.14279 39.7189 7.15031ZM39.8939 8.59123C39.7313 8.63632 39.7589 8.91545 39.9347 8.89698C42.5339 8.62317 45.0051 8.39945 47.6181 8.70176C47.6803 8.70896 47.6932 8.60438 47.6328 8.59154C45.1316 8.05925 42.3824 7.90285 39.8939 8.59123ZM41.9026 7.3745C41.7905 7.38232 41.7882 7.55187 41.9026 7.55297C43.707 7.57131 45.5048 7.72598 47.3009 7.9024L49.9944 8.16901L51.3414 8.28768C51.4008 8.29254 51.4136 8.19438 51.3554 8.18248C48.2277 7.54514 45.0953 7.1525 41.9026 7.3745Z" stroke="#222222" stroke-width="1.0125" stroke-linejoin="bevel"/>
</svg>
