<svg width="32" height="32" viewBox="0 0 32 32" fill="none" xmlns="http://www.w3.org/2000/svg">
<rect x="0.75" y="0.75" width="30.5" height="30.5" rx="15.25" fill="white" stroke="black" stroke-width="1.5"/>
<path d="M13.0334 23C19.0697 23 22.3722 17.9978 22.3722 13.6612C22.3722 13.5206 22.3691 13.3769 22.3628 13.2362C23.0052 12.7716 23.5597 12.1962 24 11.5369C23.4017 11.8031 22.7664 11.9769 22.1159 12.0525C22.8009 11.6419 23.3137 10.997 23.5594 10.2372C22.915 10.619 22.2104 10.8884 21.4756 11.0337C20.9806 10.5077 20.326 10.1594 19.6131 10.0427C18.9003 9.92599 18.1688 10.0474 17.5318 10.3881C16.8949 10.7288 16.3879 11.2698 16.0892 11.9275C15.7906 12.5853 15.717 13.3231 15.8797 14.0269C14.575 13.9614 13.2986 13.6225 12.1333 13.0321C10.968 12.4417 9.9398 11.613 9.11531 10.5997C8.69627 11.3222 8.56804 12.1771 8.75669 12.9907C8.94534 13.8044 9.43671 14.5156 10.1309 14.98C9.60975 14.9634 9.09998 14.8231 8.64375 14.5706V14.6112C8.64328 15.3694 8.9054 16.1044 9.38554 16.6912C9.86568 17.278 10.5342 17.6804 11.2775 17.83C10.7947 17.9621 10.288 17.9813 9.79656 17.8862C10.0063 18.5383 10.4144 19.1086 10.9638 19.5176C11.5133 19.9265 12.1767 20.1537 12.8616 20.1675C11.6989 21.0807 10.2628 21.5761 8.78438 21.5737C8.52219 21.5733 8.26027 21.5573 8 21.5256C9.5019 22.4892 11.249 23.0009 13.0334 23Z" fill="#222222"/>
</svg>
